<svg width="147" height="50" viewBox="0 0 147 50" fill="none" xmlns="http://www.w3.org/2000/svg">
<path d="M42.3962 50H25.2006C24.7287 50 24.2857 49.748 24.0462 49.3439C23.8067 48.9398 23.8019 48.4335 24.0318 48.0246L26.9704 42.8093H18.8851C18.4851 42.8093 18.1139 42.5953 17.9175 42.2506C17.9151 42.2435 17.9103 42.2388 17.9079 42.2316C17.8385 42.1627 17.7786 42.0843 17.7283 41.9987L14.567 36.7286L11.5063 41.9725C11.2787 42.3647 10.8548 42.6072 10.3998 42.6072C10.3974 42.6072 10.395 42.6072 10.3926 42.6072C9.93518 42.6048 9.50888 42.3552 9.28615 41.9606L0.163814 25.8914C-0.0589158 25.4992 -0.0541289 25.0119 0.175786 24.6244L9.29813 9.19226C9.52565 8.80717 9.94476 8.56708 10.395 8.5647C10.3974 8.5647 10.3998 8.5647 10.4022 8.5647C10.8477 8.5647 11.2668 8.80004 11.4991 9.178L14.4401 14.0178L17.7307 8.52905C17.7666 8.46962 17.8074 8.41257 17.8529 8.3579L18.2145 7.72322L18.854 7.71608H27.1548L23.5313 1.07446L24.1587 0.00951045L24.7862 0H43.1554L43.4812 0.546738L52.5508 16.2356C52.7711 16.6183 52.7711 17.0914 52.5484 17.4741C52.3257 17.8568 51.9114 18.0921 51.4683 18.0921H45.0307L48.8171 24.4057C48.9704 24.6601 49.0254 24.9525 48.9847 25.2377C49.0374 25.5301 48.9871 25.8344 48.8339 26.0982L45.1385 32.4308H51.3102C51.7892 32.4308 52.2347 32.6876 52.4718 33.1012C52.7089 33.5148 52.7041 34.0259 52.4598 34.4347L43.5458 49.3487C43.3063 49.7504 42.8657 50 42.3962 50ZM26.5968 47.8606H41.9316L49.8757 34.5702H43.8907L39.4121 42.2411C39.2062 42.5906 38.823 42.8093 38.4135 42.8093H29.442L26.5968 47.8606ZM19.7904 42.2292L19.7856 42.2364C19.788 42.234 19.788 42.2316 19.7904 42.2292ZM30.649 40.6675H37.8387L41.3976 34.5678H34.0834L30.649 40.6675ZM20.7244 40.6675H28.1775L32.4381 33.1083C32.6752 32.6899 33.1206 32.4285 33.6044 32.4285H42.6453L46.2042 26.3288H29.3199L20.7244 40.6675ZM15.8076 34.6059L18.83 39.6477L27.4566 25.2615L18.83 10.8752L15.7022 16.093L20.8777 24.6078C21.1196 25.0048 21.1244 25.4992 20.8897 25.9009L15.8076 34.6059ZM2.28573 25.2734L10.4094 39.5835L13.3049 34.6225L8.0815 25.9128C7.842 25.5111 7.842 25.0143 8.0815 24.6125L13.1851 16.1001L10.4118 11.5313L2.28573 25.2734ZM10.2034 25.2615L14.5454 32.4998L18.7653 25.271L14.452 18.1753L10.2034 25.2615ZM29.3222 24.1918H46.1803L42.5232 18.0921H32.8284L32.5051 17.5288L28.3212 9.8531H20.7244L29.3222 24.1918ZM43.7494 15.9527H49.9044L41.9197 2.13939H26.5657L29.6049 7.71608H38.0255C38.5093 7.71608 38.9619 7.97281 39.2086 8.38405L43.7494 15.9527ZM34.0954 15.9527H41.2419L37.5848 9.8531H30.7736L34.0954 15.9527ZM19.7688 8.25806L19.7712 8.26044C19.7688 8.26044 19.7688 8.26044 19.7688 8.25806Z" fill="white"/>
<path d="M65.9649 37.7033C64.8919 36.5504 64.3555 34.8959 64.3555 32.7399V12.4299H68.5706V33.0442C68.5706 33.957 68.755 34.6178 69.1262 35.0219C69.495 35.4284 70.0267 35.6305 70.7164 35.6305C71.4062 35.6305 71.9355 35.4284 72.3067 35.0219C72.6779 34.6154 72.8623 33.957 72.8623 33.0442V12.4299H76.9241V32.7399C76.9241 34.8959 76.3877 36.5504 75.3147 37.7033C74.2418 38.8562 72.6827 39.4338 70.6398 39.4338C68.5945 39.4338 67.0378 38.8562 65.9649 37.7033Z" fill="white"/>
<path d="M79.913 12.4299H85.2011L89.3012 28.366H89.3778V12.4299H93.1331V39.0535H88.8031L83.7449 19.6183H83.6683V39.0535H79.913V12.4299Z" fill="white"/>
<path d="M96.2729 12.4299H100.488V39.0535H96.2729V12.4299Z" fill="white"/>
<path d="M103.63 12.4299H110.068C112.161 12.4299 113.732 12.9886 114.781 14.1034C115.828 15.2183 116.352 16.8561 116.352 19.0098V32.4737C116.352 34.6297 115.828 36.2652 114.781 37.38C113.732 38.4973 112.161 39.0535 110.068 39.0535H103.63V12.4299ZM109.991 35.2501C110.681 35.2501 111.21 35.0481 111.581 34.6416C111.95 34.2351 112.137 33.5766 112.137 32.6638V18.8196C112.137 17.9068 111.95 17.2483 111.581 16.8418C111.21 16.4354 110.681 16.2333 109.991 16.2333H107.845V35.2501H109.991Z" fill="white"/>
<path d="M119.188 12.4299H130.683V16.2333H123.403V23.2695H129.189V27.0729H123.403V35.2501H130.683V39.0535H119.188V12.4299Z" fill="white"/>
<path d="M136.891 25.4374L132.255 12.4299H136.7L139.535 21.0255H139.612L142.524 12.4299H146.509L141.873 25.4374L146.739 39.0535H142.294L139.229 29.7733H139.152L136.01 39.0535H132.025L136.891 25.4374Z" fill="white"/>
</svg>
