<svg width="780" height="371" viewBox="0 0 780 371" fill="none" xmlns="http://www.w3.org/2000/svg">
<mask id="mask0_3535_9561" style="mask-type:alpha" maskUnits="userSpaceOnUse" x="0" y="0" width="780" height="371">
<rect width="780" height="371" rx="10" fill="url(#paint0_linear_3535_9561)"/>
</mask>
<g mask="url(#mask0_3535_9561)">
<mask id="mask1_3535_9561" style="mask-type:alpha" maskUnits="userSpaceOnUse" x="-9" y="1" width="789" height="369">
<rect x="-9" y="1" width="789" height="369" fill="#C4C4C4"/>
</mask>
<g mask="url(#mask1_3535_9561)">
</g>
<g clip-path="url(#clip0_3535_9561)">
<line x1="542.829" y1="1" x2="542.829" y2="369" stroke="#BD263F"/>
<line x1="332.688" y1="1" x2="332.688" y2="369" stroke="#BD263F"/>
<line x1="214.312" y1="1" x2="214.312" y2="369" stroke="#BD263F"/>
<path fill-rule="evenodd" clip-rule="evenodd" d="M322.094 99.9297H320.259V185H322.094V99.9297ZM329.435 105.665H331.271V185H329.435V105.665ZM340.447 109.966H338.612V185H340.447V109.966ZM347.788 118.569H349.624V185H347.788V118.569ZM358.8 129.561H356.965V185H358.8V129.561ZM366.141 143.421H367.976V185H366.141V143.421ZM751.553 148.678H753.388V185H751.553V148.678ZM762.565 154.891H760.729V185H762.565V154.891ZM771.741 161.582H769.906V185H771.741V161.582ZM744.212 149.634H742.376V185H744.212V149.634ZM733.2 157.28H735.035V185H733.2V157.28ZM725.859 170.184H724.023V185H725.859V170.184ZM714.847 180.221H716.682V185H714.847V180.221ZM707.506 181.176H705.671V185H707.506V181.176ZM696.494 183.566H698.329V185H696.494V183.566ZM689.153 194.558H687.318V185H689.153V194.558ZM678.141 197.904H679.976V185H678.141V197.904ZM670.8 193.602H668.965V185H670.8V193.602ZM659.788 187.389H661.624V185H659.788V187.389ZM652.447 183.088H650.612V185H652.447V183.088ZM641.435 182.61H643.271V185H641.435V182.61ZM634.094 186.912H632.259V185H634.094V186.912ZM623.082 190.257H624.918V185H623.082V190.257ZM615.741 189.301H613.906V185H615.741V189.301ZM604.729 187.389H606.565V185H604.729V187.389ZM597.388 193.124H595.553V185H597.388V193.124ZM586.376 192.169H588.212V185H586.376V192.169ZM579.035 187.389H577.2V185H579.035V187.389ZM568.024 190.257H569.859V185H568.024V190.257ZM560.682 192.169H558.847V185H560.682V192.169ZM549.671 198.86H551.506V185H549.671V198.86ZM542.329 210.33H540.494V185H542.329V210.33ZM531.318 219.41H533.153V185H531.318V219.41ZM523.976 220.366H522.141V185H523.976V220.366ZM512.965 219.41H514.8V185H512.965V219.41ZM505.624 218.454H503.788V185H505.624V218.454ZM494.612 218.454H496.447V185H494.612V218.454ZM487.271 217.021H485.435V185H487.271V217.021ZM476.259 215.587H478.094V185H476.259V215.587ZM468.918 215.587H467.082V185H468.918V215.587ZM457.906 218.454H459.741V185H457.906V218.454ZM450.565 217.499H448.729V185H450.565V217.499ZM439.553 213.197H441.388V185H439.553V213.197ZM432.212 205.073H430.376V185H432.212V205.073ZM421.2 195.036H423.035V185H421.2V195.036ZM413.859 183.566H412.023V185H413.859V183.566ZM402.847 179.265H404.682V185H402.847V179.265ZM395.506 174.963H393.671V185H395.506V174.963ZM384.494 168.75H386.329V185H384.494V168.75ZM377.153 158.236H375.318V185H377.153V158.236ZM311.082 101.841H312.918V185H311.082V101.841ZM303.741 111.4H301.906V185H303.741V111.4ZM292.729 121.436H294.565V185H292.729V121.436ZM285.388 136.252H283.553V185H285.388V136.252ZM274.376 143.421H276.212V185H274.376V143.421ZM267.035 153.935H265.2V185H267.035V153.935ZM256.023 171.618H257.859V185H256.023V171.618ZM248.682 187.389H246.847V185H248.682V187.389ZM237.671 204.595H239.506V185H237.671V204.595ZM230.329 222.278H228.494V185H230.329V222.278ZM219.318 227.535H221.153V185H219.318V227.535ZM211.976 231.836H210.141V185H211.976V231.836ZM200.965 234.226H202.8V185H200.965V234.226ZM193.624 234.226H191.788V185H193.624V234.226ZM182.612 229.924H184.447V185H182.612V229.924ZM175.271 222.278H173.435V185H175.271V222.278ZM164.259 221.322H166.094V185H164.259V221.322ZM156.918 226.101H155.082V185H156.918V226.101ZM145.906 219.888H147.741V185H145.906V219.888ZM138.565 217.021H136.729V185H138.565V217.021ZM127.553 208.896H129.388V185H127.553V208.896ZM120.212 201.727H118.376V185H120.212V201.727ZM109.2 200.771H111.035V185H109.2V200.771ZM101.859 201.249H100.023V185H101.859V201.249ZM90.847 200.293H92.6823V185H90.847V200.293ZM83.5058 195.036H81.6706V185H83.5058V195.036ZM72.4941 193.602H74.3294V185H72.4941V193.602ZM65.1529 190.735H63.3176V185H65.1529V190.735ZM54.1411 182.132H55.9764V185H54.1411V182.132ZM46.8 172.096H44.9647V185H46.8V172.096ZM35.7882 165.405H37.6235V185H35.7882V165.405ZM28.447 160.626H26.6117V185H28.447V160.626ZM17.4353 156.802H19.2706V185H17.4353V156.802ZM10.0941 152.501H8.25879V185H10.0941V152.501Z" fill="#3F81BE"/>
<path d="M0 184.851H780" stroke="#999FAE"/>
<path d="M780 150.112C776.329 150.351 770.365 150.59 767.153 150.829C764.428 151.032 755.682 151.307 753.847 151.546C752.588 151.71 739.624 164.45 738.247 166.361C737.08 167.982 724.176 188.027 717.6 197.904C713.471 197.506 705.212 197.426 702.918 197.904C699.905 198.532 689.153 208.896 687.776 210.808C687.082 211.772 684.565 211.764 683.188 211.764L680.894 212.959C674.471 207.702 659.329 195.754 650.153 194.559C643.384 193.677 628.894 196.152 624 197.665L607.482 193.603L597.847 199.099C590.047 197.187 577.659 187.868 577.659 187.868C577.659 187.868 575.365 187.868 573.529 187.868C571.694 187.31 566.831 186.386 562.059 186.195C556.094 185.956 554.259 185.956 552.424 186.195C550.819 186.404 544.624 192.886 536.365 192.886C529.024 192.886 516.635 179.265 514.341 176.876C512.395 174.848 501.035 162.299 498.282 160.626C495.988 159.232 473.506 133.146 469.376 131.234C465.19 129.296 459.741 127.631 456.529 126.216C450.565 123.587 434.427 100.425 432.212 97.5406C430.744 95.6289 425.788 91.5666 422.576 90.1328H342.282C336.624 96.9034 324.939 111.209 323.471 113.312C322.002 115.415 316.129 128.367 313.376 134.58L302.365 166.361C300.376 169.548 297.776 175.203 297.318 177.593C296.907 179.733 293.647 192.647 292.729 195.515C291.429 199.577 273.918 229.447 262.447 247.608C260.153 253.821 253.271 262.663 252.353 263.619C251.482 264.525 245.929 269.832 243.635 270.548C240.424 271.552 229.871 271.265 221.612 271.265C217.482 271.265 208.002 271.107 205.553 269.832C201.882 267.92 195.459 257.565 191.788 251.432C185.824 242.351 174.904 221.322 171.6 218.455C168.847 216.065 161.718 212.095 160.129 210.808C156 207.463 141.318 187.868 132.6 176.159C128.471 170.344 121.129 159.124 117 157.281C113.788 155.847 107.365 151.785 94.9765 148.917C92.5577 148.357 86.8706 143.341 83.9647 141.032C76.6235 140.076 66.0706 136.969 62.4 134.58C59.4103 132.633 52.3059 126.694 49.0941 124.065C45.8824 123.109 41.6612 123.109 39.4588 123.109C36.7059 123.109 23.4 126.455 21.1059 126.694C18.8118 126.933 15.6 127.124 12.3882 128.128C9.17647 129.131 3.51765 135.217 0 138.403" stroke="#009266" stroke-width="2"/>
<path d="M780 169.228C773.729 173.211 760.638 181.368 758.435 183.088C755.682 185.239 741.459 196.47 736.412 198.143C731.485 199.776 709.8 201.966 702 201.727C694.2 201.488 635.012 192.567 627.671 191.93C622.165 191.452 590.047 188.784 578.576 185.717C561.6 181.176 532.343 158.953 522.6 149.873C512.857 140.792 475.341 103.992 473.047 102.558C470.753 101.125 455.612 91.1678 451.024 90.3713C448.821 89.9889 408.2 90.212 388.165 90.3713C380.824 96.5843 371.464 107.051 368.894 112.595C365.682 119.525 351.459 141.748 351 143.182C350.541 144.615 337.235 166.361 335.4 172.335C333.565 178.309 323.471 195.036 323.471 196.47C323.471 197.904 312 222.278 310.165 224.906C308.329 227.535 294.565 248.324 293.188 249.758C292.367 250.613 279.882 268.875 261.988 269.353C244.094 269.831 218.4 237.093 214.729 233.27C211.059 229.447 173.894 182.849 168.847 178.07C164.554 174.005 135.353 150.112 127.094 146.049C119.532 142.329 94.0588 129.826 76.1647 129.322C59.6471 128.857 46.6471 137.686 40.8353 141.748L0 167.078" stroke="#C98708" stroke-width="2"/>
</g>
</g>
<defs>
<linearGradient id="paint0_linear_3535_9561" x1="780" y1="186" x2="-2.06026e-05" y2="186" gradientUnits="userSpaceOnUse">
<stop offset="0.494792" stop-color="white"/>
<stop offset="0.880208" stop-color="white" stop-opacity="0"/>
</linearGradient>
<clipPath id="clip0_3535_9561">
<rect width="780" height="368" fill="white" transform="translate(0 1)"/>
</clipPath>
</defs>
</svg>
