<svg width="20" height="16" viewBox="0 0 20 16" fill="none" xmlns="http://www.w3.org/2000/svg">
<path fill-rule="evenodd" clip-rule="evenodd" d="M11.5903 0.278463C11.9888 -0.103925 12.6219 -0.0908679 13.0043 0.307627L19.7213 7.30763C20.0926 7.69455 20.0926 8.30545 19.7213 8.69238L13.0043 15.6924C12.6219 16.0909 11.9888 16.1039 11.5903 15.7215C11.1918 15.3392 11.1788 14.7061 11.5612 14.3076L17.6139 8L11.5612 1.69238C11.1788 1.29388 11.1918 0.660851 11.5903 0.278463Z" fill="#30DEAB"/>
<path fill-rule="evenodd" clip-rule="evenodd" d="M17.7329 8.03223C17.7329 8.58451 17.2852 9.03223 16.7329 9.03223L0.999846 9.03223C0.447561 9.03223 -0.000154495 8.58451 -0.000154495 8.03223C-0.000154495 7.47994 0.447561 7.03223 0.999846 7.03223L16.7329 7.03223C17.2852 7.03223 17.7329 7.47994 17.7329 8.03223Z" fill="#30DEAB"/>
</svg>
