<svg width="24" height="24" viewBox="0 0 24 24" fill="none" xmlns="http://www.w3.org/2000/svg">
<path fill-rule="evenodd" clip-rule="evenodd" d="M6.19527 11.6625C6.45562 11.4038 6.87773 11.4038 7.13808 11.6625L10.4379 14.9412L17.509 7.91534C17.7693 7.65666 18.1914 7.65666 18.4518 7.91534C18.7121 8.17403 18.7121 8.59344 18.4518 8.85213L10.4379 16.8148L6.19527 12.5992C5.93492 12.3406 5.93492 11.9212 6.19527 11.6625Z" fill="#30DEAB"/>
<path d="M23.5 11.9233C23.5 18.2292 18.3543 23.3466 12 23.3466C5.6457 23.3466 0.5 18.2292 0.5 11.9233C0.5 5.61739 5.6457 0.5 12 0.5C18.3543 0.5 23.5 5.61739 23.5 11.9233Z" stroke="#30DEAB"/>
</svg>
