<svg width="652" height="594" viewBox="0 0 652 594" fill="none" xmlns="http://www.w3.org/2000/svg">
<path d="M281.841 121.857L280.131 125.564L283.838 127.274L285.548 123.566L281.841 121.857ZM296.695 162.134L298.404 158.427L294.697 156.718L292.987 160.425L296.695 162.134ZM282.37 124.738L295.227 159.599L296.165 159.253L283.309 124.392L282.37 124.738Z" fill="#2B3542"/>
<path d="M372.471 100.304L368.754 101.992L370.442 105.709L374.159 104.021L372.471 100.304ZM347.025 168.092L350.742 166.404L349.054 162.686L345.337 164.375L347.025 168.092ZM370.988 102.831L347.571 165.213L348.508 165.565L371.924 103.182L370.988 102.831Z" fill="#2B3542"/>
<path d="M396.954 177.221L392.944 177.987L393.71 181.997L397.72 181.231L396.954 177.221ZM384.986 194.84L388.996 194.074L388.23 190.064L384.22 190.83L384.986 194.84ZM394.919 179.328L386.195 192.171L387.022 192.733L395.746 179.89L394.919 179.328Z" fill="#2B3542"/>
<path d="M490.589 139.502L486.506 139.489L486.493 143.572L490.575 143.585L490.589 139.502ZM403.845 225.678L407.927 225.691L407.941 221.609L403.858 221.596L403.845 225.678ZM488.188 141.182L405.541 223.289L406.245 223.998L488.893 141.892L488.188 141.182Z" fill="#2B3542"/>
<path d="M441.839 273.183L438.952 270.296L436.065 273.183L438.952 276.069L441.839 273.183ZM408.516 273.183L411.403 276.069L414.29 273.183L411.403 270.296L408.516 273.183ZM438.952 272.683H411.403V273.683H438.952V272.683Z" fill="#2B3542"/>
<path d="M535.458 216.693L532.091 214.384L529.782 217.75L533.148 220.06L535.458 216.693ZM409.024 240.226L412.39 242.536L414.7 239.17L411.334 236.86L409.024 240.226ZM532.528 216.73L411.77 239.206L411.953 240.189L532.711 217.713L532.528 216.73Z" fill="#2B3542"/>
<path d="M591.045 321.677L588.509 318.478L585.31 321.014L587.846 324.213L591.045 321.677ZM398.893 299.455L401.429 302.655L404.628 300.119L402.092 296.919L398.893 299.455ZM588.235 320.849L401.818 299.29L401.703 300.284L588.12 321.842L588.235 320.849Z" fill="#2B3542"/>
<path d="M507.678 350.106L506.309 346.26L502.463 347.629L503.832 351.475L507.678 350.106ZM399.153 298.548L400.522 302.394L404.368 301.026L402.999 297.18L399.153 298.548ZM505.285 348.416L401.975 299.335L401.546 300.239L504.856 349.319L505.285 348.416Z" fill="#2B3542"/>
<path d="M414.488 358.534L415.107 354.498L411.072 353.879L410.453 357.915L414.488 358.534ZM385.819 319.477L385.2 323.513L389.235 324.131L389.854 320.096L385.819 319.477ZM413.183 355.911L387.93 321.508L387.124 322.1L412.377 356.502L413.183 355.911Z" fill="#2B3542"/>
<path d="M326 410.467L328.887 407.581L326 404.694L323.113 407.581L326 410.467ZM326 353.779L323.113 356.665L326 359.552L328.887 356.665L326 353.779ZM326.5 407.581V356.665H325.5V407.581H326.5Z" fill="#2B3542"/>
<path d="M220.058 384.675L224.094 384.066L223.486 380.03L219.449 380.638L220.058 384.675ZM257.004 334.619L252.968 335.227L253.576 339.264L257.613 338.656L257.004 334.619ZM222.174 382.649L255.692 337.238L254.888 336.644L221.37 382.055L222.174 382.649Z" fill="#2B3542"/>
<path d="M122.346 366.286L126.254 367.466L127.434 363.557L123.526 362.378L122.346 366.286ZM233.499 306.679L229.591 305.499L228.411 309.408L232.319 310.587L233.499 306.679ZM125.126 365.362L231.191 308.484L230.719 307.603L124.654 364.481L125.126 365.362Z" fill="#2B3542"/>
<path d="M198.223 257.587L201.11 260.474L203.997 257.587L201.11 254.7L198.223 257.587ZM219.149 257.587L216.262 254.7L213.375 257.587L216.262 260.474L219.149 257.587ZM201.11 258.087H216.262V257.087H201.11V258.087Z" fill="#2B3542"/>
<path d="M65.1557 177.069L67.2498 180.573L70.7542 178.479L68.6602 174.975L65.1557 177.069ZM229.163 218.386L227.069 214.881L223.564 216.975L225.658 220.48L229.163 218.386ZM67.8328 178.259L226.241 218.165L226.486 217.196L68.0771 177.289L67.8328 178.259Z" fill="#2B3542"/>
<path d="M178.362 153.018L179.545 156.926L183.452 155.742L182.269 151.835L178.362 153.018ZM247.734 190.145L246.551 186.237L242.643 187.42L243.827 191.328L247.734 190.145ZM180.671 154.821L244.953 189.223L245.425 188.342L181.143 153.94L180.671 154.821Z" fill="#2B3542"/>
<path d="M95.6694 274.917L99.5345 276.231L100.849 272.366L96.9838 271.052L95.6694 274.917ZM133.449 256.312L129.584 254.997L128.269 258.862L132.135 260.177L133.449 256.312ZM98.4801 274.09L131.08 258.035L130.638 257.138L98.0383 273.193L98.4801 274.09Z" fill="#2B3542"/>
<path d="M223.149 130.07L233.251 140.161L223.149 150.252L213.048 140.161L223.149 130.07Z" fill="#2B3542"/>
<path d="M334.724 112.639L343.448 121.354L334.724 130.07L326 121.354L334.724 112.639Z" fill="#2B3542"/>
<path d="M447.676 95.2087L456.4 103.924L447.676 112.639L438.952 103.924L447.676 95.2087Z" fill="#2B3542"/>
<path d="M476.144 192.452L482.113 198.415L476.144 204.378L470.175 198.415L476.144 192.452Z" fill="#2B3542"/>
<path d="M545.476 262.174L554.659 271.348L545.476 280.522L536.293 271.348L545.476 262.174Z" fill="#2B3542"/>
<path d="M436.197 330.978L440.789 335.565L436.197 340.152L431.606 335.565L436.197 330.978Z" fill="#2B3542"/>
<path d="M389.363 347.491L393.955 352.078L389.363 356.665L384.772 352.078L389.363 347.491Z" fill="#2B3542"/>
<path d="M352.631 382.352L360.896 390.609L352.631 398.865L344.366 390.609L352.631 382.352Z" fill="#2B3542"/>
<path d="M287.431 380.517L293.859 386.939L287.431 393.361L281.003 386.939L287.431 380.517Z" fill="#2B3542"/>
<path d="M210.752 340.152L215.803 345.198L210.752 350.243L205.701 345.198L210.752 340.152Z" fill="#2B3542"/>
<path d="M140.501 299.787L150.603 309.878L140.501 319.97L130.4 309.878L140.501 299.787Z" fill="#2B3542"/>
<path d="M100.096 210.8L106.524 217.222L100.096 223.644L93.6676 217.222L100.096 210.8Z" fill="#2B3542"/>
<path d="M96.4226 145.665L102.851 152.087L96.4226 158.509L89.9944 152.087L96.4226 145.665Z" fill="#2B3542"/>
<g clip-path="url(#clip0_3539_9400)">
<path d="M166.673 290.613C185.185 290.613 200.192 275.621 200.192 257.128C200.192 238.635 185.185 223.643 166.673 223.643C148.162 223.643 133.155 238.635 133.155 257.128C133.155 275.621 148.162 290.613 166.673 290.613Z" fill="#FF914D"/>
<path fill-rule="evenodd" clip-rule="evenodd" d="M166.674 280.689C153.648 280.689 143.089 270.142 143.089 257.128C143.089 244.115 153.648 233.568 166.674 233.568C179.7 233.568 190.258 244.115 190.258 257.128C190.258 270.142 179.7 280.689 166.674 280.689ZM166.674 279.304C178.933 279.304 188.871 269.376 188.871 257.128C188.871 244.881 178.933 234.953 166.674 234.953C154.414 234.953 144.476 244.881 144.476 257.128C144.476 269.376 154.414 279.304 166.674 279.304Z" fill="white"/>
<path d="M162.673 274.147C163.193 273.934 165.225 272.369 167.188 270.684C169.621 268.617 171.961 266.443 174.202 264.169C176.351 262.022 177.149 261.099 177.281 260.622C177.746 258.945 172.662 240.518 171.627 240.123C170.996 239.88 165.357 244.566 160.363 249.471C157.434 252.347 156.623 253.303 156.56 253.929C156.519 254.412 156.686 255.624 156.998 257.06C158.241 262.756 160.501 270.627 161.645 273.212C162.124 274.309 162.179 274.357 162.671 274.147H162.673Z" fill="white"/>
</g>
<g clip-path="url(#clip1_3539_9400)">
<path d="M60.6084 308.043C80.388 308.043 96.4225 292.23 96.4225 272.724C96.4225 253.217 80.388 237.404 60.6084 237.404C40.8288 237.404 24.7943 253.217 24.7943 272.724C24.7943 292.23 40.8288 308.043 60.6084 308.043Z" fill="#2EBAC6"/>
<path d="M76.1293 285.028L64.154 255.157C63.4735 253.612 62.4752 252.857 61.1523 252.857H60.0935C58.7684 252.857 57.7679 253.614 57.0919 255.157L51.8832 268.172H47.9414C46.7595 268.176 45.8015 269.161 45.7925 270.379V270.41C45.8015 271.631 46.7595 272.616 47.9414 272.62H50.0589L45.0874 285.028C44.993 285.301 44.9432 285.587 44.9397 285.876C44.9397 286.571 45.1456 287.117 45.5284 287.54C45.9089 287.964 46.4394 288.176 47.1176 288.176C47.5649 288.169 47.998 288.02 48.3532 287.752C48.7338 287.481 49.0001 287.086 49.2038 286.633L54.6789 272.62H58.4752C59.6548 272.616 60.6128 271.629 60.624 270.41V270.351C60.6128 269.13 59.6548 268.143 58.4752 268.141H56.445L60.6218 257.397L72.0084 286.631C72.2144 287.083 72.4785 287.479 72.8613 287.75C73.2216 288.019 73.6536 288.17 74.0991 288.174C74.7751 288.174 75.3056 287.962 75.6883 287.538C76.0688 287.114 76.2748 286.569 76.2748 285.874C76.2866 285.584 76.237 285.296 76.1293 285.026V285.028Z" fill="white"/>
</g>
<g clip-path="url(#clip2_3539_9400)">
<path d="M410.485 184.196C424.685 184.196 436.197 172.695 436.197 158.509C436.197 144.322 424.685 132.822 410.485 132.822C396.284 132.822 384.772 144.322 384.772 158.509C384.772 172.695 396.284 184.196 410.485 184.196Z" fill="#DE3F6B"/>
<path d="M400.444 150.482H401.896C404.167 150.697 406.268 151.8 407.822 153.387C411.05 156.661 412.824 161.28 416.934 163.715C419.903 165.476 424.058 164.036 425.517 161.06C426.259 161.047 427.006 161.047 427.749 161.05C426.727 164.073 423.749 166.245 420.493 166.536H419.294C417.29 166.375 415.341 165.63 413.826 164.343C411.624 162.54 410.21 160.066 408.498 157.863C407.026 155.916 405.525 153.726 403.089 152.842C400.079 151.751 396.404 153.456 395.306 156.353C394.342 158.738 395.126 161.696 397.283 163.224C398.899 164.431 401.151 164.882 403.092 164.179C405.249 163.428 406.849 161.72 408.077 159.909C408.561 160.578 409.032 161.257 409.498 161.941C407.589 164.264 404.94 166.26 401.79 166.536H400.5C396.531 166.269 393.08 163.01 392.807 159.161V157.9C393.064 154.058 396.471 150.761 400.444 150.482V150.482ZM419.214 150.482H420.419C424.426 150.734 427.832 154.058 428.162 157.908V159.883C424.856 159.912 421.547 159.893 418.242 159.896C418.245 159.318 418.245 158.745 418.242 158.167C420.855 158.16 423.465 158.178 426.073 158.16C425.888 157.139 425.649 156.094 425.022 155.229C423.495 152.975 420.267 152.053 417.686 153.029C415.629 153.768 414.079 155.383 412.885 157.107C412.426 156.47 411.969 155.823 411.527 155.171C413.413 152.814 416.043 150.775 419.214 150.482Z" fill="white"/>
</g>
<g clip-path="url(#clip3_3539_9400)">
<path d="M199.732 449.322C219.766 449.322 236.006 433.098 236.006 413.085C236.006 393.072 219.766 376.848 199.732 376.848C179.699 376.848 163.459 393.072 163.459 413.085C163.459 433.098 179.699 449.322 199.732 449.322Z" fill="#346FCE"/>
<path fill-rule="evenodd" clip-rule="evenodd" d="M209.164 419.214L211.331 423.283C212.564 425.6 212.825 428.311 212.058 430.821C211.29 433.33 209.556 435.432 207.237 436.664L206.956 436.813C205.807 437.424 204.55 437.802 203.255 437.926C201.96 438.051 200.654 437.92 199.41 437.54C198.166 437.16 197.009 436.539 196.005 435.713C195.001 434.886 194.17 433.87 193.56 432.723L186.253 418.994C185.065 416.762 184.777 414.161 185.448 411.724C186.119 409.286 187.699 407.198 189.862 405.887L187.695 401.818C186.462 399.5 186.201 396.789 186.969 394.28C187.738 391.771 189.472 389.669 191.791 388.437L192.072 388.288C194.392 387.056 197.105 386.795 199.617 387.562C202.129 388.329 204.233 390.061 205.466 392.378L212.773 406.107C213.961 408.339 214.25 410.94 213.579 413.377C212.908 415.814 211.329 417.902 209.166 419.214H209.164ZM209.164 419.214L204.024 409.554C202.791 407.238 200.687 405.505 198.175 404.738C195.664 403.971 192.95 404.232 190.631 405.464L190.349 405.611C190.184 405.702 190.021 405.792 189.862 405.887L195.004 415.547C196.237 417.863 198.341 419.596 200.853 420.363C203.365 421.13 206.079 420.869 208.398 419.637L208.679 419.49C208.844 419.399 209.008 419.309 209.166 419.214H209.164Z" fill="white"/>
</g>
<g clip-path="url(#clip4_3539_9400)">
<path d="M34.4366 201.626C53.4554 201.626 68.8732 186.224 68.8732 167.224C68.8732 148.224 53.4554 132.822 34.4366 132.822C15.4178 132.822 0 148.224 0 167.224C0 186.224 15.4178 201.626 34.4366 201.626Z" fill="#00D395"/>
<path fill-rule="evenodd" clip-rule="evenodd" d="M18.4451 179.236C17.9101 178.92 17.4663 178.471 17.1569 177.933C16.8476 177.394 16.6833 176.785 16.6802 176.164V169.169C16.6802 168.337 17.3732 167.664 18.2212 167.669C18.4924 167.669 18.7593 167.739 18.996 167.873L35.1447 177.078C36.0895 177.615 36.6728 178.604 36.6728 179.673V186.919C36.6714 187.158 36.6226 187.395 36.5292 187.616C36.4358 187.836 36.2997 188.036 36.1287 188.204C35.9577 188.372 35.7551 188.504 35.5327 188.594C35.3102 188.683 35.0723 188.728 34.8326 188.725C34.4918 188.725 34.1573 188.634 33.864 188.46L18.4451 179.236V179.236ZM42.5162 165.957C43.4633 166.495 44.0401 167.486 44.0444 168.552V183.259C44.0444 183.693 43.8076 184.096 43.4181 184.306L39.884 186.25C39.8385 186.275 39.7901 186.295 39.7398 186.308V178.142C39.7398 177.084 39.1737 176.103 38.2418 175.562L24.0625 167.266V158.049C24.0625 157.217 24.7556 156.544 25.6057 156.548C25.8766 156.548 26.1428 156.619 26.3784 156.752L42.5206 165.957H42.5162ZM49.5865 155.095C50.5335 155.632 51.1168 156.621 51.1168 157.694V179.174C51.1141 179.392 51.0525 179.606 50.9385 179.792C50.8245 179.978 50.6622 180.13 50.469 180.232L47.1178 182.001V167.045C47.1178 165.989 46.5496 165.011 45.6263 164.467L31.1285 155.967V147.227C31.1285 146.961 31.2038 146.7 31.3351 146.47C31.5462 146.125 31.8837 145.874 32.2762 145.773C32.6687 145.671 33.0853 145.726 33.4379 145.926L49.5865 155.097V155.095Z" fill="white"/>
</g>
<g clip-path="url(#clip5_3539_9400)">
<path d="M151.062 165.848C173.631 165.848 191.927 147.57 191.927 125.024C191.927 102.477 173.631 84.2 151.062 84.2C128.493 84.2 110.197 102.477 110.197 125.024C110.197 147.57 128.493 165.848 151.062 165.848Z" fill="#302C2C"/>
<path fill-rule="evenodd" clip-rule="evenodd" d="M149.775 153.09C149.085 153.019 148.396 152.955 147.706 152.873C143.999 152.432 140.418 151.248 137.178 149.393C137.13 149.368 137.087 149.329 136.992 149.266C142.626 145.056 148.235 140.871 153.874 136.661L155.573 138.312C156.518 139.236 157.468 140.149 158.395 141.085C158.625 141.315 158.791 141.313 159.059 141.175C161.868 139.774 164.267 137.674 166.026 135.077L166.3 134.674C166.379 134.765 166.453 134.839 166.514 134.921C168.473 137.529 170.43 140.136 172.396 142.736C172.567 142.961 172.547 143.094 172.366 143.298C167.812 148.467 162.152 151.651 155.33 152.741C154.472 152.879 153.601 152.93 152.735 153.024C152.62 153.037 152.505 153.067 152.393 153.09H149.775V153.09ZM152.252 96.9574C152.728 97.0059 153.205 97.0569 153.683 97.1003C157.708 97.483 161.473 98.6746 164.979 100.672C165.03 100.703 165.074 100.739 165.158 100.8L148 113.096C147.773 112.881 147.553 112.677 147.336 112.465C146.13 111.292 144.92 110.121 143.722 108.937C143.53 108.748 143.385 108.727 143.145 108.847C140.286 110.257 137.847 112.389 136.07 115.032L135.815 115.415L129.511 107.026C130.147 106.352 130.735 105.681 131.371 105.061C135.516 101.022 140.437 98.4526 146.141 97.4192C147.239 97.2202 148.36 97.1539 149.471 97.0237C149.596 97.011 149.721 96.9804 149.844 96.9574H152.25H152.252ZM126.692 111.077L139.449 127.785L136.875 130.423C136.234 131.079 135.598 131.742 134.944 132.387C134.76 132.571 134.752 132.711 134.865 132.936C136.273 135.792 138.407 138.229 141.053 140.004C141.142 140.06 141.232 140.118 141.316 140.182C141.331 140.192 141.339 140.218 141.385 140.305L133.056 146.546C128.076 142.262 124.845 136.983 123.548 130.581C122.158 123.728 123.284 117.252 126.694 111.077H126.692ZM162.895 122.227L165.24 119.796C165.894 119.117 166.537 118.431 167.206 117.77C167.416 117.563 167.413 117.408 167.291 117.163C165.873 114.272 163.714 111.809 161.033 110.024C160.939 109.96 160.847 109.891 160.686 109.776L169.061 103.499C173.804 107.556 176.953 112.557 178.398 118.592C180.204 126.124 178.595 133.574 175.469 138.82L162.895 122.227Z" fill="white"/>
</g>
<g clip-path="url(#clip6_3539_9400)">
<path d="M528.946 393.361C543.654 393.361 555.577 381.45 555.577 366.757C555.577 352.063 543.654 340.152 528.946 340.152C514.239 340.152 502.315 352.063 502.315 366.757C502.315 381.45 514.239 393.361 528.946 393.361Z" fill="#7D59B5"/>
<path fill-rule="evenodd" clip-rule="evenodd" d="M537.801 376.733H529.819L523.497 365.085L518.622 376.733H510.638L518.99 356.78H526.974L533.54 368.878L539.271 356.78H547.255L537.801 376.733Z" fill="white"/>
</g>
<g clip-path="url(#clip7_3539_9400)">
<path d="M376.966 100.713C392.942 100.713 405.893 87.5697 405.893 71.3565C405.893 55.1434 392.942 42 376.966 42C360.99 42 348.039 55.1434 348.039 71.3565C348.039 87.5697 360.99 100.713 376.966 100.713Z" fill="#1591CA"/>
<path d="M378.001 70.0208C378.001 70.0208 380.4 64.6082 375.696 59.3791C375.696 59.3791 373.02 55.893 367.488 56.1682L368.593 55.7279C368.777 55.6545 368.97 55.6031 369.166 55.5774L370.254 55.4343L377.909 54.2417C377.909 54.2417 380.615 53.7023 382.667 54.2967C383.251 54.4674 383.783 54.7885 384.204 55.2251C385.336 56.3884 387.608 59.4653 386.12 64.333C386.12 64.333 384.643 69.7456 379.109 71.0299C379.109 71.0299 377.724 71.3969 378.001 70.0208V70.0208ZM377.659 73.0372C377.659 73.0372 381.118 77.8498 388.04 76.4939C388.04 76.4939 392.419 75.982 395.003 71.1052L394.818 72.2776C394.788 72.4721 394.733 72.6629 394.656 72.8445L394.225 73.8482L391.354 81.0038C391.354 81.0038 390.441 83.5927 388.881 85.0459C388.433 85.4599 387.888 85.7499 387.297 85.888C385.715 86.2605 381.895 86.6366 378.442 82.8826C378.442 82.8826 374.514 78.8608 376.224 73.4702C376.224 73.4665 376.611 72.0996 377.659 73.0372V73.0372ZM375.155 71.2997C375.155 71.2997 369.243 71.9308 367.029 78.5929C367.029 78.5929 365.322 82.6368 368.32 87.2714L367.385 86.5375C367.23 86.4157 367.09 86.2745 366.969 86.1174L366.3 85.2513L361.448 79.2461C361.448 79.2461 359.627 77.1783 359.126 75.1178C358.982 74.527 358.996 73.9069 359.166 73.3234C359.616 71.7694 361.166 68.2778 366.15 67.1365C366.15 67.1365 371.605 65.7109 375.483 69.8447C375.486 69.8447 376.495 70.8538 375.157 71.2997H375.155Z" fill="white"/>
<path opacity="0.5" d="M378.966 71.6485C378.966 71.6485 384.86 70.8706 386.903 64.1534C386.903 64.1534 388.506 60.0674 385.389 55.5098L386.344 56.2198C386.501 56.3391 386.646 56.4767 386.771 56.629L387.459 57.4767L392.467 63.359C392.467 63.359 394.337 65.3772 394.894 67.4285C395.051 68.0156 395.051 68.6321 394.894 69.2193C394.483 70.7843 393.024 74.3163 388.069 75.5823C388.069 75.5823 382.652 77.1419 378.671 73.1127C378.675 73.1127 377.641 72.1292 378.966 71.6485ZM376.004 72.7567C376.004 72.7567 373.471 78.1069 378.042 83.4517C378.042 83.4517 380.625 87.002 386.169 86.8644L385.051 87.2772C384.865 87.3454 384.671 87.3904 384.475 87.4111L383.384 87.5286L375.701 88.5304C375.701 88.5304 372.983 89.0019 370.946 88.356C370.368 88.1709 369.847 87.8379 369.433 87.3891C368.33 86.1965 366.137 83.0664 367.748 78.2391C367.748 78.2391 369.357 72.8631 374.923 71.7182C374.923 71.7237 376.321 71.388 376.004 72.7567V72.7567ZM376.201 69.9367C376.201 69.9367 372.672 65.1736 365.772 66.6341C365.772 66.6341 361.4 67.2065 358.887 72.1201L359.053 70.944C359.082 70.7486 359.134 70.5575 359.209 70.3752L359.625 69.366L362.391 62.1664C362.391 62.1664 363.268 59.5646 364.806 58.0895C365.25 57.6698 365.793 57.3734 366.383 57.229C367.959 56.8308 371.774 56.4033 375.278 60.1077C375.278 60.1077 379.264 64.0727 377.632 69.4871C377.632 69.4835 377.263 70.8596 376.201 69.9367V69.9367Z" fill="white"/>
</g>
<g clip-path="url(#clip8_3539_9400)">
<path d="M555.578 232.817C567.75 232.817 577.617 222.96 577.617 210.8C577.617 198.64 567.75 188.783 555.578 188.783C543.405 188.783 533.538 198.64 533.538 210.8C533.538 222.96 543.405 232.817 555.578 232.817Z" fill="#F7931A"/>
<path d="M569.321 215.966L568.57 218.97L566.566 218.472L567.315 215.466L564.308 214.718L564.808 212.715L567.815 213.464L568.566 210.46L570.57 210.96L569.821 213.964L572.828 214.712L572.328 216.716L569.321 215.966ZM561.928 207.718C561.648 209.575 560.634 210.478 559.294 210.8C561.128 211.767 562.056 213.259 561.151 215.86C560.027 219.09 557.396 219.376 553.903 218.722L553.035 222.193L550.988 221.683L551.843 218.257C551.298 218.122 550.755 217.981 550.213 217.835L549.353 221.275L547.309 220.766L548.177 217.287C547.697 217.164 547.212 217.035 546.717 216.911L544.051 216.247L545.081 213.849C545.081 213.849 546.59 214.25 546.569 214.221C547.15 214.363 547.409 213.976 547.513 213.719L548.882 208.231L549.1 208.284C549.03 208.257 548.959 208.234 548.886 208.216L549.864 204.298C549.892 203.853 549.744 203.295 548.914 203.087C548.947 203.066 547.427 202.718 547.427 202.718L547.985 200.483L550.809 201.188L550.806 201.198C551.231 201.304 551.669 201.404 552.115 201.504L552.973 198.067L555.02 198.576L554.178 201.948C554.728 202.071 555.28 202.198 555.817 202.333L556.654 198.985L558.702 199.494L557.844 202.933C560.428 203.827 562.314 205.18 561.928 207.718V207.718ZM557.207 214.44C557.884 211.729 553.43 211.055 552.042 210.708L550.894 215.314C552.283 215.658 556.563 217.038 557.21 214.438L557.207 214.44ZM557.878 207.702C558.493 205.235 554.768 204.707 553.612 204.419L552.569 208.598C553.725 208.887 557.287 210.066 557.878 207.702Z" fill="white"/>
</g>
<g clip-path="url(#clip9_3539_9400)">
<path d="M621.237 344.739C638.227 344.739 652 330.98 652 314.007C652 297.033 638.227 283.274 621.237 283.274C604.246 283.274 590.473 297.033 590.473 314.007C590.473 330.98 604.246 344.739 621.237 344.739Z" fill="#FF007A"/>
<path d="M614.048 294.351C613.5 294.266 613.477 294.255 613.734 294.216C614.228 294.14 615.397 294.245 616.203 294.435C618.082 294.883 619.791 296.026 621.617 298.056L622.102 298.594L622.794 298.484C625.717 298.014 628.691 298.388 631.177 299.535C631.862 299.85 632.94 300.478 633.075 300.641C633.119 300.691 633.198 301.024 633.25 301.377C633.434 302.601 633.342 303.538 632.969 304.239C632.765 304.619 632.754 304.739 632.89 305.065C632.955 305.2 633.056 305.314 633.183 305.394C633.309 305.474 633.456 305.517 633.606 305.518C634.225 305.518 634.89 304.52 635.198 303.131L635.321 302.58L635.563 302.854C636.893 304.36 637.937 306.413 638.116 307.873L638.164 308.255L637.939 307.91C637.555 307.314 637.17 306.907 636.674 306.579C635.782 305.989 634.838 305.789 632.338 305.657C630.081 305.538 628.803 305.345 627.537 304.933C625.382 304.231 624.296 303.296 621.735 299.94C620.598 298.45 619.895 297.626 619.197 296.963C617.607 295.453 616.045 294.662 614.048 294.351V294.351Z" fill="white"/>
<path d="M633.583 297.68C633.641 296.681 633.775 296.022 634.048 295.421C634.156 295.182 634.258 294.987 634.273 294.987C634.256 295.121 634.221 295.253 634.168 295.378C633.97 295.962 633.937 296.761 634.073 297.689C634.247 298.868 634.347 299.038 635.592 300.311C636.179 300.908 636.859 301.661 637.106 301.986L637.554 302.574L637.106 302.153C636.558 301.64 635.296 300.636 635.018 300.493C634.831 300.397 634.802 300.399 634.687 300.513C634.581 300.62 634.558 300.778 634.545 301.529C634.521 302.697 634.362 303.45 633.975 304.199C633.768 304.602 633.735 304.518 633.924 304.058C634.064 303.717 634.077 303.567 634.077 302.435C634.077 300.161 633.806 299.616 632.22 298.678C631.743 298.402 631.252 298.148 630.751 297.918C630.503 297.818 630.263 297.702 630.032 297.568C630.076 297.524 631.622 297.973 632.243 298.213C633.17 298.569 633.322 298.615 633.435 298.571C633.51 298.542 633.547 298.323 633.583 297.68V297.68ZM615.112 301.569C613.998 300.038 613.31 297.689 613.458 295.934L613.504 295.39L613.758 295.436C614.235 295.522 615.056 295.828 615.44 296.062C616.494 296.702 616.952 297.545 617.415 299.708C617.552 300.342 617.73 301.058 617.813 301.302C617.944 301.692 618.444 302.604 618.851 303.198C619.144 303.624 618.948 303.826 618.301 303.768C617.313 303.678 615.975 302.756 615.112 301.569ZM632.233 312.969C627.029 310.875 625.196 309.058 625.196 305.993C625.196 305.541 625.212 305.173 625.229 305.173C625.248 305.173 625.45 305.32 625.677 305.503C626.733 306.348 627.915 306.709 631.186 307.185C633.11 307.468 634.195 307.695 635.194 308.025C638.371 309.077 640.336 311.213 640.805 314.121C640.939 314.967 640.861 316.551 640.64 317.387C640.466 318.048 639.934 319.237 639.794 319.283C639.755 319.294 639.717 319.146 639.705 318.941C639.651 317.85 639.099 316.786 638.171 315.988C637.115 315.084 635.698 314.362 632.232 312.969H632.233ZM628.58 313.837C628.519 313.466 628.435 313.099 628.328 312.738L628.194 312.343L628.442 312.619C628.782 313.004 629.053 313.491 629.28 314.145C629.455 314.642 629.474 314.79 629.472 315.599C629.472 316.394 629.451 316.559 629.29 317.008C629.065 317.667 628.689 318.265 628.192 318.752C627.24 319.721 626.019 320.255 624.254 320.477C623.947 320.516 623.054 320.581 622.268 320.621C620.288 320.725 618.986 320.936 617.815 321.347C617.709 321.395 617.596 321.422 617.48 321.428C617.434 321.38 618.23 320.906 618.89 320.589C619.819 320.141 620.741 319.897 622.812 319.553C623.835 319.383 624.893 319.177 625.16 319.094C627.694 318.318 628.996 316.317 628.578 313.837H628.58Z" fill="white"/>
<path d="M630.965 318.071C630.273 316.586 630.115 315.151 630.494 313.814C630.535 313.672 630.6 313.555 630.638 313.555C630.769 313.602 630.891 313.668 631.002 313.751C631.321 313.966 631.959 314.327 633.661 315.253C635.785 316.411 636.997 317.308 637.822 318.33C638.543 319.227 638.989 320.249 639.204 321.494C639.325 322.198 639.254 323.895 639.073 324.605C638.502 326.845 637.174 328.604 635.282 329.63C635.103 329.733 634.918 329.825 634.728 329.905C634.701 329.905 634.801 329.649 634.953 329.334C635.587 328.005 635.662 326.71 635.18 325.27C634.886 324.388 634.284 323.311 633.071 321.494C631.659 319.381 631.313 318.816 630.965 318.071V318.071ZM611.417 326.082C613.349 324.453 615.751 323.297 617.941 322.942C618.883 322.788 620.456 322.85 621.329 323.072C622.728 323.43 623.982 324.233 624.634 325.187C625.268 326.121 625.543 326.935 625.826 328.745C625.941 329.459 626.062 330.176 626.099 330.339C626.31 331.276 626.728 332.027 627.243 332.404C628.06 333.001 629.469 333.037 630.854 332.5C630.998 332.433 631.151 332.386 631.307 332.358C631.357 332.407 630.661 332.874 630.169 333.12C629.588 333.431 628.938 333.588 628.279 333.577C627.01 333.577 625.957 332.934 625.078 331.618C624.905 331.359 624.516 330.585 624.213 329.895C623.286 327.782 622.828 327.137 621.752 326.432C620.811 325.817 619.602 325.708 618.693 326.153C617.497 326.739 617.164 328.266 618.02 329.232C618.36 329.617 618.994 329.949 619.514 330.012C619.74 330.042 619.97 330.023 620.189 329.957C620.407 329.89 620.609 329.777 620.78 329.626C620.951 329.475 621.088 329.289 621.181 329.081C621.274 328.872 621.321 328.646 621.319 328.418C621.319 327.78 621.073 327.419 620.458 327.141C619.617 326.762 618.714 327.204 618.718 327.993C618.72 328.33 618.866 328.541 619.204 328.695C619.421 328.791 619.425 328.8 619.248 328.764C618.477 328.602 618.297 327.675 618.918 327.058C619.662 326.317 621.202 326.643 621.73 327.654C621.954 328.078 621.979 328.925 621.784 329.436C621.352 330.579 620.087 331.178 618.804 330.852C617.931 330.629 617.575 330.389 616.524 329.305C614.695 327.423 613.986 327.058 611.348 326.647L610.842 326.568L611.419 326.082H611.417Z" fill="white"/>
<path fill-rule="evenodd" clip-rule="evenodd" d="M602.386 289.708L602.57 289.933C609.7 298.653 613.384 303.179 613.618 303.501C614.003 304.035 613.859 304.514 613.197 304.89C612.83 305.099 612.072 305.311 611.696 305.311C611.267 305.311 610.784 305.105 610.432 304.773C610.184 304.537 609.183 303.042 606.87 299.456C605.786 297.761 604.689 296.075 603.578 294.399C603.484 294.31 603.486 294.312 606.689 300.038C608.7 303.634 609.381 304.904 609.381 305.075C609.381 305.42 609.284 305.601 608.858 306.077C608.146 306.87 607.829 307.762 607.598 309.606C607.341 311.674 606.618 313.134 604.61 315.633C603.437 317.097 603.245 317.366 602.947 317.955C602.574 318.697 602.472 319.114 602.43 320.051C602.386 321.042 602.472 321.684 602.776 322.631C603.041 323.46 603.318 324.01 604.026 325.104C604.637 326.051 604.989 326.754 604.989 327.029C604.989 327.248 605.031 327.248 605.979 327.035C608.246 326.524 610.086 325.623 611.123 324.521C611.763 323.839 611.913 323.462 611.919 322.527C611.92 321.916 611.899 321.787 611.734 321.436C611.465 320.863 610.974 320.387 609.894 319.649C608.477 318.681 607.873 317.902 607.706 316.832C607.567 315.954 607.727 315.333 608.511 313.693C609.321 311.995 609.523 311.273 609.659 309.561C609.746 308.455 609.867 308.019 610.186 307.669C610.517 307.305 610.817 307.18 611.638 307.068C612.976 306.886 613.828 306.54 614.528 305.897C615.135 305.336 615.389 304.796 615.427 303.985L615.458 303.371L615.118 302.975C614.63 302.407 610.59 297.954 602.997 289.614L602.793 289.393L602.386 289.71V289.708ZM605.681 321.175C605.815 320.937 605.855 320.658 605.794 320.393C605.732 320.128 605.572 319.895 605.347 319.742C604.908 319.45 604.226 319.588 604.226 319.968C604.226 320.084 604.289 320.168 604.433 320.243C604.678 320.368 604.695 320.51 604.505 320.796C604.31 321.088 604.326 321.346 604.549 321.52C604.906 321.801 605.414 321.645 605.683 321.175H605.681ZM616.302 307.391C615.674 307.583 615.064 308.25 614.874 308.947C614.758 309.371 614.824 310.118 614.997 310.349C615.276 310.722 615.547 310.82 616.277 310.814C617.708 310.804 618.95 310.191 619.096 309.425C619.215 308.797 618.667 307.927 617.915 307.543C617.527 307.347 616.702 307.268 616.302 307.391V307.391ZM617.975 308.697C618.196 308.384 618.098 308.044 617.725 307.817C617.01 307.381 615.929 307.741 615.929 308.417C615.929 308.751 616.493 309.118 617.008 309.118C617.354 309.118 617.823 308.912 617.975 308.697Z" fill="white"/>
</g>
<g clip-path="url(#clip10_3539_9400)">
<path d="M328.296 464C342.75 464 354.468 452.089 354.468 437.396C354.468 422.702 342.75 410.791 328.296 410.791C313.841 410.791 302.124 422.702 302.124 437.396C302.124 452.089 313.841 464 328.296 464Z" fill="#D65892"/>
<path fill-rule="evenodd" clip-rule="evenodd" d="M324.687 422.464C327.733 422.725 331.765 424.426 335.65 427.306C339.52 430.202 342.36 433.649 343.567 436.561C344.45 438.674 344.48 440.545 343.597 441.832L337.535 450.656C336.651 451.943 334.929 452.51 332.737 452.327C329.691 452.051 325.644 450.365 321.774 447.47C317.889 444.589 315.064 441.142 313.841 438.23C312.959 436.117 312.93 434.246 313.813 432.959L319.89 424.135C320.773 422.848 322.481 422.281 324.687 422.464V422.464ZM337.427 443.162C337.37 443.153 337.311 443.167 337.265 443.201C337.218 443.235 337.186 443.286 337.176 443.344C337.166 443.402 337.179 443.461 337.212 443.509C337.244 443.557 337.295 443.59 337.351 443.601C338.549 443.817 339.62 443.855 340.515 443.707C340.569 443.695 340.617 443.662 340.648 443.615C340.679 443.568 340.692 443.51 340.683 443.454C340.674 443.398 340.644 443.348 340.6 443.314C340.556 443.279 340.5 443.263 340.445 443.269C339.604 443.408 338.58 443.37 337.427 443.162V443.162ZM335.478 442.918C335.47 442.946 335.468 442.975 335.471 443.004C335.474 443.034 335.483 443.062 335.497 443.087C335.511 443.113 335.53 443.136 335.553 443.154C335.575 443.172 335.601 443.186 335.629 443.194C335.917 443.277 336.201 443.352 336.481 443.418C336.535 443.426 336.59 443.412 336.635 443.381C336.68 443.349 336.712 443.302 336.724 443.247C336.736 443.193 336.728 443.137 336.701 443.088C336.675 443.04 336.631 443.003 336.579 442.986C336.308 442.919 336.03 442.846 335.747 442.765C335.691 442.749 335.632 442.756 335.581 442.785C335.531 442.813 335.494 442.861 335.478 442.918V442.918ZM320.729 424.764L320.7 424.823C320.037 425.851 320.184 427.306 320.876 428.96C322.038 431.749 324.761 435.013 328.455 437.771C332.148 440.528 335.989 442.168 338.887 442.414C340.624 442.552 341.992 442.231 342.715 441.265L342.757 441.188C343.464 440.176 343.317 438.674 342.627 436.99C341.464 434.216 338.74 430.954 335.032 428.194C331.338 425.437 327.498 423.797 324.599 423.553C322.833 423.398 321.436 423.736 320.729 424.764V424.764ZM319.512 428.834C319.457 428.851 319.41 428.889 319.382 428.941C319.355 428.993 319.348 429.054 319.365 429.11C320.111 431.711 322.005 434.186 324.984 436.975L325.319 437.288C325.549 437.5 325.782 437.711 326.016 437.919C326.107 437.999 326.245 437.989 326.323 437.896C326.361 437.852 326.381 437.793 326.377 437.735C326.373 437.676 326.346 437.621 326.302 437.582C326.122 437.424 325.949 437.266 325.775 437.108L325.437 436.795C322.422 433.997 320.513 431.531 319.782 428.985C319.774 428.957 319.761 428.931 319.743 428.908C319.725 428.886 319.703 428.867 319.678 428.853C319.653 428.839 319.625 428.83 319.597 428.827C319.568 428.823 319.539 428.826 319.512 428.834V428.834ZM328.101 428.363C329.544 428.501 331.471 429.313 333.311 430.691C335.164 432.071 336.533 433.711 337.106 435.104C337.446 435.886 337.535 436.576 337.196 437.05C336.872 437.525 336.21 437.665 335.4 437.587C333.944 437.464 332.03 436.637 330.177 435.259C328.322 433.879 326.955 432.254 326.38 430.861C326.057 430.079 325.968 429.389 326.292 428.915C326.616 428.44 327.277 428.302 328.101 428.363V428.363ZM319.273 427.07C319.215 427.072 319.161 427.098 319.122 427.141C319.082 427.185 319.062 427.242 319.064 427.301C319.077 427.604 319.108 427.908 319.16 428.215C319.165 428.244 319.176 428.271 319.191 428.296C319.206 428.32 319.226 428.342 319.25 428.358C319.273 428.375 319.299 428.387 319.327 428.393C319.355 428.399 319.384 428.4 319.412 428.395C319.44 428.39 319.467 428.379 319.491 428.364C319.515 428.348 319.536 428.328 319.553 428.304C319.569 428.28 319.581 428.254 319.587 428.225C319.593 428.197 319.594 428.168 319.589 428.139C319.541 427.856 319.511 427.57 319.499 427.283C319.498 427.254 319.491 427.225 319.479 427.199C319.467 427.172 319.45 427.148 319.429 427.129C319.408 427.109 319.384 427.094 319.357 427.083C319.33 427.073 319.302 427.069 319.273 427.07V427.07Z" fill="white"/>
</g>
<g clip-path="url(#clip11_3539_9400)">
<path d="M507.366 146.583C526.385 146.583 541.803 131.18 541.803 112.18C541.803 93.1807 526.385 77.7783 507.366 77.7783C488.347 77.7783 472.93 93.1807 472.93 112.18C472.93 131.18 488.347 146.583 507.366 146.583Z" fill="#20EE82"/>
<path fill-rule="evenodd" clip-rule="evenodd" d="M507.366 93.9043C512.218 93.9043 516.871 95.8298 520.302 99.2573C523.733 102.685 525.661 107.333 525.661 112.18V130.457H507.366C502.514 130.457 497.861 128.531 494.43 125.104C490.999 121.676 489.072 117.028 489.072 112.18C489.072 107.333 490.999 102.685 494.43 99.2573C497.861 95.8298 502.514 93.9043 507.366 93.9043V93.9043ZM518.343 123.146V112.346C518.343 106.283 513.489 101.245 507.422 101.215C505.972 101.209 504.535 101.49 503.193 102.042C501.852 102.594 500.634 103.406 499.608 104.43C498.583 105.455 497.77 106.672 497.218 108.012C496.665 109.352 496.384 110.787 496.39 112.236C496.42 118.298 501.465 123.146 507.532 123.146H518.343Z" fill="white"/>
</g>
<g filter="url(#filter0_d_3539_9400)">
<ellipse cx="313.603" cy="257.128" rx="96.8817" ry="96.7848" fill="#3F81BE"/>
</g>
<path d="M350.441 320.887H307.006C305.814 320.887 304.695 320.249 304.09 319.226C303.485 318.203 303.473 316.921 304.054 315.885L311.477 302.68H291.054C290.044 302.68 289.106 302.138 288.61 301.266C288.604 301.248 288.592 301.236 288.586 301.217C288.41 301.043 288.259 300.844 288.132 300.628L280.147 287.284L272.416 300.561C271.841 301.555 270.77 302.168 269.621 302.168C269.615 302.168 269.609 302.168 269.603 302.168C268.447 302.162 267.371 301.53 266.808 300.531L243.766 259.844C243.203 258.851 243.215 257.617 243.796 256.636L266.838 217.562C267.413 216.587 268.472 215.979 269.609 215.973C269.615 215.973 269.621 215.973 269.627 215.973C270.752 215.973 271.811 216.569 272.398 217.526L279.826 229.78L288.138 215.883C288.229 215.732 288.332 215.588 288.447 215.449L289.36 213.842L290.975 213.824H311.943L302.79 197.008L304.375 194.311L305.96 194.287H352.359L353.181 195.671L376.09 235.396C376.647 236.365 376.647 237.562 376.084 238.531C375.522 239.5 374.475 240.096 373.356 240.096H357.095L366.659 256.082C367.046 256.726 367.186 257.467 367.083 258.189C367.216 258.929 367.089 259.7 366.702 260.368L357.367 276.402H372.957C374.167 276.402 375.292 277.052 375.891 278.099C376.49 279.146 376.478 280.44 375.86 281.476L353.345 319.238C352.74 320.255 351.627 320.887 350.441 320.887ZM310.533 315.47H349.267L369.333 281.819H354.216L342.903 301.242C342.383 302.126 341.415 302.68 340.381 302.68H317.72L310.533 315.47ZM293.341 301.211L293.329 301.229C293.335 301.223 293.335 301.217 293.341 301.211ZM320.769 297.257H338.929L347.918 281.813H329.443L320.769 297.257ZM295.7 297.257H314.526L325.288 278.117C325.886 277.058 327.012 276.396 328.234 276.396H351.07L360.059 260.952H317.411L295.7 297.257ZM283.28 281.909L290.915 294.675L312.705 258.249L290.915 221.823L283.014 235.034L296.087 256.594C296.698 257.599 296.71 258.851 296.117 259.868L283.28 281.909ZM249.126 258.279L269.645 294.512L276.959 281.951L263.765 259.898C263.16 258.881 263.16 257.623 263.765 256.606L276.656 235.053L269.651 223.484L249.126 258.279ZM269.125 258.249L280.092 276.576L290.751 258.273L279.857 240.307L269.125 258.249ZM317.417 255.541H359.999L350.762 240.096H326.274L325.457 238.67L314.889 219.235H295.7L317.417 255.541ZM353.859 234.679H369.406L349.237 199.704H310.454L318.131 213.824H339.401C340.623 213.824 341.766 214.474 342.389 215.515L353.859 234.679ZM329.474 234.679H347.525L338.288 219.235H321.083L329.474 234.679ZM293.286 215.196L293.292 215.202C293.286 215.202 293.286 215.202 293.286 215.196Z" fill="white"/>
<g clip-path="url(#clip12_3539_9400)">
<path d="M274.115 122.73C293.134 122.73 308.552 107.328 308.552 88.3283C308.552 69.3285 293.134 53.9261 274.115 53.9261C255.097 53.9261 239.679 69.3285 239.679 88.3283C239.679 107.328 255.097 122.73 274.115 122.73Z" fill="#6F41D8"/>
<path d="M285.075 81.2178C284.281 80.7555 283.25 80.7555 282.376 81.2178L276.18 84.7741L271.972 87.092L265.775 90.6461C264.981 91.1106 263.95 91.1106 263.076 90.6461L258.152 87.8638C257.358 87.4016 256.803 86.5523 256.803 85.6234V80.1363C256.803 79.2096 257.278 78.3602 258.152 77.8958L262.995 75.1909C263.791 74.7265 264.824 74.7265 265.698 75.1909L270.541 77.8958C271.337 78.3602 271.892 79.2096 271.892 80.1363V83.6926L276.1 81.2952V77.741C276.105 77.2794 275.981 76.8255 275.743 76.43C275.504 76.0344 275.161 75.7127 274.75 75.5006L265.775 70.4004C264.981 69.936 263.95 69.936 263.076 70.4004L253.942 75.5006C253.532 75.7127 253.188 76.0344 252.95 76.43C252.712 76.8255 252.588 77.2794 252.593 77.741V88.0187C252.593 88.9475 253.068 89.7968 253.942 90.2613L263.076 95.3614C263.871 95.8237 264.904 95.8237 265.775 95.3614L271.972 91.8825L276.18 89.4872L282.376 86.0104C283.17 85.546 284.201 85.546 285.075 86.0104L289.92 88.7153C290.716 89.1776 291.269 90.0269 291.269 90.9557V96.4429C291.269 97.3696 290.796 98.2189 289.92 98.6833L285.077 101.466C284.281 101.93 283.248 101.93 282.376 101.466L277.531 98.7607C276.735 98.2963 276.18 97.447 276.18 96.5203V92.964L271.972 95.3614V98.9155C271.972 99.8423 272.448 100.694 273.321 101.156L282.456 106.256C283.25 106.721 284.281 106.721 285.155 106.256L294.289 101.156C295.083 100.694 295.638 99.8444 295.638 98.9155V88.6379C295.643 88.1763 295.519 87.7224 295.281 87.3269C295.043 86.9313 294.699 86.6096 294.289 86.3975L285.077 81.2178H285.075Z" fill="white"/>
</g>
<g clip-path="url(#clip13_3539_9400)">
<path d="M472.011 303.457C488.748 303.457 502.315 289.902 502.315 273.183C502.315 256.463 488.748 242.909 472.011 242.909C455.275 242.909 441.707 256.463 441.707 273.183C441.707 289.902 455.275 303.457 472.011 303.457Z" fill="#000D2B"/>
<path d="M471.86 254.034L463.303 259.043L471.86 264.053L480.578 259.043L471.86 254.034ZM473.267 280.777V290.796L484.891 284.172V274.151L473.267 280.777V280.777ZM481.985 262.193V272.214L473.265 277.224V267.203L481.985 262.193ZM460.996 272.214L469.716 277.224V267.203L460.996 262.193V272.214ZM460.996 285.788L469.716 290.796V280.777L460.996 275.769V285.786V285.788Z" fill="white"/>
</g>
<g clip-path="url(#clip14_3539_9400)">
<path d="M96.4225 408.956C112.652 408.956 125.808 395.813 125.808 379.6C125.808 363.387 112.652 350.243 96.4225 350.243C80.1931 350.243 67.0366 363.387 67.0366 379.6C67.0366 395.813 80.1931 408.956 96.4225 408.956Z" fill="#103F68"/>
<path d="M96.3858 359.45L113.87 369.511V389.693L96.406 399.783L96.2645 399.748L78.9746 389.693V369.511L96.2645 359.45H96.3858V359.45ZM96.3288 361.538L80.8112 370.566V388.638L96.327 397.663L98.2224 396.568L112.034 388.633V370.569L98.2224 362.588L96.3288 361.538V361.538ZM83.2154 381.005L87.8088 377.574L91.8695 380.165V384.825L94.9422 387.783L94.9403 389.17L91.9797 391.941H89.4801L83.2172 381.005H83.2154ZM97.7302 389.174L97.7247 387.779L100.786 384.825V380.165L104.803 377.541L109.387 381.007L103.156 391.91H100.687L97.7302 389.174ZM93.3774 380.165L91.8824 376.255H100.768L99.3023 380.165L99.7358 384.536L96.3068 384.543L92.9182 384.548L93.3774 380.165V380.165ZM96.3068 375.184L87.862 375.18L89.4323 368.171H103.141L104.794 375.189L96.3068 375.184Z" fill="white"/>
</g>
<g clip-path="url(#clip15_3539_9400)">
<path d="M433.442 439.23C456.772 439.23 475.684 420.337 475.684 397.03C475.684 373.724 456.772 354.83 433.442 354.83C410.112 354.83 391.2 373.724 391.2 397.03C391.2 420.337 410.112 439.23 433.442 439.23Z" fill="#FF4A4A"/>
<path d="M442.229 404.893H439.557C439.436 404.893 439.317 404.87 439.206 404.824C439.094 404.778 438.993 404.711 438.908 404.626C438.823 404.54 438.756 404.439 438.71 404.328C438.664 404.217 438.64 404.098 438.641 403.978V396.957L433.962 399.874C433.769 399.995 433.546 400.059 433.318 400.059C433.09 400.059 432.867 399.995 432.674 399.874L428.022 396.957V403.978C428.022 404.473 427.626 404.893 427.106 404.893H424.458C424.337 404.893 424.218 404.87 424.107 404.824C423.995 404.778 423.894 404.711 423.809 404.626C423.724 404.54 423.657 404.439 423.611 404.328C423.565 404.217 423.541 404.098 423.542 403.978V390.429C423.542 390.107 423.67 389.798 423.897 389.571C424.125 389.343 424.434 389.216 424.756 389.216C425.002 389.216 425.223 389.292 425.421 389.44L432.798 394.509C432.945 394.618 433.123 394.677 433.306 394.677C433.489 394.677 433.667 394.618 433.814 394.509L441.188 389.44C441.371 389.318 441.583 389.247 441.802 389.235C442.021 389.223 442.24 389.27 442.434 389.371C442.629 389.472 442.793 389.623 442.91 389.809C443.026 389.996 443.09 390.209 443.095 390.429V403.978C443.101 404.095 443.083 404.213 443.042 404.323C443.001 404.434 442.939 404.535 442.858 404.62C442.777 404.706 442.679 404.774 442.571 404.821C442.463 404.868 442.346 404.892 442.229 404.893V404.893ZM419.555 404.869H402.975C402.653 404.869 402.344 404.741 402.116 404.514C401.888 404.286 401.76 403.978 401.76 403.656V390.033C401.765 389.788 401.867 389.554 402.043 389.383C402.218 389.212 402.455 389.117 402.7 389.118H405.377C405.871 389.118 406.294 389.514 406.294 390.033V400.393H416.342V390.033C416.342 389.537 416.738 389.118 417.258 389.118H419.856C420.352 389.118 420.772 389.514 420.772 390.033V403.658C420.771 403.98 420.643 404.288 420.416 404.515C420.188 404.742 419.879 404.869 419.558 404.869H419.555ZM447.129 389.118H463.714C464.036 389.119 464.344 389.247 464.571 389.474C464.798 389.702 464.926 390.01 464.926 390.331V403.954C464.926 404.45 464.53 404.869 464.034 404.869H461.362C461.241 404.869 461.122 404.846 461.011 404.8C460.899 404.754 460.798 404.687 460.713 404.602C460.628 404.517 460.561 404.416 460.515 404.305C460.469 404.193 460.445 404.074 460.446 403.954V394.187C460.444 394.03 460.38 393.881 460.269 393.77C460.158 393.659 460.008 393.596 459.852 393.594H451.015C450.858 393.596 450.708 393.659 450.597 393.77C450.486 393.881 450.423 394.03 450.421 394.187V403.954C450.421 404.45 450.025 404.869 449.505 404.869H446.833C446.713 404.869 446.593 404.846 446.482 404.8C446.371 404.754 446.27 404.687 446.184 404.602C446.099 404.517 446.032 404.416 445.986 404.305C445.94 404.193 445.917 404.074 445.917 403.954V390.329C445.918 390.007 446.046 389.699 446.274 389.472C446.501 389.245 446.81 389.118 447.131 389.118H447.129Z" fill="white"/>
<path d="M454.086 396.461H456.734C457.227 396.461 457.65 396.856 457.65 397.376V400.071C457.65 400.567 457.254 400.987 456.734 400.987H454.086C453.965 400.987 453.846 400.963 453.735 400.918C453.623 400.872 453.522 400.804 453.437 400.719C453.352 400.634 453.284 400.533 453.239 400.422C453.193 400.311 453.169 400.192 453.17 400.071V397.352C453.17 396.856 453.592 396.461 454.086 396.461Z" fill="white"/>
</g>
<defs>
<filter id="filter0_d_3539_9400" x="16.7212" y="0.343506" width="593.763" height="593.57" filterUnits="userSpaceOnUse" color-interpolation-filters="sRGB">
<feFlood flood-opacity="0" result="BackgroundImageFix"/>
<feColorMatrix in="SourceAlpha" type="matrix" values="0 0 0 0 0 0 0 0 0 0 0 0 0 0 0 0 0 0 127 0" result="hardAlpha"/>
<feOffset dy="40"/>
<feGaussianBlur stdDeviation="100"/>
<feComposite in2="hardAlpha" operator="out"/>
<feColorMatrix type="matrix" values="0 0 0 0 0.247059 0 0 0 0 0.505882 0 0 0 0 0.745098 0 0 0 0.7 0"/>
<feBlend mode="normal" in2="BackgroundImageFix" result="effect1_dropShadow_3539_9400"/>
<feBlend mode="normal" in="SourceGraphic" in2="effect1_dropShadow_3539_9400" result="shape"/>
</filter>
<clipPath id="clip0_3539_9400">
<rect width="67.0366" height="66.9696" fill="white" transform="translate(133.155 223.643)"/>
</clipPath>
<clipPath id="clip1_3539_9400">
<rect width="71.6282" height="70.6391" fill="white" transform="translate(24.7943 237.404)"/>
</clipPath>
<clipPath id="clip2_3539_9400">
<rect width="51.4254" height="51.3739" fill="white" transform="translate(384.772 132.822)"/>
</clipPath>
<clipPath id="clip3_3539_9400">
<rect width="72.5465" height="72.4739" fill="white" transform="translate(163.459 376.848)"/>
</clipPath>
<clipPath id="clip4_3539_9400">
<rect width="68.8732" height="68.8044" fill="white" transform="translate(0 132.822)"/>
</clipPath>
<clipPath id="clip5_3539_9400">
<rect width="81.7296" height="81.6478" fill="white" transform="translate(110.197 84.2)"/>
</clipPath>
<clipPath id="clip6_3539_9400">
<rect width="53.262" height="53.2087" fill="white" transform="translate(502.315 340.152)"/>
</clipPath>
<clipPath id="clip7_3539_9400">
<rect width="57.8535" height="58.713" fill="white" transform="translate(348.039 42)"/>
</clipPath>
<clipPath id="clip8_3539_9400">
<rect width="44.0789" height="44.0348" fill="white" transform="translate(533.538 188.783)"/>
</clipPath>
<clipPath id="clip9_3539_9400">
<rect width="61.5267" height="61.4652" fill="white" transform="translate(590.473 283.274)"/>
</clipPath>
<clipPath id="clip10_3539_9400">
<rect width="52.3437" height="53.2087" fill="white" transform="translate(302.124 410.791)"/>
</clipPath>
<clipPath id="clip11_3539_9400">
<rect width="68.8732" height="68.8044" fill="white" transform="translate(472.93 77.7783)"/>
</clipPath>
<clipPath id="clip12_3539_9400">
<rect width="68.8732" height="68.8043" fill="white" transform="translate(239.679 53.9261)"/>
</clipPath>
<clipPath id="clip13_3539_9400">
<rect width="60.6085" height="60.5478" fill="white" transform="translate(441.707 242.909)"/>
</clipPath>
<clipPath id="clip14_3539_9400">
<rect width="58.7718" height="58.713" fill="white" transform="translate(67.0366 350.243)"/>
</clipPath>
<clipPath id="clip15_3539_9400">
<rect width="84.4845" height="84.4" fill="white" transform="translate(391.2 354.83)"/>
</clipPath>
</defs>
</svg>
