<svg width="555" height="300" viewBox="0 0 555 300" fill="none" xmlns="http://www.w3.org/2000/svg">
<rect width="555" height="300" fill="#121922"/>
<circle opacity="0.2" cx="19" cy="19" r="5" fill="white"/>
<circle opacity="0.2" cx="35" cy="19" r="5" fill="white"/>
<circle opacity="0.2" cx="51" cy="19" r="5" fill="white"/>
<path d="M245.672 22.4929H247.153C247.109 20.8622 245.667 19.679 243.599 19.679C241.555 19.679 239.989 20.8473 239.989 22.6023C239.989 24.0192 241.004 24.8494 242.639 25.2919L243.842 25.62C244.931 25.9084 245.771 26.2663 245.771 27.1712C245.771 28.1655 244.822 28.8217 243.514 28.8217C242.331 28.8217 241.347 28.2947 241.257 27.1861H239.716C239.815 29.0305 241.242 30.169 243.524 30.169C245.915 30.169 247.293 28.9112 247.293 27.1861C247.293 25.3516 245.657 24.6406 244.364 24.3224L243.37 24.0639C242.575 23.8601 241.516 23.4872 241.521 22.5128C241.521 21.6477 242.311 21.0064 243.564 21.0064C244.732 21.0064 245.562 21.5533 245.672 22.4929ZM249.009 32.8636H250.496V28.8118H250.585C250.854 29.299 251.4 30.1491 252.792 30.1491C254.642 30.1491 255.984 28.6676 255.984 26.1967C255.984 23.7209 254.622 22.2642 252.778 22.2642C251.361 22.2642 250.849 23.1293 250.585 23.6016H250.461V22.3636H249.009V32.8636ZM250.466 26.1818C250.466 24.5859 251.162 23.527 252.459 23.527C253.807 23.527 254.483 24.6655 254.483 26.1818C254.483 27.7131 253.787 28.8814 252.459 28.8814C251.182 28.8814 250.466 27.7876 250.466 26.1818ZM260.941 30.1541C262.606 30.1541 263.785 29.3338 264.123 28.0909L262.716 27.8374C262.447 28.5582 261.801 28.9261 260.956 28.9261C259.683 28.9261 258.828 28.1009 258.788 26.6293H264.217V26.1023C264.217 23.343 262.567 22.2642 260.836 22.2642C258.709 22.2642 257.307 23.8849 257.307 26.2315C257.307 28.603 258.689 30.1541 260.941 30.1541ZM258.793 25.5156C258.853 24.4318 259.638 23.4922 260.846 23.4922C262 23.4922 262.756 24.3473 262.76 25.5156H258.793ZM269.083 30.1541C270.888 30.1541 272.056 29.0703 272.22 27.5838H270.773C270.585 28.4091 269.943 28.8963 269.093 28.8963C267.835 28.8963 267.025 27.8473 267.025 26.1818C267.025 24.5462 267.85 23.517 269.093 23.517C270.038 23.517 270.614 24.1136 270.773 24.8295H272.22C272.061 23.2884 270.803 22.2642 269.068 22.2642C266.915 22.2642 265.523 23.8849 265.523 26.2166C265.523 28.5185 266.866 30.1541 269.083 30.1541ZM273.81 30H275.296V22.3636H273.81V30ZM274.561 21.1854C275.073 21.1854 275.5 20.7876 275.5 20.3004C275.5 19.8132 275.073 19.4105 274.561 19.4105C274.044 19.4105 273.621 19.8132 273.621 20.3004C273.621 20.7876 274.044 21.1854 274.561 21.1854ZM279.518 30.169C280.781 30.169 281.492 29.5277 281.776 28.956H281.835V30H283.287V24.929C283.287 22.7067 281.537 22.2642 280.324 22.2642C278.942 22.2642 277.669 22.821 277.172 24.2131L278.569 24.5312C278.788 23.9893 279.344 23.4673 280.344 23.4673C281.303 23.4673 281.795 23.9695 281.795 24.8345V24.8693C281.795 25.4112 281.239 25.4013 279.866 25.5604C278.42 25.7294 276.938 26.1072 276.938 27.8423C276.938 29.3438 278.067 30.169 279.518 30.169ZM279.842 28.9759C279.001 28.9759 278.395 28.598 278.395 27.8622C278.395 27.0668 279.101 26.7834 279.961 26.669C280.443 26.6044 281.587 26.4751 281.8 26.2614V27.2457C281.8 28.1506 281.08 28.9759 279.842 28.9759ZM286.753 19.8182H285.267V30H286.753V19.8182ZM292.458 30H293.945V25.3366C293.945 24.3374 294.715 23.6165 295.769 23.6165C296.078 23.6165 296.426 23.6712 296.545 23.706V22.2841C296.396 22.2642 296.102 22.2493 295.914 22.2493C295.019 22.2493 294.253 22.7564 293.975 23.5767H293.895V22.3636H292.458V30ZM300.849 30.1541C302.515 30.1541 303.693 29.3338 304.031 28.0909L302.624 27.8374C302.355 28.5582 301.709 28.9261 300.864 28.9261C299.591 28.9261 298.736 28.1009 298.696 26.6293H304.125V26.1023C304.125 23.343 302.475 22.2642 300.745 22.2642C298.617 22.2642 297.215 23.8849 297.215 26.2315C297.215 28.603 298.597 30.1541 300.849 30.1541ZM298.701 25.5156C298.761 24.4318 299.547 23.4922 300.755 23.4922C301.908 23.4922 302.664 24.3473 302.669 25.5156H298.701ZM312.417 32.8636V22.3636H310.965V23.6016H310.841C310.577 23.1293 310.065 22.2642 308.648 22.2642C306.804 22.2642 305.442 23.7209 305.442 26.1967C305.442 28.6676 306.784 30.1491 308.633 30.1491C310.025 30.1491 310.572 29.299 310.841 28.8118H310.93V32.8636H312.417ZM310.96 26.1818C310.96 27.7876 310.244 28.8814 308.966 28.8814C307.639 28.8814 306.943 27.7131 306.943 26.1818C306.943 24.6655 307.619 23.527 308.966 23.527C310.264 23.527 310.96 24.5859 310.96 26.1818ZM319.253 26.8331C319.258 28.1307 318.293 28.7472 317.458 28.7472C316.538 28.7472 315.902 28.081 315.902 27.0419V22.3636H314.415V27.2209C314.415 29.1151 315.454 30.0994 316.921 30.0994C318.069 30.0994 318.85 29.4929 319.203 28.6776H319.282V30H320.744V22.3636H319.253V26.8331ZM326.033 30.1541C327.698 30.1541 328.876 29.3338 329.214 28.0909L327.808 27.8374C327.539 28.5582 326.893 28.9261 326.048 28.9261C324.775 28.9261 323.92 28.1009 323.88 26.6293H329.309V26.1023C329.309 23.343 327.658 22.2642 325.928 22.2642C323.8 22.2642 322.398 23.8849 322.398 26.2315C322.398 28.603 323.781 30.1541 326.033 30.1541ZM323.885 25.5156C323.945 24.4318 324.73 23.4922 325.938 23.4922C327.092 23.4922 327.847 24.3473 327.852 25.5156H323.885ZM336.681 24.228C336.372 23.0398 335.443 22.2642 333.792 22.2642C332.067 22.2642 330.844 23.174 330.844 24.5263C330.844 25.6101 331.5 26.331 332.932 26.6491L334.225 26.9325C334.96 27.0966 335.303 27.4247 335.303 27.902C335.303 28.4936 334.672 28.956 333.698 28.956C332.808 28.956 332.236 28.5732 332.057 27.8224L330.62 28.0412C330.869 29.3935 331.992 30.1541 333.708 30.1541C335.552 30.1541 336.83 29.1747 336.83 27.7926C336.83 26.7138 336.144 26.0476 334.742 25.7244L333.529 25.446C332.688 25.2472 332.325 24.9638 332.33 24.4467C332.325 23.8601 332.962 23.4425 333.807 23.4425C334.732 23.4425 335.159 23.9545 335.333 24.4666L336.681 24.228ZM342.029 22.3636H340.463V20.5341H338.976V22.3636H337.858V23.5568H338.976V28.0661C338.971 29.4531 340.03 30.1243 341.203 30.0994C341.676 30.0945 341.994 30.005 342.168 29.9403L341.9 28.7124C341.8 28.7322 341.616 28.777 341.377 28.777C340.895 28.777 340.463 28.6179 340.463 27.7578V23.5568H342.029V22.3636ZM348.358 30L349.292 27.3054H353.27L354.199 30H355.83L352.166 19.8182H350.391L346.727 30H348.358ZM349.74 26.0128L351.241 21.6676H351.321L352.822 26.0128H349.74ZM357.3 30H358.836V26.4205H360.925C363.286 26.4205 364.454 24.9936 364.454 23.1143C364.454 21.2401 363.296 19.8182 360.93 19.8182H357.3V30ZM358.836 25.1179V21.1357H360.765C362.287 21.1357 362.908 21.9609 362.908 23.1143C362.908 24.2678 362.287 25.1179 360.785 25.1179H358.836ZM367.792 19.8182H366.255V30H367.792V19.8182ZM376.578 30.1442C377.497 30.1442 378.517 29.8359 379.203 29.1946L379.889 30H381.569L380.122 28.2699C380.555 27.6932 380.968 26.7884 380.968 25.3764H379.625C379.625 26.0575 379.466 26.6641 379.203 27.1712L377.164 24.7351L377.86 24.223C378.705 23.6065 379.213 22.8956 379.213 21.9261C379.213 20.7379 378.253 19.7088 376.687 19.7088C375.136 19.7088 374.117 20.7081 374.117 22.1151C374.117 23.0249 374.594 23.7457 375.235 24.5263C374.072 25.3317 373.281 26.0824 373.281 27.2955C373.281 28.9311 374.529 30.1442 376.578 30.1442ZM378.367 28.2102C377.84 28.6477 377.209 28.8864 376.583 28.8864C375.479 28.8864 374.758 28.1357 374.758 27.2557C374.758 26.9425 375.021 26.3161 375.817 25.7294L376.085 25.5305L378.367 28.2102ZM376.344 23.7457C375.882 23.179 375.519 22.657 375.519 22.1399C375.519 21.5483 376.006 20.9517 376.722 20.9517C377.408 20.9517 377.855 21.4886 377.855 21.9659C377.855 22.5724 377.522 22.9403 376.97 23.3033L376.344 23.7457ZM392.111 22.4929H393.593C393.548 20.8622 392.106 19.679 390.038 19.679C387.995 19.679 386.429 20.8473 386.429 22.6023C386.429 24.0192 387.443 24.8494 389.079 25.2919L390.282 25.62C391.371 25.9084 392.211 26.2663 392.211 27.1712C392.211 28.1655 391.261 28.8217 389.954 28.8217C388.77 28.8217 387.786 28.2947 387.697 27.1861H386.155C386.255 29.0305 387.682 30.169 389.964 30.169C392.355 30.169 393.732 28.9112 393.732 27.1861C393.732 25.3516 392.096 24.6406 390.804 24.3224L389.809 24.0639C389.014 23.8601 387.955 23.4872 387.96 22.5128C387.96 21.6477 388.751 21.0064 390.003 21.0064C391.172 21.0064 392.002 21.5533 392.111 22.4929ZM398.864 30C401.966 30 403.761 28.076 403.761 24.8942C403.761 21.7273 401.966 19.8182 398.968 19.8182H395.568V30H398.864ZM397.104 28.6577V21.1605H398.874C401.101 21.1605 402.25 22.4929 402.25 24.8942C402.25 27.3054 401.101 28.6577 398.779 28.6577H397.104ZM405.671 30H407.208V26.8331L408.411 25.451L411.702 30H413.551L409.43 24.402L413.536 19.8182H411.602L407.332 24.6804H407.208V19.8182H405.671V30Z" fill="#999FAE"/>
<path d="M29.508 89V81.638H25.566V80.198H31.29V89H29.508ZM30.246 78.488C29.862 78.488 29.544 78.374 29.292 78.146C29.04 77.906 28.914 77.594 28.914 77.21C28.914 76.826 29.04 76.52 29.292 76.292C29.544 76.052 29.862 75.932 30.246 75.932C30.63 75.932 30.948 76.052 31.2 76.292C31.452 76.52 31.578 76.826 31.578 77.21C31.578 77.594 31.452 77.906 31.2 78.146C30.948 78.374 30.63 78.488 30.246 78.488ZM35.729 89V80.198H37.133L37.277 81.35H37.313C37.517 80.954 37.769 80.63 38.069 80.378C38.381 80.114 38.789 79.982 39.293 79.982C40.133 79.982 40.673 80.486 40.913 81.494C41.153 81.038 41.423 80.672 41.723 80.396C42.035 80.12 42.443 79.982 42.947 79.982C43.571 79.982 44.051 80.222 44.387 80.702C44.735 81.17 44.909 81.848 44.909 82.736V89H43.163V82.862C43.163 81.962 42.893 81.512 42.353 81.512C42.077 81.512 41.849 81.614 41.669 81.818C41.489 82.022 41.297 82.328 41.093 82.736V89H39.545V82.862C39.545 81.962 39.281 81.512 38.753 81.512C38.477 81.512 38.243 81.614 38.051 81.818C37.859 82.022 37.667 82.328 37.475 82.736V89H35.729ZM47.1699 92.6V80.198H48.6279L48.7719 81.278H48.8259C49.2219 80.894 49.6779 80.582 50.1939 80.342C50.7099 80.102 51.2319 79.982 51.7599 79.982C52.3359 79.982 52.8459 80.09 53.2899 80.306C53.7459 80.51 54.1239 80.81 54.4239 81.206C54.7359 81.59 54.9699 82.058 55.1259 82.61C55.2939 83.162 55.3779 83.78 55.3779 84.464C55.3779 85.22 55.2699 85.892 55.0539 86.48C54.8379 87.068 54.5439 87.566 54.1719 87.974C53.8119 88.37 53.3919 88.676 52.9119 88.892C52.4319 89.108 51.9339 89.216 51.4179 89.216C51.0099 89.216 50.5839 89.126 50.1399 88.946C49.6959 88.754 49.2879 88.484 48.9159 88.136H48.8619L48.9519 89.72V92.6H47.1699ZM51.0759 87.74C51.7839 87.74 52.3719 87.464 52.8399 86.912C53.3079 86.348 53.5419 85.538 53.5419 84.482C53.5419 83.558 53.3619 82.826 53.0019 82.286C52.6419 81.746 52.0659 81.476 51.2739 81.476C50.9139 81.476 50.5359 81.572 50.1399 81.764C49.7439 81.944 49.3479 82.244 48.9519 82.664V86.822C49.3239 87.158 49.7019 87.398 50.0859 87.542C50.4699 87.674 50.7999 87.74 51.0759 87.74ZM61.7789 89.216C61.2029 89.216 60.6509 89.114 60.1229 88.91C59.5949 88.706 59.1269 88.406 58.7189 88.01C58.3109 87.614 57.9869 87.134 57.7469 86.57C57.5069 85.994 57.3869 85.34 57.3869 84.608C57.3869 83.876 57.5069 83.222 57.7469 82.646C57.9869 82.07 58.3109 81.584 58.7189 81.188C59.1269 80.792 59.5949 80.492 60.1229 80.288C60.6509 80.084 61.2029 79.982 61.7789 79.982C62.3549 79.982 62.9069 80.084 63.4349 80.288C63.9629 80.492 64.4309 80.792 64.8389 81.188C65.2469 81.584 65.5709 82.07 65.8109 82.646C66.0509 83.222 66.1709 83.876 66.1709 84.608C66.1709 85.34 66.0509 85.994 65.8109 86.57C65.5709 87.134 65.2469 87.614 64.8389 88.01C64.4309 88.406 63.9629 88.706 63.4349 88.91C62.9069 89.114 62.3549 89.216 61.7789 89.216ZM61.7789 87.758C62.5709 87.758 63.1949 87.47 63.6509 86.894C64.1069 86.318 64.3349 85.556 64.3349 84.608C64.3349 83.66 64.1069 82.898 63.6509 82.322C63.1949 81.746 62.5709 81.458 61.7789 81.458C60.9869 81.458 60.3629 81.746 59.9069 82.322C59.4509 82.898 59.2229 83.66 59.2229 84.608C59.2229 85.556 59.4509 86.318 59.9069 86.894C60.3629 87.47 60.9869 87.758 61.7789 87.758ZM69.6559 89V80.198H71.1319L71.2759 82.25H71.3299C71.7859 81.53 72.3379 80.972 72.9859 80.576C73.6459 80.18 74.3719 79.982 75.1639 79.982C75.5119 79.982 75.8179 80.012 76.0819 80.072C76.3459 80.12 76.6159 80.21 76.8919 80.342L76.4959 81.872C76.1959 81.776 75.9379 81.704 75.7219 81.656C75.5059 81.608 75.2299 81.584 74.8939 81.584C74.2579 81.584 73.6459 81.764 73.0579 82.124C72.4699 82.484 71.9299 83.108 71.4379 83.996V89H69.6559ZM85.0208 89.216C84.3728 89.216 83.8208 89.126 83.3648 88.946C82.9208 88.766 82.5608 88.514 82.2848 88.19C82.0208 87.866 81.8288 87.482 81.7088 87.038C81.5888 86.582 81.5288 86.078 81.5288 85.526V81.638H79.1168V80.288L81.6008 80.198L81.8348 77.408H83.3108V80.198H87.4688V81.638H83.3108V85.526C83.3108 86.282 83.4608 86.846 83.7608 87.218C84.0728 87.59 84.6308 87.776 85.4348 87.776C85.8188 87.776 86.1728 87.746 86.4968 87.686C86.8208 87.614 87.1388 87.518 87.4508 87.398L87.8108 88.712C87.4148 88.844 86.9948 88.958 86.5508 89.054C86.1068 89.162 85.5968 89.216 85.0208 89.216Z" fill="#FF3596"/>
<path d="M104.969 89.216C104.357 89.216 103.799 89.126 103.295 88.946C102.803 88.766 102.377 88.49 102.017 88.118C101.657 87.734 101.381 87.248 101.189 86.66C100.997 86.06 100.901 85.346 100.901 84.518V77.21H102.719V84.626C102.719 85.706 102.923 86.48 103.331 86.948C103.751 87.416 104.297 87.65 104.969 87.65C105.641 87.65 106.187 87.416 106.607 86.948C107.039 86.48 107.255 85.706 107.255 84.626V77.21H109.001V84.518C109.001 85.346 108.905 86.06 108.713 86.66C108.521 87.248 108.251 87.734 107.903 88.118C107.555 88.49 107.129 88.766 106.625 88.946C106.133 89.126 105.581 89.216 104.969 89.216ZM111.928 89V80.198H113.386L113.53 81.62H113.602C114.046 81.164 114.526 80.78 115.042 80.468C115.558 80.144 116.158 79.982 116.842 79.982C117.874 79.982 118.63 80.288 119.11 80.9C119.59 81.512 119.83 82.394 119.83 83.546V89H118.048V83.78C118.048 83.012 117.91 82.448 117.634 82.088C117.358 81.716 116.884 81.53 116.212 81.53C115.744 81.53 115.324 81.65 114.952 81.89C114.58 82.118 114.166 82.466 113.71 82.934V89H111.928ZM126.645 89V81.638H122.703V80.198H128.427V89H126.645ZM127.383 78.488C126.999 78.488 126.681 78.374 126.429 78.146C126.177 77.906 126.051 77.594 126.051 77.21C126.051 76.826 126.177 76.52 126.429 76.292C126.681 76.052 126.999 75.932 127.383 75.932C127.767 75.932 128.085 76.052 128.337 76.292C128.589 76.52 128.715 76.826 128.715 77.21C128.715 77.594 128.589 77.906 128.337 78.146C128.085 78.374 127.767 78.488 127.383 78.488ZM136.736 89.216C136.16 89.216 135.638 89.114 135.17 88.91C134.714 88.706 134.318 88.406 133.982 88.01C133.646 87.614 133.388 87.134 133.208 86.57C133.028 85.994 132.938 85.34 132.938 84.608C132.938 83.888 133.046 83.246 133.262 82.682C133.49 82.106 133.784 81.62 134.144 81.224C134.516 80.828 134.936 80.522 135.404 80.306C135.884 80.09 136.376 79.982 136.88 79.982C137.396 79.982 137.852 80.078 138.248 80.27C138.656 80.462 139.04 80.732 139.4 81.08H139.454L139.364 79.514V76.238H141.146V89H139.688L139.544 87.92H139.49C139.142 88.268 138.728 88.574 138.248 88.838C137.768 89.09 137.264 89.216 136.736 89.216ZM137.15 87.74C137.942 87.74 138.68 87.344 139.364 86.552V82.376C139.016 82.04 138.668 81.806 138.32 81.674C137.972 81.542 137.624 81.476 137.276 81.476C136.928 81.476 136.604 81.548 136.304 81.692C136.004 81.836 135.74 82.046 135.512 82.322C135.284 82.586 135.104 82.91 134.972 83.294C134.84 83.678 134.774 84.11 134.774 84.59C134.774 85.61 134.978 86.39 135.386 86.93C135.806 87.47 136.394 87.74 137.15 87.74ZM148.663 89.216C147.991 89.216 147.367 89.114 146.791 88.91C146.215 88.706 145.711 88.406 145.279 88.01C144.847 87.614 144.505 87.128 144.253 86.552C144.013 85.976 143.893 85.322 143.893 84.59C143.893 83.87 144.019 83.228 144.271 82.664C144.523 82.088 144.853 81.602 145.261 81.206C145.681 80.81 146.161 80.51 146.701 80.306C147.241 80.09 147.805 79.982 148.393 79.982C149.041 79.982 149.617 80.084 150.121 80.288C150.625 80.492 151.045 80.78 151.381 81.152C151.729 81.512 151.993 81.95 152.173 82.466C152.353 82.97 152.443 83.528 152.443 84.14C152.443 84.332 152.437 84.512 152.425 84.68C152.413 84.848 152.395 84.992 152.371 85.112H145.675C145.771 86.024 146.113 86.702 146.701 87.146C147.301 87.59 148.033 87.812 148.897 87.812C149.389 87.812 149.839 87.746 150.247 87.614C150.655 87.47 151.057 87.278 151.453 87.038L152.083 88.172C151.627 88.472 151.111 88.724 150.535 88.928C149.971 89.12 149.347 89.216 148.663 89.216ZM148.447 81.386C148.111 81.386 147.793 81.44 147.493 81.548C147.193 81.644 146.923 81.794 146.683 81.998C146.443 82.202 146.239 82.454 146.071 82.754C145.903 83.054 145.783 83.402 145.711 83.798H150.841C150.781 82.994 150.535 82.394 150.103 81.998C149.683 81.59 149.131 81.386 148.447 81.386ZM154.542 89L157.818 84.428L154.776 80.198H156.72L157.998 81.998C158.154 82.238 158.316 82.49 158.484 82.754C158.652 83.006 158.82 83.252 158.988 83.492H159.06C159.216 83.252 159.372 83 159.528 82.736C159.696 82.472 159.852 82.22 159.996 81.98L161.166 80.198H163.056L159.996 84.608L163.272 89H161.328L159.924 87.128C159.756 86.876 159.576 86.612 159.384 86.336C159.192 86.06 159 85.796 158.808 85.544H158.736C158.568 85.808 158.4 86.072 158.232 86.336C158.064 86.588 157.896 86.852 157.728 87.128L156.432 89H154.542ZM169.727 89.216C169.115 89.216 168.557 89.126 168.053 88.946C167.561 88.766 167.135 88.49 166.775 88.118C166.415 87.734 166.139 87.248 165.947 86.66C165.755 86.06 165.659 85.346 165.659 84.518V77.21H167.477V84.626C167.477 85.706 167.681 86.48 168.089 86.948C168.509 87.416 169.055 87.65 169.727 87.65C170.399 87.65 170.945 87.416 171.365 86.948C171.797 86.48 172.013 85.706 172.013 84.626V77.21H173.759V84.518C173.759 85.346 173.663 86.06 173.471 86.66C173.279 87.248 173.009 87.734 172.661 88.118C172.313 88.49 171.887 88.766 171.383 88.946C170.891 89.126 170.339 89.216 169.727 89.216ZM176.722 89V87.488H179.602V78.722H176.722V77.21H184.282V78.722H181.402V87.488H184.282V89H176.722Z" fill="white"/>
<path d="M29.508 144.216C28.668 144.216 27.876 144.084 27.132 143.82C26.388 143.544 25.746 143.22 25.206 142.848L25.998 141.696C26.514 142.056 27.072 142.338 27.672 142.542C28.284 142.746 28.974 142.848 29.742 142.848C30.426 142.848 30.93 142.734 31.254 142.506C31.578 142.266 31.74 141.978 31.74 141.642C31.74 141.486 31.71 141.342 31.65 141.21C31.59 141.078 31.464 140.958 31.272 140.85C31.092 140.73 30.834 140.616 30.498 140.508C30.162 140.4 29.718 140.286 29.166 140.166C28.002 139.926 27.138 139.602 26.574 139.194C26.022 138.774 25.746 138.228 25.746 137.556C25.746 137.184 25.824 136.842 25.98 136.53C26.148 136.218 26.388 135.948 26.7 135.72C27.024 135.492 27.42 135.312 27.888 135.18C28.356 135.048 28.896 134.982 29.508 134.982C30.204 134.982 30.864 135.102 31.488 135.342C32.124 135.57 32.664 135.834 33.108 136.134L32.28 137.25C31.86 136.974 31.398 136.758 30.894 136.602C30.402 136.434 29.886 136.35 29.346 136.35C28.674 136.35 28.2 136.458 27.924 136.674C27.66 136.89 27.528 137.154 27.528 137.466C27.528 137.814 27.714 138.078 28.086 138.258C28.458 138.438 29.076 138.618 29.94 138.798C30.66 138.954 31.248 139.122 31.704 139.302C32.172 139.482 32.538 139.68 32.802 139.896C33.078 140.112 33.27 140.358 33.378 140.634C33.486 140.898 33.54 141.198 33.54 141.534C33.54 141.906 33.45 142.254 33.27 142.578C33.09 142.902 32.826 143.19 32.478 143.442C32.142 143.682 31.722 143.868 31.218 144C30.726 144.144 30.156 144.216 29.508 144.216ZM41.849 144.216C41.201 144.216 40.649 144.126 40.193 143.946C39.749 143.766 39.389 143.514 39.113 143.19C38.849 142.866 38.657 142.482 38.537 142.038C38.417 141.582 38.357 141.078 38.357 140.526V136.638H35.945V135.288L38.429 135.198L38.663 132.408H40.139V135.198H44.297V136.638H40.139V140.526C40.139 141.282 40.289 141.846 40.589 142.218C40.901 142.59 41.459 142.776 42.263 142.776C42.647 142.776 43.001 142.746 43.325 142.686C43.649 142.614 43.967 142.518 44.279 142.398L44.639 143.712C44.243 143.844 43.823 143.958 43.379 144.054C42.935 144.162 42.425 144.216 41.849 144.216ZM48.0699 144V135.198H49.5459L49.6899 137.25H49.7439C50.1999 136.53 50.7519 135.972 51.3999 135.576C52.0599 135.18 52.7859 134.982 53.5779 134.982C53.9259 134.982 54.2319 135.012 54.4959 135.072C54.7599 135.12 55.0299 135.21 55.3059 135.342L54.9099 136.872C54.6099 136.776 54.3519 136.704 54.1359 136.656C53.9199 136.608 53.6439 136.584 53.3079 136.584C52.6719 136.584 52.0599 136.764 51.4719 137.124C50.8839 137.484 50.3439 138.108 49.8519 138.996V144H48.0699ZM60.6989 144.216C59.6549 144.216 58.8929 143.916 58.4129 143.316C57.9329 142.704 57.6929 141.816 57.6929 140.652V135.198H59.4749V140.418C59.4749 141.198 59.6129 141.774 59.8889 142.146C60.1649 142.506 60.6389 142.686 61.3109 142.686C61.7669 142.686 62.1809 142.578 62.5529 142.362C62.9369 142.134 63.3449 141.756 63.7769 141.228V135.198H65.5589V144H64.1009L63.9569 142.542H63.8849C63.4529 143.046 62.9789 143.454 62.4629 143.766C61.9589 144.066 61.3709 144.216 60.6989 144.216ZM73.3819 144.216C72.6979 144.216 72.0559 144.114 71.4559 143.91C70.8679 143.706 70.3579 143.406 69.9259 143.01C69.4939 142.614 69.1519 142.134 68.8999 141.57C68.6599 140.994 68.5399 140.34 68.5399 139.608C68.5399 138.876 68.6719 138.222 68.9359 137.646C69.1999 137.07 69.5599 136.584 70.0159 136.188C70.4719 135.792 70.9939 135.492 71.5819 135.288C72.1819 135.084 72.8179 134.982 73.4899 134.982C74.2099 134.982 74.8399 135.108 75.3799 135.36C75.9199 135.6 76.3699 135.894 76.7299 136.242L75.8659 137.376C75.5179 137.088 75.1579 136.866 74.7859 136.71C74.4139 136.542 74.0119 136.458 73.5799 136.458C73.1119 136.458 72.6799 136.536 72.2839 136.692C71.8879 136.836 71.5459 137.046 71.2579 137.322C70.9819 137.598 70.7659 137.934 70.6099 138.33C70.4539 138.714 70.3759 139.14 70.3759 139.608C70.3759 140.076 70.4479 140.508 70.5919 140.904C70.7479 141.288 70.9639 141.618 71.2399 141.894C71.5279 142.17 71.8639 142.386 72.2479 142.542C72.6319 142.686 73.0579 142.758 73.5259 142.758C74.0659 142.758 74.5459 142.656 74.9659 142.452C75.3979 142.248 75.7879 142.002 76.1359 141.714L76.9099 142.866C76.4059 143.298 75.8539 143.634 75.2539 143.874C74.6539 144.102 74.0299 144.216 73.3819 144.216ZM85.0208 144.216C84.3728 144.216 83.8208 144.126 83.3648 143.946C82.9208 143.766 82.5608 143.514 82.2848 143.19C82.0208 142.866 81.8288 142.482 81.7088 142.038C81.5888 141.582 81.5288 141.078 81.5288 140.526V136.638H79.1168V135.288L81.6008 135.198L81.8348 132.408H83.3108V135.198H87.4688V136.638H83.3108V140.526C83.3108 141.282 83.4608 141.846 83.7608 142.218C84.0728 142.59 84.6308 142.776 85.4348 142.776C85.8188 142.776 86.1728 142.746 86.4968 142.686C86.8208 142.614 87.1388 142.518 87.4508 142.398L87.8108 143.712C87.4148 143.844 86.9948 143.958 86.5508 144.054C86.1068 144.162 85.5968 144.216 85.0208 144.216ZM105.401 167.216C104.981 167.216 104.531 167.114 104.051 166.91C103.583 166.706 103.151 166.412 102.755 166.028H102.701L102.539 167H101.135V154.238H102.917V157.622L102.845 159.242H102.899C103.283 158.858 103.721 158.552 104.213 158.324C104.705 158.096 105.203 157.982 105.707 157.982C106.283 157.982 106.799 158.09 107.255 158.306C107.711 158.51 108.089 158.81 108.389 159.206C108.701 159.59 108.935 160.058 109.091 160.61C109.259 161.162 109.343 161.78 109.343 162.464C109.343 163.22 109.235 163.892 109.019 164.48C108.803 165.068 108.509 165.566 108.137 165.974C107.777 166.37 107.357 166.676 106.877 166.892C106.409 167.108 105.917 167.216 105.401 167.216ZM105.059 165.74C105.755 165.74 106.337 165.464 106.805 164.912C107.273 164.348 107.507 163.538 107.507 162.482C107.507 161.558 107.327 160.826 106.967 160.286C106.607 159.746 106.031 159.476 105.239 159.476C104.879 159.476 104.501 159.572 104.105 159.764C103.709 159.944 103.313 160.244 102.917 160.664V164.822C103.289 165.158 103.667 165.398 104.051 165.542C104.435 165.674 104.771 165.74 105.059 165.74ZM115.744 167.216C115.168 167.216 114.616 167.114 114.088 166.91C113.56 166.706 113.092 166.406 112.684 166.01C112.276 165.614 111.952 165.134 111.712 164.57C111.472 163.994 111.352 163.34 111.352 162.608C111.352 161.876 111.472 161.222 111.712 160.646C111.952 160.07 112.276 159.584 112.684 159.188C113.092 158.792 113.56 158.492 114.088 158.288C114.616 158.084 115.168 157.982 115.744 157.982C116.32 157.982 116.872 158.084 117.4 158.288C117.928 158.492 118.396 158.792 118.804 159.188C119.212 159.584 119.536 160.07 119.776 160.646C120.016 161.222 120.136 161.876 120.136 162.608C120.136 163.34 120.016 163.994 119.776 164.57C119.536 165.134 119.212 165.614 118.804 166.01C118.396 166.406 117.928 166.706 117.4 166.91C116.872 167.114 116.32 167.216 115.744 167.216ZM115.744 165.758C116.536 165.758 117.16 165.47 117.616 164.894C118.072 164.318 118.3 163.556 118.3 162.608C118.3 161.66 118.072 160.898 117.616 160.322C117.16 159.746 116.536 159.458 115.744 159.458C114.952 159.458 114.328 159.746 113.872 160.322C113.416 160.898 113.188 161.66 113.188 162.608C113.188 163.556 113.416 164.318 113.872 164.894C114.328 165.47 114.952 165.758 115.744 165.758ZM125.943 167.216C125.367 167.216 124.845 167.114 124.377 166.91C123.921 166.706 123.525 166.406 123.189 166.01C122.853 165.614 122.595 165.134 122.415 164.57C122.235 163.994 122.145 163.34 122.145 162.608C122.145 161.888 122.253 161.246 122.469 160.682C122.697 160.106 122.991 159.62 123.351 159.224C123.723 158.828 124.143 158.522 124.611 158.306C125.091 158.09 125.583 157.982 126.087 157.982C126.603 157.982 127.059 158.078 127.455 158.27C127.863 158.462 128.247 158.732 128.607 159.08H128.661L128.571 157.514V154.238H130.353V167H128.895L128.751 165.92H128.697C128.349 166.268 127.935 166.574 127.455 166.838C126.975 167.09 126.471 167.216 125.943 167.216ZM126.357 165.74C127.149 165.74 127.887 165.344 128.571 164.552V160.376C128.223 160.04 127.875 159.806 127.527 159.674C127.179 159.542 126.831 159.476 126.483 159.476C126.135 159.476 125.811 159.548 125.511 159.692C125.211 159.836 124.947 160.046 124.719 160.322C124.491 160.586 124.311 160.91 124.179 161.294C124.047 161.678 123.981 162.11 123.981 162.59C123.981 163.61 124.185 164.39 124.593 164.93C125.013 165.47 125.601 165.74 126.357 165.74ZM134.342 170.69C134.126 170.69 133.91 170.672 133.694 170.636C133.49 170.612 133.304 170.57 133.136 170.51L133.496 169.124C133.604 169.16 133.724 169.19 133.856 169.214C133.988 169.238 134.12 169.25 134.252 169.25C134.84 169.25 135.314 169.088 135.674 168.764C136.034 168.452 136.316 168.05 136.52 167.558L136.754 166.946L132.74 158.198H134.522L136.502 162.788C136.67 163.184 136.838 163.604 137.006 164.048C137.174 164.492 137.348 164.93 137.528 165.362H137.6C137.744 164.942 137.894 164.51 138.05 164.066C138.206 163.622 138.356 163.196 138.5 162.788L140.246 158.198H141.938L138.176 167.558C137.996 168.026 137.792 168.452 137.564 168.836C137.336 169.22 137.066 169.55 136.754 169.826C136.454 170.102 136.106 170.312 135.71 170.456C135.314 170.612 134.858 170.69 134.342 170.69ZM169.817 167.216C168.977 167.216 168.185 167.084 167.441 166.82C166.697 166.544 166.055 166.22 165.515 165.848L166.307 164.696C166.823 165.056 167.381 165.338 167.981 165.542C168.593 165.746 169.283 165.848 170.051 165.848C170.735 165.848 171.239 165.734 171.563 165.506C171.887 165.266 172.049 164.978 172.049 164.642C172.049 164.486 172.019 164.342 171.959 164.21C171.899 164.078 171.773 163.958 171.581 163.85C171.401 163.73 171.143 163.616 170.807 163.508C170.471 163.4 170.027 163.286 169.475 163.166C168.311 162.926 167.447 162.602 166.883 162.194C166.331 161.774 166.055 161.228 166.055 160.556C166.055 160.184 166.133 159.842 166.289 159.53C166.457 159.218 166.697 158.948 167.009 158.72C167.333 158.492 167.729 158.312 168.197 158.18C168.665 158.048 169.205 157.982 169.817 157.982C170.513 157.982 171.173 158.102 171.797 158.342C172.433 158.57 172.973 158.834 173.417 159.134L172.589 160.25C172.169 159.974 171.707 159.758 171.203 159.602C170.711 159.434 170.195 159.35 169.655 159.35C168.983 159.35 168.509 159.458 168.233 159.674C167.969 159.89 167.837 160.154 167.837 160.466C167.837 160.814 168.023 161.078 168.395 161.258C168.767 161.438 169.385 161.618 170.249 161.798C170.969 161.954 171.557 162.122 172.013 162.302C172.481 162.482 172.847 162.68 173.111 162.896C173.387 163.112 173.579 163.358 173.687 163.634C173.795 163.898 173.849 164.198 173.849 164.534C173.849 164.906 173.759 165.254 173.579 165.578C173.399 165.902 173.135 166.19 172.787 166.442C172.451 166.682 172.031 166.868 171.527 167C171.035 167.144 170.465 167.216 169.817 167.216ZM180.502 167.216C179.926 167.216 179.374 167.114 178.846 166.91C178.318 166.706 177.85 166.406 177.442 166.01C177.034 165.614 176.71 165.134 176.47 164.57C176.23 163.994 176.11 163.34 176.11 162.608C176.11 161.876 176.23 161.222 176.47 160.646C176.71 160.07 177.034 159.584 177.442 159.188C177.85 158.792 178.318 158.492 178.846 158.288C179.374 158.084 179.926 157.982 180.502 157.982C181.078 157.982 181.63 158.084 182.158 158.288C182.686 158.492 183.154 158.792 183.562 159.188C183.97 159.584 184.294 160.07 184.534 160.646C184.774 161.222 184.894 161.876 184.894 162.608C184.894 163.34 184.774 163.994 184.534 164.57C184.294 165.134 183.97 165.614 183.562 166.01C183.154 166.406 182.686 166.706 182.158 166.91C181.63 167.114 181.078 167.216 180.502 167.216ZM180.502 165.758C181.294 165.758 181.918 165.47 182.374 164.894C182.83 164.318 183.058 163.556 183.058 162.608C183.058 161.66 182.83 160.898 182.374 160.322C181.918 159.746 181.294 159.458 180.502 159.458C179.71 159.458 179.086 159.746 178.63 160.322C178.174 160.898 177.946 161.66 177.946 162.608C177.946 163.556 178.174 164.318 178.63 164.894C179.086 165.47 179.71 165.758 180.502 165.758ZM186.831 167V158.198H188.235L188.379 159.35H188.415C188.619 158.954 188.871 158.63 189.171 158.378C189.483 158.114 189.891 157.982 190.395 157.982C191.235 157.982 191.775 158.486 192.015 159.494C192.255 159.038 192.525 158.672 192.825 158.396C193.137 158.12 193.545 157.982 194.049 157.982C194.673 157.982 195.153 158.222 195.489 158.702C195.837 159.17 196.011 159.848 196.011 160.736V167H194.265V160.862C194.265 159.962 193.995 159.512 193.455 159.512C193.179 159.512 192.951 159.614 192.771 159.818C192.591 160.022 192.399 160.328 192.195 160.736V167H190.647V160.862C190.647 159.962 190.383 159.512 189.855 159.512C189.579 159.512 189.345 159.614 189.153 159.818C188.961 160.022 188.769 160.328 188.577 160.736V167H186.831ZM202.628 167.216C201.956 167.216 201.332 167.114 200.756 166.91C200.18 166.706 199.676 166.406 199.244 166.01C198.812 165.614 198.47 165.128 198.218 164.552C197.978 163.976 197.858 163.322 197.858 162.59C197.858 161.87 197.984 161.228 198.236 160.664C198.488 160.088 198.818 159.602 199.226 159.206C199.646 158.81 200.126 158.51 200.666 158.306C201.206 158.09 201.77 157.982 202.358 157.982C203.006 157.982 203.582 158.084 204.086 158.288C204.59 158.492 205.01 158.78 205.346 159.152C205.694 159.512 205.958 159.95 206.138 160.466C206.318 160.97 206.408 161.528 206.408 162.14C206.408 162.332 206.402 162.512 206.39 162.68C206.378 162.848 206.36 162.992 206.336 163.112H199.64C199.736 164.024 200.078 164.702 200.666 165.146C201.266 165.59 201.998 165.812 202.862 165.812C203.354 165.812 203.804 165.746 204.212 165.614C204.62 165.47 205.022 165.278 205.418 165.038L206.048 166.172C205.592 166.472 205.076 166.724 204.5 166.928C203.936 167.12 203.312 167.216 202.628 167.216ZM202.412 159.386C202.076 159.386 201.758 159.44 201.458 159.548C201.158 159.644 200.888 159.794 200.648 159.998C200.408 160.202 200.204 160.454 200.036 160.754C199.868 161.054 199.748 161.402 199.676 161.798H204.806C204.746 160.994 204.5 160.394 204.068 159.998C203.648 159.59 203.096 159.386 202.412 159.386ZM138.14 213.216C137.456 213.216 136.814 213.114 136.214 212.91C135.626 212.706 135.116 212.406 134.684 212.01C134.252 211.614 133.91 211.134 133.658 210.57C133.418 209.994 133.298 209.34 133.298 208.608C133.298 207.876 133.43 207.222 133.694 206.646C133.958 206.07 134.318 205.584 134.774 205.188C135.23 204.792 135.752 204.492 136.34 204.288C136.94 204.084 137.576 203.982 138.248 203.982C138.968 203.982 139.598 204.108 140.138 204.36C140.678 204.6 141.128 204.894 141.488 205.242L140.624 206.376C140.276 206.088 139.916 205.866 139.544 205.71C139.172 205.542 138.77 205.458 138.338 205.458C137.87 205.458 137.438 205.536 137.042 205.692C136.646 205.836 136.304 206.046 136.016 206.322C135.74 206.598 135.524 206.934 135.368 207.33C135.212 207.714 135.134 208.14 135.134 208.608C135.134 209.076 135.206 209.508 135.35 209.904C135.506 210.288 135.722 210.618 135.998 210.894C136.286 211.17 136.622 211.386 137.006 211.542C137.39 211.686 137.816 211.758 138.284 211.758C138.824 211.758 139.304 211.656 139.724 211.452C140.156 211.248 140.546 211.002 140.894 210.714L141.668 211.866C141.164 212.298 140.612 212.634 140.012 212.874C139.412 213.102 138.788 213.216 138.14 213.216ZM149.995 213.216C149.011 213.216 148.261 212.934 147.745 212.37C147.229 211.806 146.971 210.99 146.971 209.922V201.66H143.947V200.238H148.753V210.03C148.753 210.642 148.903 211.086 149.203 211.362C149.515 211.626 149.917 211.758 150.409 211.758C150.865 211.758 151.393 211.632 151.993 211.38L152.425 212.712C152.005 212.88 151.615 213.006 151.255 213.09C150.907 213.174 150.487 213.216 149.995 213.216ZM159.024 213V205.638H155.082V204.198H160.806V213H159.024ZM159.762 202.488C159.378 202.488 159.06 202.374 158.808 202.146C158.556 201.906 158.43 201.594 158.43 201.21C158.43 200.826 158.556 200.52 158.808 200.292C159.06 200.052 159.378 199.932 159.762 199.932C160.146 199.932 160.464 200.052 160.716 200.292C160.968 200.52 161.094 200.826 161.094 201.21C161.094 201.594 160.968 201.906 160.716 202.146C160.464 202.374 160.146 202.488 159.762 202.488ZM165.893 216.6V204.198H167.351L167.495 205.278H167.549C167.945 204.894 168.401 204.582 168.917 204.342C169.433 204.102 169.955 203.982 170.483 203.982C171.059 203.982 171.569 204.09 172.013 204.306C172.469 204.51 172.847 204.81 173.147 205.206C173.459 205.59 173.693 206.058 173.849 206.61C174.017 207.162 174.101 207.78 174.101 208.464C174.101 209.22 173.993 209.892 173.777 210.48C173.561 211.068 173.267 211.566 172.895 211.974C172.535 212.37 172.115 212.676 171.635 212.892C171.155 213.108 170.657 213.216 170.141 213.216C169.733 213.216 169.307 213.126 168.863 212.946C168.419 212.754 168.011 212.484 167.639 212.136H167.585L167.675 213.72V216.6H165.893ZM169.799 211.74C170.507 211.74 171.095 211.464 171.563 210.912C172.031 210.348 172.265 209.538 172.265 208.482C172.265 207.558 172.085 206.826 171.725 206.286C171.365 205.746 170.789 205.476 169.997 205.476C169.637 205.476 169.259 205.572 168.863 205.764C168.467 205.944 168.071 206.244 167.675 206.664V210.822C168.047 211.158 168.425 211.398 168.809 211.542C169.193 211.674 169.523 211.74 169.799 211.74ZM180.556 213.216C179.704 213.216 178.912 213.066 178.18 212.766C177.448 212.454 176.8 212.022 176.236 211.47L177.28 210.246C177.736 210.666 178.252 211.008 178.828 211.272C179.404 211.524 180.016 211.65 180.664 211.65C181.42 211.65 181.996 211.5 182.392 211.2C182.8 210.888 183.004 210.486 183.004 209.994C183.004 209.706 182.95 209.466 182.842 209.274C182.746 209.082 182.608 208.914 182.428 208.77C182.248 208.626 182.032 208.5 181.78 208.392C181.528 208.272 181.252 208.152 180.952 208.032L179.296 207.294C178.996 207.174 178.696 207.03 178.396 206.862C178.096 206.682 177.826 206.472 177.586 206.232C177.346 205.98 177.148 205.692 176.992 205.368C176.848 205.032 176.776 204.648 176.776 204.216C176.776 203.76 176.872 203.334 177.064 202.938C177.256 202.542 177.526 202.2 177.874 201.912C178.234 201.624 178.654 201.402 179.134 201.246C179.626 201.078 180.166 200.994 180.754 200.994C181.486 200.994 182.17 201.126 182.806 201.39C183.442 201.654 183.988 202.014 184.444 202.47L183.508 203.622C183.124 203.286 182.704 203.028 182.248 202.848C181.804 202.656 181.276 202.56 180.664 202.56C180.04 202.56 179.536 202.698 179.152 202.974C178.78 203.25 178.594 203.628 178.594 204.108C178.594 204.36 178.648 204.582 178.756 204.774C178.876 204.954 179.032 205.116 179.224 205.26C179.416 205.392 179.632 205.512 179.872 205.62C180.124 205.716 180.382 205.818 180.646 205.926L182.248 206.628C182.62 206.772 182.962 206.94 183.274 207.132C183.586 207.312 183.856 207.528 184.084 207.78C184.324 208.02 184.51 208.308 184.642 208.644C184.774 208.968 184.84 209.346 184.84 209.778C184.84 210.246 184.744 210.69 184.552 211.11C184.36 211.53 184.078 211.896 183.706 212.208C183.334 212.52 182.884 212.766 182.356 212.946C181.828 213.126 181.228 213.216 180.556 213.216ZM187.479 213V200.238H189.261V203.622L189.153 205.602H189.207C189.627 205.146 190.089 204.762 190.593 204.45C191.109 204.138 191.709 203.982 192.393 203.982C193.425 203.982 194.181 204.288 194.661 204.9C195.141 205.512 195.381 206.394 195.381 207.546V213H193.599V207.78C193.599 207.012 193.461 206.448 193.185 206.088C192.909 205.716 192.435 205.53 191.763 205.53C191.295 205.53 190.875 205.65 190.503 205.89C190.131 206.118 189.717 206.466 189.261 206.934V213H187.479ZM201.026 213.216C200.606 213.216 200.21 213.156 199.838 213.036C199.478 212.916 199.166 212.748 198.902 212.532C198.638 212.304 198.428 212.034 198.272 211.722C198.128 211.41 198.056 211.062 198.056 210.678C198.056 210.186 198.17 209.754 198.398 209.382C198.638 209.01 199.004 208.692 199.496 208.428C200 208.164 200.642 207.948 201.422 207.78C202.214 207.612 203.162 207.486 204.266 207.402C204.242 206.862 204.062 206.4 203.726 206.016C203.402 205.632 202.85 205.44 202.07 205.44C201.53 205.44 201.002 205.542 200.486 205.746C199.982 205.95 199.514 206.178 199.082 206.43L198.416 205.224C198.656 205.08 198.926 204.936 199.226 204.792C199.526 204.636 199.844 204.498 200.18 204.378C200.528 204.258 200.882 204.162 201.242 204.09C201.614 204.018 201.992 203.982 202.376 203.982C203.6 203.982 204.518 204.312 205.13 204.972C205.742 205.632 206.048 206.544 206.048 207.708V213H204.59L204.446 211.866H204.392C203.924 212.226 203.396 212.544 202.808 212.82C202.232 213.084 201.638 213.216 201.026 213.216ZM201.53 211.794C201.998 211.794 202.454 211.692 202.898 211.488C203.354 211.284 203.81 210.996 204.266 210.624V208.536C203.402 208.608 202.682 208.704 202.106 208.824C201.53 208.932 201.068 209.076 200.72 209.256C200.384 209.424 200.144 209.616 200 209.832C199.856 210.048 199.784 210.288 199.784 210.552C199.784 210.996 199.952 211.314 200.288 211.506C200.636 211.698 201.05 211.794 201.53 211.794ZM209.064 216.6V204.198H210.522L210.666 205.278H210.72C211.116 204.894 211.572 204.582 212.088 204.342C212.604 204.102 213.126 203.982 213.654 203.982C214.23 203.982 214.74 204.09 215.184 204.306C215.64 204.51 216.018 204.81 216.318 205.206C216.63 205.59 216.864 206.058 217.02 206.61C217.188 207.162 217.272 207.78 217.272 208.464C217.272 209.22 217.164 209.892 216.948 210.48C216.732 211.068 216.438 211.566 216.066 211.974C215.706 212.37 215.286 212.676 214.806 212.892C214.326 213.108 213.828 213.216 213.312 213.216C212.904 213.216 212.478 213.126 212.034 212.946C211.59 212.754 211.182 212.484 210.81 212.136H210.756L210.846 213.72V216.6H209.064ZM212.97 211.74C213.678 211.74 214.266 211.464 214.734 210.912C215.202 210.348 215.436 209.538 215.436 208.482C215.436 207.558 215.256 206.826 214.896 206.286C214.536 205.746 213.96 205.476 213.168 205.476C212.808 205.476 212.43 205.572 212.034 205.764C211.638 205.944 211.242 206.244 210.846 206.664V210.822C211.218 211.158 211.596 211.398 211.98 211.542C212.364 211.674 212.694 211.74 212.97 211.74ZM224.213 213.216C223.541 213.216 222.917 213.114 222.341 212.91C221.765 212.706 221.261 212.406 220.829 212.01C220.397 211.614 220.055 211.128 219.803 210.552C219.563 209.976 219.443 209.322 219.443 208.59C219.443 207.87 219.569 207.228 219.821 206.664C220.073 206.088 220.403 205.602 220.811 205.206C221.231 204.81 221.711 204.51 222.251 204.306C222.791 204.09 223.355 203.982 223.943 203.982C224.591 203.982 225.167 204.084 225.671 204.288C226.175 204.492 226.595 204.78 226.931 205.152C227.279 205.512 227.543 205.95 227.723 206.466C227.903 206.97 227.993 207.528 227.993 208.14C227.993 208.332 227.987 208.512 227.975 208.68C227.963 208.848 227.945 208.992 227.921 209.112H221.225C221.321 210.024 221.663 210.702 222.251 211.146C222.851 211.59 223.583 211.812 224.447 211.812C224.939 211.812 225.389 211.746 225.797 211.614C226.205 211.47 226.607 211.278 227.003 211.038L227.633 212.172C227.177 212.472 226.661 212.724 226.085 212.928C225.521 213.12 224.897 213.216 224.213 213.216ZM223.997 205.386C223.661 205.386 223.343 205.44 223.043 205.548C222.743 205.644 222.473 205.794 222.233 205.998C221.993 206.202 221.789 206.454 221.621 206.754C221.453 207.054 221.333 207.402 221.261 207.798H226.391C226.331 206.994 226.085 206.394 225.653 205.998C225.233 205.59 224.681 205.386 223.997 205.386Z" fill="#30DEAB"/>
<path d="M105.887 144.216C105.155 144.216 104.471 144.084 103.835 143.82C103.199 143.544 102.647 143.148 102.179 142.632C101.711 142.104 101.339 141.468 101.063 140.724C100.799 139.968 100.667 139.104 100.667 138.132C100.667 137.172 100.799 136.314 101.063 135.558C101.339 134.802 101.711 134.16 102.179 133.632C102.659 133.104 103.223 132.702 103.871 132.426C104.531 132.138 105.251 131.994 106.031 131.994C106.751 131.994 107.393 132.144 107.957 132.444C108.521 132.732 108.983 133.068 109.343 133.452L108.335 134.586C108.035 134.274 107.699 134.028 107.327 133.848C106.955 133.656 106.523 133.56 106.031 133.56C105.503 133.56 105.023 133.668 104.591 133.884C104.159 134.088 103.787 134.388 103.475 134.784C103.175 135.168 102.941 135.642 102.773 136.206C102.605 136.758 102.521 137.382 102.521 138.078C102.521 138.786 102.605 139.422 102.773 139.986C102.941 140.55 103.181 141.03 103.493 141.426C103.805 141.822 104.177 142.128 104.609 142.344C105.041 142.548 105.527 142.65 106.067 142.65C106.583 142.65 107.045 142.542 107.453 142.326C107.861 142.11 108.239 141.804 108.587 141.408L109.595 142.506C109.127 143.058 108.587 143.484 107.975 143.784C107.375 144.072 106.679 144.216 105.887 144.216ZM115.852 144V136.638H111.91V135.198H117.634V144H115.852ZM116.59 133.488C116.206 133.488 115.888 133.374 115.636 133.146C115.384 132.906 115.258 132.594 115.258 132.21C115.258 131.826 115.384 131.52 115.636 131.292C115.888 131.052 116.206 130.932 116.59 130.932C116.974 130.932 117.292 131.052 117.544 131.292C117.796 131.52 117.922 131.826 117.922 132.21C117.922 132.594 117.796 132.906 117.544 133.146C117.292 133.374 116.974 133.488 116.59 133.488ZM123.621 144V135.198H125.097L125.241 137.25H125.295C125.751 136.53 126.303 135.972 126.951 135.576C127.611 135.18 128.337 134.982 129.129 134.982C129.477 134.982 129.783 135.012 130.047 135.072C130.311 135.12 130.581 135.21 130.857 135.342L130.461 136.872C130.161 136.776 129.903 136.704 129.687 136.656C129.471 136.608 129.195 136.584 128.859 136.584C128.223 136.584 127.611 136.764 127.023 137.124C126.435 137.484 125.895 138.108 125.403 138.996V144H123.621ZM138.14 144.216C137.456 144.216 136.814 144.114 136.214 143.91C135.626 143.706 135.116 143.406 134.684 143.01C134.252 142.614 133.91 142.134 133.658 141.57C133.418 140.994 133.298 140.34 133.298 139.608C133.298 138.876 133.43 138.222 133.694 137.646C133.958 137.07 134.318 136.584 134.774 136.188C135.23 135.792 135.752 135.492 136.34 135.288C136.94 135.084 137.576 134.982 138.248 134.982C138.968 134.982 139.598 135.108 140.138 135.36C140.678 135.6 141.128 135.894 141.488 136.242L140.624 137.376C140.276 137.088 139.916 136.866 139.544 136.71C139.172 136.542 138.77 136.458 138.338 136.458C137.87 136.458 137.438 136.536 137.042 136.692C136.646 136.836 136.304 137.046 136.016 137.322C135.74 137.598 135.524 137.934 135.368 138.33C135.212 138.714 135.134 139.14 135.134 139.608C135.134 140.076 135.206 140.508 135.35 140.904C135.506 141.288 135.722 141.618 135.998 141.894C136.286 142.17 136.622 142.386 137.006 142.542C137.39 142.686 137.816 142.758 138.284 142.758C138.824 142.758 139.304 142.656 139.724 142.452C140.156 142.248 140.546 142.002 140.894 141.714L141.668 142.866C141.164 143.298 140.612 143.634 140.012 143.874C139.412 144.102 138.788 144.216 138.14 144.216ZM149.995 144.216C149.011 144.216 148.261 143.934 147.745 143.37C147.229 142.806 146.971 141.99 146.971 140.922V132.66H143.947V131.238H148.753V141.03C148.753 141.642 148.903 142.086 149.203 142.362C149.515 142.626 149.917 142.758 150.409 142.758C150.865 142.758 151.393 142.632 151.993 142.38L152.425 143.712C152.005 143.88 151.615 144.006 151.255 144.09C150.907 144.174 150.487 144.216 149.995 144.216ZM159.456 144.216C158.784 144.216 158.16 144.114 157.584 143.91C157.008 143.706 156.504 143.406 156.072 143.01C155.64 142.614 155.298 142.128 155.046 141.552C154.806 140.976 154.686 140.322 154.686 139.59C154.686 138.87 154.812 138.228 155.064 137.664C155.316 137.088 155.646 136.602 156.054 136.206C156.474 135.81 156.954 135.51 157.494 135.306C158.034 135.09 158.598 134.982 159.186 134.982C159.834 134.982 160.41 135.084 160.914 135.288C161.418 135.492 161.838 135.78 162.174 136.152C162.522 136.512 162.786 136.95 162.966 137.466C163.146 137.97 163.236 138.528 163.236 139.14C163.236 139.332 163.23 139.512 163.218 139.68C163.206 139.848 163.188 139.992 163.164 140.112H156.468C156.564 141.024 156.906 141.702 157.494 142.146C158.094 142.59 158.826 142.812 159.69 142.812C160.182 142.812 160.632 142.746 161.04 142.614C161.448 142.47 161.85 142.278 162.246 142.038L162.876 143.172C162.42 143.472 161.904 143.724 161.328 143.928C160.764 144.12 160.14 144.216 159.456 144.216ZM159.24 136.386C158.904 136.386 158.586 136.44 158.286 136.548C157.986 136.644 157.716 136.794 157.476 136.998C157.236 137.202 157.032 137.454 156.864 137.754C156.696 138.054 156.576 138.402 156.504 138.798H161.634C161.574 137.994 161.328 137.394 160.896 136.998C160.476 136.59 159.924 136.386 159.24 136.386ZM165.929 144V142.488H168.809V133.722H165.929V132.21H173.489V133.722H170.609V142.488H173.489V144H165.929ZM176.038 144V135.198H177.442L177.586 136.35H177.622C177.826 135.954 178.078 135.63 178.378 135.378C178.69 135.114 179.098 134.982 179.602 134.982C180.442 134.982 180.982 135.486 181.222 136.494C181.462 136.038 181.732 135.672 182.032 135.396C182.344 135.12 182.752 134.982 183.256 134.982C183.88 134.982 184.36 135.222 184.696 135.702C185.044 136.17 185.218 136.848 185.218 137.736V144H183.472V137.862C183.472 136.962 183.202 136.512 182.662 136.512C182.386 136.512 182.158 136.614 181.978 136.818C181.798 137.022 181.606 137.328 181.402 137.736V144H179.854V137.862C179.854 136.962 179.59 136.512 179.062 136.512C178.786 136.512 178.552 136.614 178.36 136.818C178.168 137.022 177.976 137.328 177.784 137.736V144H176.038ZM190.233 144.216C189.813 144.216 189.417 144.156 189.045 144.036C188.685 143.916 188.373 143.748 188.109 143.532C187.845 143.304 187.635 143.034 187.479 142.722C187.335 142.41 187.263 142.062 187.263 141.678C187.263 141.186 187.377 140.754 187.605 140.382C187.845 140.01 188.211 139.692 188.703 139.428C189.207 139.164 189.849 138.948 190.629 138.78C191.421 138.612 192.369 138.486 193.473 138.402C193.449 137.862 193.269 137.4 192.933 137.016C192.609 136.632 192.057 136.44 191.277 136.44C190.737 136.44 190.209 136.542 189.693 136.746C189.189 136.95 188.721 137.178 188.289 137.43L187.623 136.224C187.863 136.08 188.133 135.936 188.433 135.792C188.733 135.636 189.051 135.498 189.387 135.378C189.735 135.258 190.089 135.162 190.449 135.09C190.821 135.018 191.199 134.982 191.583 134.982C192.807 134.982 193.725 135.312 194.337 135.972C194.949 136.632 195.255 137.544 195.255 138.708V144H193.797L193.653 142.866H193.599C193.131 143.226 192.603 143.544 192.015 143.82C191.439 144.084 190.845 144.216 190.233 144.216ZM190.737 142.794C191.205 142.794 191.661 142.692 192.105 142.488C192.561 142.284 193.017 141.996 193.473 141.624V139.536C192.609 139.608 191.889 139.704 191.313 139.824C190.737 139.932 190.275 140.076 189.927 140.256C189.591 140.424 189.351 140.616 189.207 140.832C189.063 141.048 188.991 141.288 188.991 141.552C188.991 141.996 189.159 142.314 189.495 142.506C189.843 142.698 190.257 142.794 190.737 142.794ZM201.926 147.978C200.666 147.978 199.676 147.774 198.956 147.366C198.248 146.958 197.894 146.364 197.894 145.584C197.894 144.84 198.368 144.204 199.316 143.676V143.604C199.076 143.472 198.866 143.292 198.686 143.064C198.506 142.824 198.416 142.518 198.416 142.146C198.416 141.858 198.506 141.57 198.686 141.282C198.878 140.982 199.136 140.718 199.46 140.49V140.418C199.148 140.19 198.884 139.89 198.668 139.518C198.464 139.134 198.362 138.678 198.362 138.15C198.362 137.658 198.458 137.22 198.65 136.836C198.842 136.44 199.1 136.104 199.424 135.828C199.748 135.552 200.12 135.342 200.54 135.198C200.972 135.054 201.428 134.982 201.908 134.982C202.4 134.982 202.844 135.054 203.24 135.198H206.857V136.602H204.716C204.884 136.794 205.034 137.034 205.166 137.322C205.298 137.598 205.364 137.892 205.364 138.204C205.364 138.684 205.274 139.11 205.094 139.482C204.914 139.854 204.668 140.172 204.356 140.436C204.044 140.688 203.678 140.88 203.258 141.012C202.838 141.144 202.388 141.21 201.908 141.21C201.692 141.21 201.458 141.186 201.206 141.138C200.966 141.09 200.726 141.018 200.486 140.922C200.078 141.186 199.874 141.492 199.874 141.84C199.874 142.452 200.456 142.758 201.62 142.758H203.492C204.644 142.758 205.502 142.92 206.066 143.244C206.63 143.568 206.912 144.108 206.912 144.864C206.912 145.296 206.792 145.698 206.552 146.07C206.324 146.454 205.994 146.784 205.562 147.06C205.13 147.348 204.602 147.57 203.978 147.726C203.366 147.894 202.682 147.978 201.926 147.978ZM201.908 140.058C202.412 140.058 202.844 139.89 203.204 139.554C203.564 139.218 203.744 138.75 203.744 138.15C203.744 137.574 203.564 137.112 203.204 136.764C202.844 136.416 202.412 136.242 201.908 136.242C201.404 136.242 200.966 136.416 200.594 136.764C200.234 137.112 200.054 137.574 200.054 138.15C200.054 138.75 200.234 139.218 200.594 139.554C200.966 139.89 201.404 140.058 201.908 140.058ZM202.106 146.736C202.574 146.736 202.994 146.688 203.366 146.592C203.75 146.508 204.074 146.394 204.338 146.25C204.602 146.106 204.806 145.938 204.95 145.746C205.094 145.566 205.166 145.374 205.166 145.17C205.166 144.786 205.01 144.528 204.698 144.396C204.386 144.264 203.918 144.198 203.294 144.198H201.728C201.451 144.198 201.206 144.186 200.99 144.162C200.774 144.15 200.576 144.114 200.396 144.054C200.024 144.258 199.76 144.468 199.604 144.684C199.46 144.912 199.388 145.14 199.388 145.368C199.388 145.788 199.622 146.118 200.09 146.358C200.558 146.61 201.23 146.736 202.106 146.736ZM213.42 144.216C212.748 144.216 212.124 144.114 211.548 143.91C210.972 143.706 210.468 143.406 210.036 143.01C209.604 142.614 209.262 142.128 209.01 141.552C208.77 140.976 208.65 140.322 208.65 139.59C208.65 138.87 208.776 138.228 209.028 137.664C209.28 137.088 209.61 136.602 210.018 136.206C210.438 135.81 210.918 135.51 211.458 135.306C211.998 135.09 212.562 134.982 213.15 134.982C213.798 134.982 214.374 135.084 214.878 135.288C215.382 135.492 215.802 135.78 216.138 136.152C216.486 136.512 216.75 136.95 216.93 137.466C217.11 137.97 217.2 138.528 217.2 139.14C217.2 139.332 217.194 139.512 217.182 139.68C217.17 139.848 217.152 139.992 217.128 140.112H210.432C210.528 141.024 210.87 141.702 211.458 142.146C212.058 142.59 212.79 142.812 213.654 142.812C214.146 142.812 214.596 142.746 215.004 142.614C215.412 142.47 215.814 142.278 216.21 142.038L216.84 143.172C216.384 143.472 215.868 143.724 215.292 143.928C214.728 144.12 214.104 144.216 213.42 144.216ZM213.204 136.386C212.868 136.386 212.55 136.44 212.25 136.548C211.95 136.644 211.68 136.794 211.44 136.998C211.2 137.202 210.996 137.454 210.828 137.754C210.66 138.054 210.54 138.402 210.468 138.798H215.598C215.538 137.994 215.292 137.394 214.86 136.998C214.44 136.59 213.888 136.386 213.204 136.386ZM223.673 137.934C223.217 137.934 222.833 137.784 222.521 137.484C222.209 137.172 222.053 136.764 222.053 136.26C222.053 135.768 222.209 135.366 222.521 135.054C222.833 134.742 223.217 134.586 223.673 134.586C224.129 134.586 224.513 134.742 224.825 135.054C225.137 135.366 225.293 135.768 225.293 136.26C225.293 136.764 225.137 137.172 224.825 137.484C224.513 137.784 224.129 137.934 223.673 137.934ZM223.673 144.216C223.217 144.216 222.833 144.066 222.521 143.766C222.209 143.454 222.053 143.046 222.053 142.542C222.053 142.05 222.209 141.648 222.521 141.336C222.833 141.024 223.217 140.868 223.673 140.868C224.129 140.868 224.513 141.024 224.825 141.336C225.137 141.648 225.293 142.05 225.293 142.542C225.293 143.046 225.137 143.454 224.825 143.766C224.513 144.066 224.129 144.216 223.673 144.216ZM244.215 144L240.489 132.21H242.397L244.179 138.348C244.383 139.032 244.563 139.68 244.719 140.292C244.875 140.892 245.055 141.534 245.259 142.218H245.331C245.547 141.534 245.733 140.892 245.889 140.292C246.045 139.68 246.225 139.032 246.429 138.348L248.193 132.21H250.029L246.321 144H244.215ZM256.16 144V136.638H252.218V135.198H257.942V144H256.16ZM256.898 133.488C256.514 133.488 256.196 133.374 255.944 133.146C255.692 132.906 255.566 132.594 255.566 132.21C255.566 131.826 255.692 131.52 255.944 131.292C256.196 131.052 256.514 130.932 256.898 130.932C257.282 130.932 257.6 131.052 257.852 131.292C258.104 131.52 258.23 131.826 258.23 132.21C258.23 132.594 258.104 132.906 257.852 133.146C257.6 133.374 257.282 133.488 256.898 133.488ZM267.385 144.216C266.713 144.216 266.089 144.114 265.513 143.91C264.937 143.706 264.433 143.406 264.001 143.01C263.569 142.614 263.227 142.128 262.975 141.552C262.735 140.976 262.615 140.322 262.615 139.59C262.615 138.87 262.741 138.228 262.993 137.664C263.245 137.088 263.575 136.602 263.983 136.206C264.403 135.81 264.883 135.51 265.423 135.306C265.963 135.09 266.527 134.982 267.115 134.982C267.763 134.982 268.339 135.084 268.843 135.288C269.347 135.492 269.767 135.78 270.103 136.152C270.451 136.512 270.715 136.95 270.895 137.466C271.075 137.97 271.165 138.528 271.165 139.14C271.165 139.332 271.159 139.512 271.147 139.68C271.135 139.848 271.117 139.992 271.093 140.112H264.397C264.493 141.024 264.835 141.702 265.423 142.146C266.023 142.59 266.755 142.812 267.619 142.812C268.111 142.812 268.561 142.746 268.969 142.614C269.377 142.47 269.779 142.278 270.175 142.038L270.805 143.172C270.349 143.472 269.833 143.724 269.257 143.928C268.693 144.12 268.069 144.216 267.385 144.216ZM267.169 136.386C266.833 136.386 266.515 136.44 266.215 136.548C265.915 136.644 265.645 136.794 265.405 136.998C265.165 137.202 264.961 137.454 264.793 137.754C264.625 138.054 264.505 138.402 264.433 138.798H269.563C269.503 137.994 269.257 137.394 268.825 136.998C268.405 136.59 267.853 136.386 267.169 136.386ZM274.164 144L272.364 135.198H274.128L275.028 140.04C275.112 140.46 275.178 140.874 275.226 141.282C275.286 141.678 275.346 142.086 275.406 142.506H275.478C275.538 142.086 275.604 141.678 275.676 141.282C275.76 140.874 275.85 140.46 275.946 140.04L276.9 135.918H278.484L279.42 140.04C279.516 140.46 279.606 140.874 279.69 141.282C279.786 141.678 279.864 142.086 279.924 142.506H279.996C280.068 142.086 280.128 141.678 280.176 141.282C280.224 140.874 280.284 140.46 280.356 140.04L281.256 135.198H282.912L281.166 144H278.952L278.088 140.148C278.016 139.824 277.944 139.446 277.872 139.014C277.8 138.582 277.734 138.096 277.674 137.556H277.602C277.542 138.06 277.476 138.528 277.404 138.96C277.344 139.38 277.278 139.776 277.206 140.148L276.36 144H274.164ZM301.654 146.736C301.09 146.736 300.598 146.694 300.178 146.61C299.758 146.538 299.41 146.406 299.134 146.214C298.858 146.034 298.654 145.782 298.522 145.458C298.39 145.146 298.324 144.756 298.324 144.288C298.324 143.964 298.33 143.664 298.342 143.388C298.366 143.112 298.384 142.842 298.396 142.578C298.42 142.314 298.438 142.05 298.45 141.786C298.474 141.51 298.486 141.222 298.486 140.922C298.486 140.754 298.45 140.586 298.378 140.418C298.306 140.25 298.174 140.106 297.982 139.986C297.79 139.854 297.526 139.746 297.19 139.662C296.854 139.578 296.428 139.536 295.912 139.536V138.456C296.428 138.456 296.854 138.414 297.19 138.33C297.526 138.246 297.79 138.144 297.982 138.024C298.174 137.892 298.306 137.742 298.378 137.574C298.45 137.406 298.486 137.238 298.486 137.07C298.486 136.494 298.456 135.948 298.396 135.432C298.348 134.904 298.324 134.328 298.324 133.704C298.324 133.236 298.39 132.846 298.522 132.534C298.654 132.21 298.858 131.958 299.134 131.778C299.41 131.586 299.758 131.454 300.178 131.382C300.598 131.298 301.09 131.256 301.654 131.256H302.824V132.246H301.942C301.51 132.246 301.156 132.276 300.88 132.336C300.604 132.384 300.388 132.474 300.232 132.606C300.076 132.726 299.968 132.882 299.908 133.074C299.848 133.266 299.818 133.506 299.818 133.794C299.818 134.298 299.836 134.814 299.872 135.342C299.908 135.87 299.926 136.41 299.926 136.962C299.926 137.574 299.8 138.036 299.548 138.348C299.308 138.648 298.87 138.852 298.234 138.96V139.032C298.87 139.14 299.308 139.35 299.548 139.662C299.8 139.962 299.926 140.418 299.926 141.03C299.926 141.63 299.908 142.176 299.872 142.668C299.836 143.148 299.818 143.658 299.818 144.198C299.818 144.486 299.848 144.726 299.908 144.918C299.968 145.11 300.076 145.266 300.232 145.386C300.388 145.518 300.604 145.608 300.88 145.656C301.156 145.716 301.51 145.746 301.942 145.746H302.824V146.736H301.654ZM60.8069 167L57.2069 158.198H59.0069L60.8609 162.986C61.0289 163.43 61.1849 163.868 61.3289 164.3C61.4849 164.732 61.6409 165.164 61.7969 165.596H61.8689C62.0249 165.164 62.1749 164.732 62.3189 164.3C62.4629 163.868 62.6189 163.43 62.7869 162.986L64.6409 158.198H66.3509L62.8229 167H60.8069ZM71.5099 167.216C71.0899 167.216 70.6939 167.156 70.3219 167.036C69.9619 166.916 69.6499 166.748 69.3859 166.532C69.1219 166.304 68.9119 166.034 68.7559 165.722C68.6119 165.41 68.5399 165.062 68.5399 164.678C68.5399 164.186 68.6539 163.754 68.8819 163.382C69.1219 163.01 69.4879 162.692 69.9799 162.428C70.4839 162.164 71.1259 161.948 71.9059 161.78C72.6979 161.612 73.6459 161.486 74.7499 161.402C74.7259 160.862 74.5459 160.4 74.2099 160.016C73.8859 159.632 73.3339 159.44 72.5539 159.44C72.0139 159.44 71.4859 159.542 70.9699 159.746C70.4659 159.95 69.9979 160.178 69.5659 160.43L68.8999 159.224C69.1399 159.08 69.4099 158.936 69.7099 158.792C70.0099 158.636 70.3279 158.498 70.6639 158.378C71.0119 158.258 71.3659 158.162 71.7259 158.09C72.0979 158.018 72.4759 157.982 72.8599 157.982C74.0839 157.982 75.0019 158.312 75.6139 158.972C76.2259 159.632 76.5319 160.544 76.5319 161.708V167H75.0739L74.9299 165.866H74.8759C74.4079 166.226 73.8799 166.544 73.2919 166.82C72.7159 167.084 72.1219 167.216 71.5099 167.216ZM72.0139 165.794C72.4819 165.794 72.9379 165.692 73.3819 165.488C73.8379 165.284 74.2939 164.996 74.7499 164.624V162.536C73.8859 162.608 73.1659 162.704 72.5899 162.824C72.0139 162.932 71.5519 163.076 71.2039 163.256C70.8679 163.424 70.6279 163.616 70.4839 163.832C70.3399 164.048 70.2679 164.288 70.2679 164.552C70.2679 164.996 70.4359 165.314 70.7719 165.506C71.1199 165.698 71.5339 165.794 72.0139 165.794ZM80.4488 167V158.198H81.9248L82.0688 160.25H82.1228C82.5788 159.53 83.1308 158.972 83.7788 158.576C84.4388 158.18 85.1648 157.982 85.9568 157.982C86.3048 157.982 86.6108 158.012 86.8748 158.072C87.1388 158.12 87.4088 158.21 87.6848 158.342L87.2888 159.872C86.9888 159.776 86.7308 159.704 86.5148 159.656C86.2988 159.608 86.0228 159.584 85.6868 159.584C85.0508 159.584 84.4388 159.764 83.8508 160.124C83.2628 160.484 82.7228 161.108 82.2308 161.996V167H80.4488ZM148.123 160.934C147.667 160.934 147.283 160.784 146.971 160.484C146.659 160.172 146.503 159.764 146.503 159.26C146.503 158.768 146.659 158.366 146.971 158.054C147.283 157.742 147.667 157.586 148.123 157.586C148.579 157.586 148.963 157.742 149.275 158.054C149.587 158.366 149.743 158.768 149.743 159.26C149.743 159.764 149.587 160.172 149.275 160.484C148.963 160.784 148.579 160.934 148.123 160.934ZM148.123 167.216C147.667 167.216 147.283 167.066 146.971 166.766C146.659 166.454 146.503 166.046 146.503 165.542C146.503 165.05 146.659 164.648 146.971 164.336C147.283 164.024 147.667 163.868 148.123 163.868C148.579 163.868 148.963 164.024 149.275 164.336C149.587 164.648 149.743 165.05 149.743 165.542C149.743 166.046 149.587 166.454 149.275 166.766C148.963 167.066 148.579 167.216 148.123 167.216ZM222.629 167L218.903 155.21H220.811L222.593 161.348C222.797 162.032 222.977 162.68 223.133 163.292C223.289 163.892 223.469 164.534 223.673 165.218H223.745C223.961 164.534 224.147 163.892 224.303 163.292C224.459 162.68 224.639 162.032 224.843 161.348L226.607 155.21H228.443L224.735 167H222.629ZM234.574 167V159.638H230.632V158.198H236.356V167H234.574ZM235.312 156.488C234.928 156.488 234.61 156.374 234.358 156.146C234.106 155.906 233.98 155.594 233.98 155.21C233.98 154.826 234.106 154.52 234.358 154.292C234.61 154.052 234.928 153.932 235.312 153.932C235.696 153.932 236.014 154.052 236.266 154.292C236.518 154.52 236.644 154.826 236.644 155.21C236.644 155.594 236.518 155.906 236.266 156.146C236.014 156.374 235.696 156.488 235.312 156.488ZM245.799 167.216C245.127 167.216 244.503 167.114 243.927 166.91C243.351 166.706 242.847 166.406 242.415 166.01C241.983 165.614 241.641 165.128 241.389 164.552C241.149 163.976 241.029 163.322 241.029 162.59C241.029 161.87 241.155 161.228 241.407 160.664C241.659 160.088 241.989 159.602 242.397 159.206C242.817 158.81 243.297 158.51 243.837 158.306C244.377 158.09 244.941 157.982 245.529 157.982C246.177 157.982 246.753 158.084 247.257 158.288C247.761 158.492 248.181 158.78 248.517 159.152C248.865 159.512 249.129 159.95 249.309 160.466C249.489 160.97 249.579 161.528 249.579 162.14C249.579 162.332 249.573 162.512 249.561 162.68C249.549 162.848 249.531 162.992 249.507 163.112H242.811C242.907 164.024 243.249 164.702 243.837 165.146C244.437 165.59 245.169 165.812 246.033 165.812C246.525 165.812 246.975 165.746 247.383 165.614C247.791 165.47 248.193 165.278 248.589 165.038L249.219 166.172C248.763 166.472 248.247 166.724 247.671 166.928C247.107 167.12 246.483 167.216 245.799 167.216ZM245.583 159.386C245.247 159.386 244.929 159.44 244.629 159.548C244.329 159.644 244.059 159.794 243.819 159.998C243.579 160.202 243.375 160.454 243.207 160.754C243.039 161.054 242.919 161.402 242.847 161.798H247.977C247.917 160.994 247.671 160.394 247.239 159.998C246.819 159.59 246.267 159.386 245.583 159.386ZM252.578 167L250.778 158.198H252.542L253.442 163.04C253.526 163.46 253.592 163.874 253.64 164.282C253.7 164.678 253.76 165.086 253.82 165.506H253.892C253.952 165.086 254.018 164.678 254.09 164.282C254.174 163.874 254.264 163.46 254.36 163.04L255.314 158.918H256.898L257.834 163.04C257.93 163.46 258.02 163.874 258.104 164.282C258.2 164.678 258.278 165.086 258.338 165.506H258.41C258.482 165.086 258.542 164.678 258.59 164.282C258.638 163.874 258.698 163.46 258.77 163.04L259.67 158.198H261.326L259.58 167H257.366L256.502 163.148C256.43 162.824 256.358 162.446 256.286 162.014C256.214 161.582 256.148 161.096 256.088 160.556H256.016C255.956 161.06 255.89 161.528 255.818 161.96C255.758 162.38 255.692 162.776 255.62 163.148L254.774 167H252.578ZM280.068 169.736C279.504 169.736 279.012 169.694 278.592 169.61C278.172 169.538 277.824 169.406 277.548 169.214C277.272 169.034 277.068 168.782 276.936 168.458C276.804 168.146 276.738 167.756 276.738 167.288C276.738 166.964 276.744 166.664 276.756 166.388C276.78 166.112 276.798 165.842 276.81 165.578C276.834 165.314 276.852 165.05 276.864 164.786C276.888 164.51 276.9 164.222 276.9 163.922C276.9 163.754 276.864 163.586 276.792 163.418C276.72 163.25 276.588 163.106 276.396 162.986C276.204 162.854 275.94 162.746 275.604 162.662C275.268 162.578 274.842 162.536 274.326 162.536V161.456C274.842 161.456 275.268 161.414 275.604 161.33C275.94 161.246 276.204 161.144 276.396 161.024C276.588 160.892 276.72 160.742 276.792 160.574C276.864 160.406 276.9 160.238 276.9 160.07C276.9 159.494 276.87 158.948 276.81 158.432C276.762 157.904 276.738 157.328 276.738 156.704C276.738 156.236 276.804 155.846 276.936 155.534C277.068 155.21 277.272 154.958 277.548 154.778C277.824 154.586 278.172 154.454 278.592 154.382C279.012 154.298 279.504 154.256 280.068 154.256H281.238V155.246H280.356C279.924 155.246 279.57 155.276 279.294 155.336C279.018 155.384 278.802 155.474 278.646 155.606C278.49 155.726 278.382 155.882 278.322 156.074C278.262 156.266 278.232 156.506 278.232 156.794C278.232 157.298 278.25 157.814 278.286 158.342C278.322 158.87 278.34 159.41 278.34 159.962C278.34 160.574 278.214 161.036 277.962 161.348C277.722 161.648 277.284 161.852 276.648 161.96V162.032C277.284 162.14 277.722 162.35 277.962 162.662C278.214 162.962 278.34 163.418 278.34 164.03C278.34 164.63 278.322 165.176 278.286 165.668C278.25 166.148 278.232 166.658 278.232 167.198C278.232 167.486 278.262 167.726 278.322 167.918C278.382 168.11 278.49 168.266 278.646 168.386C278.802 168.518 279.018 168.608 279.294 168.656C279.57 168.716 279.924 168.746 280.356 168.746H281.238V169.736H280.068ZM90.3778 190V188.488H93.2578V179.722H90.3778V178.21H97.9378V179.722H95.0578V188.488H97.9378V190H90.3778ZM100.487 190V181.198H101.891L102.035 182.35H102.071C102.275 181.954 102.527 181.63 102.827 181.378C103.139 181.114 103.547 180.982 104.051 180.982C104.891 180.982 105.431 181.486 105.671 182.494C105.911 182.038 106.181 181.672 106.481 181.396C106.793 181.12 107.201 180.982 107.705 180.982C108.329 180.982 108.809 181.222 109.145 181.702C109.493 182.17 109.667 182.848 109.667 183.736V190H107.921V183.862C107.921 182.962 107.651 182.512 107.111 182.512C106.835 182.512 106.607 182.614 106.427 182.818C106.247 183.022 106.055 183.328 105.851 183.736V190H104.303V183.862C104.303 182.962 104.039 182.512 103.511 182.512C103.235 182.512 103.001 182.614 102.809 182.818C102.617 183.022 102.425 183.328 102.233 183.736V190H100.487ZM114.682 190.216C114.262 190.216 113.866 190.156 113.494 190.036C113.134 189.916 112.822 189.748 112.558 189.532C112.294 189.304 112.084 189.034 111.928 188.722C111.784 188.41 111.712 188.062 111.712 187.678C111.712 187.186 111.826 186.754 112.054 186.382C112.294 186.01 112.66 185.692 113.152 185.428C113.656 185.164 114.298 184.948 115.078 184.78C115.87 184.612 116.818 184.486 117.922 184.402C117.898 183.862 117.718 183.4 117.382 183.016C117.058 182.632 116.506 182.44 115.726 182.44C115.186 182.44 114.658 182.542 114.142 182.746C113.638 182.95 113.17 183.178 112.738 183.43L112.072 182.224C112.312 182.08 112.582 181.936 112.882 181.792C113.182 181.636 113.5 181.498 113.836 181.378C114.184 181.258 114.538 181.162 114.898 181.09C115.27 181.018 115.648 180.982 116.032 180.982C117.256 180.982 118.174 181.312 118.786 181.972C119.398 182.632 119.704 183.544 119.704 184.708V190H118.246L118.102 188.866H118.048C117.58 189.226 117.052 189.544 116.464 189.82C115.888 190.084 115.294 190.216 114.682 190.216ZM115.186 188.794C115.654 188.794 116.11 188.692 116.554 188.488C117.01 188.284 117.466 187.996 117.922 187.624V185.536C117.058 185.608 116.338 185.704 115.762 185.824C115.186 185.932 114.724 186.076 114.376 186.256C114.04 186.424 113.8 186.616 113.656 186.832C113.512 187.048 113.44 187.288 113.44 187.552C113.44 187.996 113.608 188.314 113.944 188.506C114.292 188.698 114.706 188.794 115.186 188.794ZM126.375 193.978C125.115 193.978 124.125 193.774 123.405 193.366C122.697 192.958 122.343 192.364 122.343 191.584C122.343 190.84 122.817 190.204 123.765 189.676V189.604C123.525 189.472 123.315 189.292 123.135 189.064C122.955 188.824 122.865 188.518 122.865 188.146C122.865 187.858 122.955 187.57 123.135 187.282C123.327 186.982 123.585 186.718 123.909 186.49V186.418C123.597 186.19 123.333 185.89 123.117 185.518C122.913 185.134 122.811 184.678 122.811 184.15C122.811 183.658 122.907 183.22 123.099 182.836C123.291 182.44 123.549 182.104 123.873 181.828C124.197 181.552 124.569 181.342 124.989 181.198C125.421 181.054 125.877 180.982 126.357 180.982C126.849 180.982 127.293 181.054 127.689 181.198H131.307V182.602H129.165C129.333 182.794 129.483 183.034 129.615 183.322C129.747 183.598 129.813 183.892 129.813 184.204C129.813 184.684 129.723 185.11 129.543 185.482C129.363 185.854 129.117 186.172 128.805 186.436C128.493 186.688 128.127 186.88 127.707 187.012C127.287 187.144 126.837 187.21 126.357 187.21C126.141 187.21 125.907 187.186 125.655 187.138C125.415 187.09 125.175 187.018 124.935 186.922C124.527 187.186 124.323 187.492 124.323 187.84C124.323 188.452 124.905 188.758 126.069 188.758H127.941C129.093 188.758 129.951 188.92 130.515 189.244C131.079 189.568 131.361 190.108 131.361 190.864C131.361 191.296 131.241 191.698 131.001 192.07C130.773 192.454 130.443 192.784 130.011 193.06C129.579 193.348 129.051 193.57 128.427 193.726C127.815 193.894 127.131 193.978 126.375 193.978ZM126.357 186.058C126.861 186.058 127.293 185.89 127.653 185.554C128.013 185.218 128.193 184.75 128.193 184.15C128.193 183.574 128.013 183.112 127.653 182.764C127.293 182.416 126.861 182.242 126.357 182.242C125.853 182.242 125.415 182.416 125.043 182.764C124.683 183.112 124.503 183.574 124.503 184.15C124.503 184.75 124.683 185.218 125.043 185.554C125.415 185.89 125.853 186.058 126.357 186.058ZM126.555 192.736C127.023 192.736 127.443 192.688 127.815 192.592C128.199 192.508 128.523 192.394 128.787 192.25C129.051 192.106 129.255 191.938 129.399 191.746C129.543 191.566 129.615 191.374 129.615 191.17C129.615 190.786 129.459 190.528 129.147 190.396C128.835 190.264 128.367 190.198 127.743 190.198H126.177C125.901 190.198 125.655 190.186 125.439 190.162C125.223 190.15 125.025 190.114 124.845 190.054C124.473 190.258 124.209 190.468 124.053 190.684C123.909 190.912 123.837 191.14 123.837 191.368C123.837 191.788 124.071 192.118 124.539 192.358C125.007 192.61 125.679 192.736 126.555 192.736ZM137.87 190.216C137.198 190.216 136.574 190.114 135.998 189.91C135.422 189.706 134.918 189.406 134.486 189.01C134.054 188.614 133.712 188.128 133.46 187.552C133.22 186.976 133.1 186.322 133.1 185.59C133.1 184.87 133.226 184.228 133.478 183.664C133.73 183.088 134.06 182.602 134.468 182.206C134.888 181.81 135.368 181.51 135.908 181.306C136.448 181.09 137.012 180.982 137.6 180.982C138.248 180.982 138.824 181.084 139.328 181.288C139.832 181.492 140.252 181.78 140.588 182.152C140.936 182.512 141.2 182.95 141.38 183.466C141.56 183.97 141.65 184.528 141.65 185.14C141.65 185.332 141.644 185.512 141.632 185.68C141.62 185.848 141.602 185.992 141.578 186.112H134.882C134.978 187.024 135.32 187.702 135.908 188.146C136.508 188.59 137.24 188.812 138.104 188.812C138.596 188.812 139.046 188.746 139.454 188.614C139.862 188.47 140.264 188.278 140.66 188.038L141.29 189.172C140.834 189.472 140.318 189.724 139.742 189.928C139.178 190.12 138.554 190.216 137.87 190.216ZM137.654 182.386C137.318 182.386 137 182.44 136.7 182.548C136.4 182.644 136.13 182.794 135.89 182.998C135.65 183.202 135.446 183.454 135.278 183.754C135.11 184.054 134.99 184.402 134.918 184.798H140.048C139.988 183.994 139.742 183.394 139.31 182.998C138.89 182.59 138.338 182.386 137.654 182.386ZM161.112 193.168C159.876 192.184 158.904 191.014 158.196 189.658C157.488 188.29 157.134 186.736 157.134 184.996C157.134 183.256 157.488 181.708 158.196 180.352C158.904 178.984 159.876 177.808 161.112 176.824L162.102 177.67C160.926 178.702 160.062 179.812 159.51 181C158.958 182.176 158.682 183.508 158.682 184.996C158.682 186.484 158.958 187.822 159.51 189.01C160.062 190.198 160.926 191.302 162.102 192.322L161.112 193.168ZM318.614 193.168L317.624 192.322C318.788 191.302 319.646 190.198 320.198 189.01C320.762 187.822 321.044 186.484 321.044 184.996C321.044 183.508 320.762 182.176 320.198 181C319.646 179.812 318.788 178.702 317.624 177.67L318.614 176.824C319.85 177.808 320.822 178.984 321.53 180.352C322.238 181.708 322.592 183.256 322.592 184.996C322.592 186.736 322.238 188.29 321.53 189.658C320.822 191.014 319.85 192.184 318.614 193.168ZM126.537 213.216C126.081 213.216 125.697 213.066 125.385 212.766C125.073 212.454 124.917 212.046 124.917 211.542C124.917 211.05 125.073 210.648 125.385 210.336C125.697 210.024 126.081 209.868 126.537 209.868C126.993 209.868 127.377 210.024 127.689 210.336C128.001 210.648 128.157 211.05 128.157 211.542C128.157 212.046 128.001 212.454 127.689 212.766C127.377 213.066 126.993 213.216 126.537 213.216ZM236.662 216.168C235.426 215.184 234.454 214.014 233.746 212.658C233.038 211.29 232.684 209.736 232.684 207.996C232.684 206.256 233.038 204.708 233.746 203.352C234.454 201.984 235.426 200.808 236.662 199.824L237.652 200.67C236.476 201.702 235.612 202.812 235.06 204C234.508 205.176 234.232 206.508 234.232 207.996C234.232 209.484 234.508 210.822 235.06 212.01C235.612 213.198 236.476 214.302 237.652 215.322L236.662 216.168ZM246.195 213.216C245.463 213.216 244.779 213.084 244.143 212.82C243.507 212.544 242.955 212.148 242.487 211.632C242.019 211.104 241.647 210.468 241.371 209.724C241.107 208.968 240.975 208.104 240.975 207.132C240.975 206.172 241.107 205.314 241.371 204.558C241.647 203.802 242.019 203.16 242.487 202.632C242.967 202.104 243.531 201.702 244.179 201.426C244.839 201.138 245.559 200.994 246.339 200.994C247.059 200.994 247.701 201.144 248.265 201.444C248.829 201.732 249.291 202.068 249.651 202.452L248.643 203.586C248.343 203.274 248.007 203.028 247.635 202.848C247.263 202.656 246.831 202.56 246.339 202.56C245.811 202.56 245.331 202.668 244.899 202.884C244.467 203.088 244.095 203.388 243.783 203.784C243.483 204.168 243.249 204.642 243.081 205.206C242.913 205.758 242.829 206.382 242.829 207.078C242.829 207.786 242.913 208.422 243.081 208.986C243.249 209.55 243.489 210.03 243.801 210.426C244.113 210.822 244.485 211.128 244.917 211.344C245.349 211.548 245.835 211.65 246.375 211.65C246.891 211.65 247.353 211.542 247.761 211.326C248.169 211.11 248.547 210.804 248.895 210.408L249.903 211.506C249.435 212.058 248.895 212.484 248.283 212.784C247.683 213.072 246.987 213.216 246.195 213.216ZM256.16 213V205.638H252.218V204.198H257.942V213H256.16ZM256.898 202.488C256.514 202.488 256.196 202.374 255.944 202.146C255.692 201.906 255.566 201.594 255.566 201.21C255.566 200.826 255.692 200.52 255.944 200.292C256.196 200.052 256.514 199.932 256.898 199.932C257.282 199.932 257.6 200.052 257.852 200.292C258.104 200.52 258.23 200.826 258.23 201.21C258.23 201.594 258.104 201.906 257.852 202.146C257.6 202.374 257.282 202.488 256.898 202.488ZM263.929 213V204.198H265.405L265.549 206.25H265.603C266.059 205.53 266.611 204.972 267.259 204.576C267.919 204.18 268.645 203.982 269.437 203.982C269.785 203.982 270.091 204.012 270.355 204.072C270.619 204.12 270.889 204.21 271.165 204.342L270.769 205.872C270.469 205.776 270.211 205.704 269.995 205.656C269.779 205.608 269.503 205.584 269.167 205.584C268.531 205.584 267.919 205.764 267.331 206.124C266.743 206.484 266.203 207.108 265.711 207.996V213H263.929ZM278.448 213.216C277.764 213.216 277.122 213.114 276.522 212.91C275.934 212.706 275.424 212.406 274.992 212.01C274.56 211.614 274.218 211.134 273.966 210.57C273.726 209.994 273.606 209.34 273.606 208.608C273.606 207.876 273.738 207.222 274.002 206.646C274.266 206.07 274.626 205.584 275.082 205.188C275.538 204.792 276.06 204.492 276.648 204.288C277.248 204.084 277.884 203.982 278.556 203.982C279.276 203.982 279.906 204.108 280.446 204.36C280.986 204.6 281.436 204.894 281.796 205.242L280.932 206.376C280.584 206.088 280.224 205.866 279.852 205.71C279.48 205.542 279.078 205.458 278.646 205.458C278.178 205.458 277.746 205.536 277.35 205.692C276.954 205.836 276.612 206.046 276.324 206.322C276.048 206.598 275.832 206.934 275.676 207.33C275.52 207.714 275.442 208.14 275.442 208.608C275.442 209.076 275.514 209.508 275.658 209.904C275.814 210.288 276.03 210.618 276.306 210.894C276.594 211.17 276.93 211.386 277.314 211.542C277.698 211.686 278.124 211.758 278.592 211.758C279.132 211.758 279.612 211.656 280.032 211.452C280.464 211.248 280.854 211.002 281.202 210.714L281.976 211.866C281.472 212.298 280.92 212.634 280.32 212.874C279.72 213.102 279.096 213.216 278.448 213.216ZM290.303 213.216C289.319 213.216 288.569 212.934 288.053 212.37C287.537 211.806 287.279 210.99 287.279 209.922V201.66H284.255V200.238H289.061V210.03C289.061 210.642 289.211 211.086 289.511 211.362C289.823 211.626 290.225 211.758 290.717 211.758C291.173 211.758 291.701 211.632 292.301 211.38L292.733 212.712C292.313 212.88 291.923 213.006 291.563 213.09C291.215 213.174 290.795 213.216 290.303 213.216ZM299.764 213.216C299.092 213.216 298.468 213.114 297.892 212.91C297.316 212.706 296.812 212.406 296.38 212.01C295.948 211.614 295.606 211.128 295.354 210.552C295.114 209.976 294.994 209.322 294.994 208.59C294.994 207.87 295.12 207.228 295.372 206.664C295.624 206.088 295.954 205.602 296.362 205.206C296.782 204.81 297.262 204.51 297.802 204.306C298.342 204.09 298.906 203.982 299.494 203.982C300.142 203.982 300.718 204.084 301.222 204.288C301.726 204.492 302.146 204.78 302.482 205.152C302.83 205.512 303.094 205.95 303.274 206.466C303.454 206.97 303.544 207.528 303.544 208.14C303.544 208.332 303.538 208.512 303.526 208.68C303.514 208.848 303.496 208.992 303.472 209.112H296.776C296.872 210.024 297.214 210.702 297.802 211.146C298.402 211.59 299.134 211.812 299.998 211.812C300.49 211.812 300.94 211.746 301.348 211.614C301.756 211.47 302.158 211.278 302.554 211.038L303.184 212.172C302.728 212.472 302.212 212.724 301.636 212.928C301.072 213.12 300.448 213.216 299.764 213.216ZM299.548 205.386C299.212 205.386 298.894 205.44 298.594 205.548C298.294 205.644 298.024 205.794 297.784 205.998C297.544 206.202 297.34 206.454 297.172 206.754C297.004 207.054 296.884 207.402 296.812 207.798H301.942C301.882 206.994 301.636 206.394 301.204 205.998C300.784 205.59 300.232 205.386 299.548 205.386ZM312.213 216.168C310.977 215.184 310.005 214.014 309.297 212.658C308.589 211.29 308.235 209.736 308.235 207.996C308.235 206.256 308.589 204.708 309.297 203.352C310.005 201.984 310.977 200.808 312.213 199.824L313.203 200.67C312.027 201.702 311.163 202.812 310.611 204C310.059 205.176 309.783 206.508 309.783 207.996C309.783 209.484 310.059 210.822 310.611 212.01C311.163 213.198 312.027 214.302 313.203 215.322L312.213 216.168ZM318.614 216.168L317.624 215.322C318.788 214.302 319.646 213.198 320.198 212.01C320.762 210.822 321.044 209.484 321.044 207.996C321.044 206.508 320.762 205.176 320.198 204C319.646 202.812 318.788 201.702 317.624 200.67L318.614 199.824C319.85 200.808 320.822 201.984 321.53 203.352C322.238 204.708 322.592 206.256 322.592 207.996C322.592 209.736 322.238 211.29 321.53 212.658C320.822 214.014 319.85 215.184 318.614 216.168ZM329.407 216.168L328.417 215.322C329.581 214.302 330.439 213.198 330.991 212.01C331.555 210.822 331.837 209.484 331.837 207.996C331.837 206.508 331.555 205.176 330.991 204C330.439 202.812 329.581 201.702 328.417 200.67L329.407 199.824C330.643 200.808 331.615 201.984 332.323 203.352C333.031 204.708 333.385 206.256 333.385 207.996C333.385 209.736 333.031 211.29 332.323 212.658C331.615 214.014 330.643 215.184 329.407 216.168ZM58.1789 238.736V237.746H59.0609C59.4929 237.746 59.8469 237.716 60.1229 237.656C60.4109 237.608 60.6329 237.518 60.7889 237.386C60.9449 237.266 61.0529 237.11 61.1129 236.918C61.1729 236.726 61.2029 236.486 61.2029 236.198C61.2029 235.658 61.1849 235.148 61.1489 234.668C61.1129 234.176 61.0949 233.63 61.0949 233.03C61.0949 232.418 61.2149 231.962 61.4549 231.662C61.6949 231.35 62.1329 231.14 62.7689 231.032V230.96C62.1329 230.852 61.6949 230.648 61.4549 230.348C61.2149 230.036 61.0949 229.574 61.0949 228.962C61.0949 228.41 61.1129 227.87 61.1489 227.342C61.1849 226.814 61.2029 226.298 61.2029 225.794C61.2029 225.506 61.1729 225.266 61.1129 225.074C61.0529 224.882 60.9449 224.726 60.7889 224.606C60.6329 224.474 60.4109 224.384 60.1229 224.336C59.8469 224.276 59.4929 224.246 59.0609 224.246H58.1789V223.256H59.3489C59.9249 223.256 60.4169 223.298 60.8249 223.382C61.2449 223.454 61.5929 223.586 61.8689 223.778C62.1449 223.958 62.3489 224.21 62.4809 224.534C62.6129 224.846 62.6789 225.236 62.6789 225.704C62.6789 226.328 62.6489 226.904 62.5889 227.432C62.5409 227.948 62.5169 228.494 62.5169 229.07C62.5169 229.238 62.5529 229.406 62.6249 229.574C62.6969 229.742 62.8289 229.892 63.0209 230.024C63.2129 230.144 63.4709 230.246 63.7949 230.33C64.1309 230.414 64.5629 230.456 65.0909 230.456V231.536C64.5629 231.536 64.1309 231.578 63.7949 231.662C63.4709 231.746 63.2129 231.854 63.0209 231.986C62.8289 232.106 62.6969 232.25 62.6249 232.418C62.5529 232.586 62.5169 232.754 62.5169 232.922C62.5169 233.222 62.5229 233.51 62.5349 233.786C62.5589 234.05 62.5769 234.314 62.5889 234.578C62.6129 234.842 62.6309 235.112 62.6429 235.388C62.6669 235.664 62.6789 235.964 62.6789 236.288C62.6789 236.756 62.6129 237.146 62.4809 237.458C62.3489 237.782 62.1449 238.034 61.8689 238.214C61.5929 238.406 61.2449 238.538 60.8249 238.61C60.4169 238.694 59.9249 238.736 59.3489 238.736H58.1789ZM25.8 261.736V260.746H26.682C27.114 260.746 27.468 260.716 27.744 260.656C28.032 260.608 28.254 260.518 28.41 260.386C28.566 260.266 28.674 260.11 28.734 259.918C28.794 259.726 28.824 259.486 28.824 259.198C28.824 258.658 28.806 258.148 28.77 257.668C28.734 257.176 28.716 256.63 28.716 256.03C28.716 255.418 28.836 254.962 29.076 254.662C29.316 254.35 29.754 254.14 30.39 254.032V253.96C29.754 253.852 29.316 253.648 29.076 253.348C28.836 253.036 28.716 252.574 28.716 251.962C28.716 251.41 28.734 250.87 28.77 250.342C28.806 249.814 28.824 249.298 28.824 248.794C28.824 248.506 28.794 248.266 28.734 248.074C28.674 247.882 28.566 247.726 28.41 247.606C28.254 247.474 28.032 247.384 27.744 247.336C27.468 247.276 27.114 247.246 26.682 247.246H25.8V246.256H26.97C27.546 246.256 28.038 246.298 28.446 246.382C28.866 246.454 29.214 246.586 29.49 246.778C29.766 246.958 29.97 247.21 30.102 247.534C30.234 247.846 30.3 248.236 30.3 248.704C30.3 249.328 30.27 249.904 30.21 250.432C30.162 250.948 30.138 251.494 30.138 252.07C30.138 252.238 30.174 252.406 30.246 252.574C30.318 252.742 30.45 252.892 30.642 253.024C30.834 253.144 31.092 253.246 31.416 253.33C31.752 253.414 32.184 253.456 32.712 253.456V254.536C32.184 254.536 31.752 254.578 31.416 254.662C31.092 254.746 30.834 254.854 30.642 254.986C30.45 255.106 30.318 255.25 30.246 255.418C30.174 255.586 30.138 255.754 30.138 255.922C30.138 256.222 30.144 256.51 30.156 256.786C30.18 257.05 30.198 257.314 30.21 257.578C30.234 257.842 30.252 258.112 30.264 258.388C30.288 258.664 30.3 258.964 30.3 259.288C30.3 259.756 30.234 260.146 30.102 260.458C29.97 260.782 29.766 261.034 29.49 261.214C29.214 261.406 28.866 261.538 28.446 261.61C28.038 261.694 27.546 261.736 26.97 261.736H25.8Z" fill="white"/>
<path d="M176.992 184.942L179.746 177.94H181.258L184.012 184.942H182.5L181.402 181.99L180.538 179.578H180.466L179.602 181.99L178.504 184.942H176.992ZM192.951 190.216C192.303 190.216 191.751 190.126 191.295 189.946C190.851 189.766 190.491 189.514 190.215 189.19C189.951 188.866 189.759 188.482 189.639 188.038C189.519 187.582 189.459 187.078 189.459 186.526V182.638H187.047V181.288L189.531 181.198L189.765 178.408H191.241V181.198H195.399V182.638H191.241V186.526C191.241 187.282 191.391 187.846 191.691 188.218C192.003 188.59 192.561 188.776 193.365 188.776C193.749 188.776 194.103 188.746 194.427 188.686C194.751 188.614 195.069 188.518 195.381 188.398L195.741 189.712C195.345 189.844 194.925 189.958 194.481 190.054C194.037 190.162 193.527 190.216 192.951 190.216ZM201.008 190.216C199.964 190.216 199.202 189.916 198.722 189.316C198.242 188.704 198.002 187.816 198.002 186.652V181.198H199.784V186.418C199.784 187.198 199.922 187.774 200.198 188.146C200.474 188.506 200.948 188.686 201.62 188.686C202.076 188.686 202.49 188.578 202.862 188.362C203.246 188.134 203.654 187.756 204.086 187.228V181.198H205.868V190H204.41L204.266 188.542H204.194C203.762 189.046 203.288 189.454 202.772 189.766C202.268 190.066 201.68 190.216 201.008 190.216ZM209.964 190V181.198H211.44L211.584 183.25H211.638C212.094 182.53 212.646 181.972 213.294 181.576C213.954 181.18 214.68 180.982 215.472 180.982C215.82 180.982 216.126 181.012 216.39 181.072C216.654 181.12 216.924 181.21 217.2 181.342L216.804 182.872C216.504 182.776 216.246 182.704 216.03 182.656C215.814 182.608 215.538 182.584 215.202 182.584C214.566 182.584 213.954 182.764 213.366 183.124C212.778 183.484 212.238 184.108 211.746 184.996V190H209.964ZM225.329 190.216C224.681 190.216 224.129 190.126 223.673 189.946C223.229 189.766 222.869 189.514 222.593 189.19C222.329 188.866 222.137 188.482 222.017 188.038C221.897 187.582 221.837 187.078 221.837 186.526V182.638H219.425V181.288L221.909 181.198L222.143 178.408H223.619V181.198H227.777V182.638H223.619V186.526C223.619 187.282 223.769 187.846 224.069 188.218C224.381 188.59 224.939 188.776 225.743 188.776C226.127 188.776 226.481 188.746 226.805 188.686C227.129 188.614 227.447 188.518 227.759 188.398L228.119 189.712C227.723 189.844 227.303 189.958 226.859 190.054C226.415 190.162 225.905 190.216 225.329 190.216ZM236.338 190.216C235.354 190.216 234.604 189.934 234.088 189.37C233.572 188.806 233.314 187.99 233.314 186.922V178.66H230.29V177.238H235.096V187.03C235.096 187.642 235.246 188.086 235.546 188.362C235.858 188.626 236.26 188.758 236.752 188.758C237.208 188.758 237.736 188.632 238.336 188.38L238.768 189.712C238.348 189.88 237.958 190.006 237.598 190.09C237.25 190.174 236.83 190.216 236.338 190.216ZM245.799 190.216C245.127 190.216 244.503 190.114 243.927 189.91C243.351 189.706 242.847 189.406 242.415 189.01C241.983 188.614 241.641 188.128 241.389 187.552C241.149 186.976 241.029 186.322 241.029 185.59C241.029 184.87 241.155 184.228 241.407 183.664C241.659 183.088 241.989 182.602 242.397 182.206C242.817 181.81 243.297 181.51 243.837 181.306C244.377 181.09 244.941 180.982 245.529 180.982C246.177 180.982 246.753 181.084 247.257 181.288C247.761 181.492 248.181 181.78 248.517 182.152C248.865 182.512 249.129 182.95 249.309 183.466C249.489 183.97 249.579 184.528 249.579 185.14C249.579 185.332 249.573 185.512 249.561 185.68C249.549 185.848 249.531 185.992 249.507 186.112H242.811C242.907 187.024 243.249 187.702 243.837 188.146C244.437 188.59 245.169 188.812 246.033 188.812C246.525 188.812 246.975 188.746 247.383 188.614C247.791 188.47 248.193 188.278 248.589 188.038L249.219 189.172C248.763 189.472 248.247 189.724 247.671 189.928C247.107 190.12 246.483 190.216 245.799 190.216ZM245.583 182.386C245.247 182.386 244.929 182.44 244.629 182.548C244.329 182.644 244.059 182.794 243.819 182.998C243.579 183.202 243.375 183.454 243.207 183.754C243.039 184.054 242.919 184.402 242.847 184.798H247.977C247.917 183.994 247.671 183.394 247.239 182.998C246.819 182.59 246.267 182.386 245.583 182.386ZM253.136 190V181.198H254.612L254.756 183.25H254.81C255.266 182.53 255.818 181.972 256.466 181.576C257.126 181.18 257.852 180.982 258.644 180.982C258.992 180.982 259.298 181.012 259.562 181.072C259.826 181.12 260.096 181.21 260.372 181.342L259.976 182.872C259.676 182.776 259.418 182.704 259.202 182.656C258.986 182.608 258.71 182.584 258.374 182.584C257.738 182.584 257.126 182.764 256.538 183.124C255.95 183.484 255.41 184.108 254.918 184.996V190H253.136ZM266.845 190.216C266.269 190.216 265.717 190.114 265.189 189.91C264.661 189.706 264.193 189.406 263.785 189.01C263.377 188.614 263.053 188.134 262.813 187.57C262.573 186.994 262.453 186.34 262.453 185.608C262.453 184.876 262.573 184.222 262.813 183.646C263.053 183.07 263.377 182.584 263.785 182.188C264.193 181.792 264.661 181.492 265.189 181.288C265.717 181.084 266.269 180.982 266.845 180.982C267.421 180.982 267.973 181.084 268.501 181.288C269.029 181.492 269.497 181.792 269.905 182.188C270.313 182.584 270.637 183.07 270.877 183.646C271.117 184.222 271.237 184.876 271.237 185.608C271.237 186.34 271.117 186.994 270.877 187.57C270.637 188.134 270.313 188.614 269.905 189.01C269.497 189.406 269.029 189.706 268.501 189.91C267.973 190.114 267.421 190.216 266.845 190.216ZM266.845 188.758C267.637 188.758 268.261 188.47 268.717 187.894C269.173 187.318 269.401 186.556 269.401 185.608C269.401 184.66 269.173 183.898 268.717 183.322C268.261 182.746 267.637 182.458 266.845 182.458C266.053 182.458 265.429 182.746 264.973 183.322C264.517 183.898 264.289 184.66 264.289 185.608C264.289 186.556 264.517 187.318 264.973 187.894C265.429 188.47 266.053 188.758 266.845 188.758ZM278.448 190.216C277.764 190.216 277.122 190.114 276.522 189.91C275.934 189.706 275.424 189.406 274.992 189.01C274.56 188.614 274.218 188.134 273.966 187.57C273.726 186.994 273.606 186.34 273.606 185.608C273.606 184.876 273.738 184.222 274.002 183.646C274.266 183.07 274.626 182.584 275.082 182.188C275.538 181.792 276.06 181.492 276.648 181.288C277.248 181.084 277.884 180.982 278.556 180.982C279.276 180.982 279.906 181.108 280.446 181.36C280.986 181.6 281.436 181.894 281.796 182.242L280.932 183.376C280.584 183.088 280.224 182.866 279.852 182.71C279.48 182.542 279.078 182.458 278.646 182.458C278.178 182.458 277.746 182.536 277.35 182.692C276.954 182.836 276.612 183.046 276.324 183.322C276.048 183.598 275.832 183.934 275.676 184.33C275.52 184.714 275.442 185.14 275.442 185.608C275.442 186.076 275.514 186.508 275.658 186.904C275.814 187.288 276.03 187.618 276.306 187.894C276.594 188.17 276.93 188.386 277.314 188.542C277.698 188.686 278.124 188.758 278.592 188.758C279.132 188.758 279.612 188.656 280.032 188.452C280.464 188.248 280.854 188.002 281.202 187.714L281.976 188.866C281.472 189.298 280.92 189.634 280.32 189.874C279.72 190.102 279.096 190.216 278.448 190.216ZM284.795 190V177.238H286.577V185.554H286.649L290.987 181.198H292.985L289.529 184.69L293.417 190H291.455L288.431 185.788L286.577 187.66V190H284.795ZM295.714 184.942L298.468 177.94H299.98L302.734 184.942H301.222L300.124 181.99L299.26 179.578H299.188L298.324 181.99L297.226 184.942H295.714Z" fill="#FFC451"/>
</svg>
