<svg width="699" height="268" viewBox="0 0 699 268" fill="none" xmlns="http://www.w3.org/2000/svg">
<path d="M334 0H594C595.105 0 596 0.895431 596 2V13C596 14.1046 595.105 15 594 15H334V0Z" fill="#FFC451"/>
<path d="M0 2C0 0.89543 0.895431 0 2 0H200V15H2C0.895429 15 0 14.1046 0 13V2Z" fill="#30DEAB"/>
<rect x="201" width="132" height="15" fill="#FF5972"/>
<path d="M0 38C0 35.7909 1.79086 34 4 34H251H498C500.209 34 502 35.7909 502 38V263.188C502 265.397 500.209 267.187 498 267.187H4C1.79086 267.187 0 265.397 0 263.187V38Z" fill="#121922"/>
<path d="M99.7012 128C99.7012 122.938 96.7324 119.781 92.6387 119.781C88.5449 119.781 85.5762 122.938 85.5762 128C85.5762 133.062 88.5449 136.219 92.6387 136.219C96.7324 136.219 99.7012 133.062 99.7012 128ZM97.8262 128C97.8262 132.156 95.5449 134.406 92.6387 134.406C89.7324 134.406 87.4512 132.156 87.4512 128C87.4512 123.844 89.7324 121.594 92.6387 121.594C95.5449 121.594 97.8262 123.844 97.8262 128ZM102.709 140.5H104.553V134.156H104.709C105.115 134.812 105.896 136.25 108.209 136.25C111.209 136.25 113.303 133.844 113.303 130.031C113.303 126.25 111.209 123.844 108.178 123.844C105.834 123.844 105.115 125.281 104.709 125.906H104.49V124H102.709V140.5ZM104.521 130C104.521 127.312 105.709 125.5 107.959 125.5C110.303 125.5 111.459 127.469 111.459 130C111.459 132.562 110.271 134.594 107.959 134.594C105.74 134.594 104.521 132.719 104.521 130ZM116.873 140.5C118.537 140.5 119.709 139.617 120.404 137.75L125.514 124.031L123.498 124L120.186 133.562H120.061L116.748 124H114.748L119.186 136.063L118.842 137C118.17 138.828 117.342 139 115.998 138.656L115.529 140.281C115.717 140.375 116.248 140.5 116.873 140.5ZM129.797 128.781C129.797 126.687 131.094 125.5 132.859 125.5C134.57 125.5 135.609 126.617 135.609 128.5V136H137.453V128.375C137.453 125.312 135.82 123.844 133.391 123.844C131.578 123.844 130.453 124.656 129.891 125.875H129.734V124H127.953V136H129.797V128.781Z" fill="#999FAE"/>
<path d="M96.7012 161V171.438C96.7012 173.781 95.0918 175.469 92.4199 175.469C89.748 175.469 88.1387 173.781 88.1387 171.438V161H86.2012V171.594C86.2012 174.875 88.6543 177.281 92.4199 177.281C96.1855 177.281 98.6387 174.875 98.6387 171.594V161H96.7012ZM104.102 169.781C104.102 167.687 105.398 166.5 107.164 166.5C108.875 166.5 109.914 167.617 109.914 169.5V177H111.758V169.375C111.758 166.312 110.125 164.844 107.695 164.844C105.883 164.844 104.758 165.656 104.195 166.875H104.039V165H102.258V177H104.102V169.781ZM115.127 177H116.971V165H115.127V177ZM116.064 163C116.783 163 117.377 162.438 117.377 161.75C117.377 161.063 116.783 160.5 116.064 160.5C115.346 160.5 114.752 161.063 114.752 161.75C114.752 162.438 115.346 163 116.064 163ZM128.848 167.687C128.27 165.984 126.973 164.844 124.598 164.844C122.066 164.844 120.191 166.281 120.191 168.312C120.191 169.969 121.176 171.078 123.379 171.594L125.379 172.062C126.59 172.344 127.16 172.922 127.16 173.75C127.16 174.781 126.066 175.625 124.348 175.625C122.84 175.625 121.895 174.977 121.566 173.687L119.816 174.125C120.246 176.164 121.926 177.25 124.379 177.25C127.168 177.25 129.066 175.727 129.066 173.656C129.066 171.984 128.02 170.93 125.879 170.406L124.098 169.969C122.676 169.617 122.035 169.141 122.035 168.219C122.035 167.187 123.129 166.437 124.598 166.437C126.207 166.437 126.871 167.328 127.191 168.156L128.848 167.687ZM134.561 177H136.373L138.998 167.781H139.186L141.811 177H143.623L147.279 165H145.342L142.748 174.156H142.623L140.092 165H138.123L135.561 174.188H135.436L132.842 165H130.904L134.561 177ZM153.248 177.281C155.342 177.281 156.436 176.156 156.811 175.375H156.904V177H158.748V169.094C158.748 165.281 155.842 164.844 154.311 164.844C152.498 164.844 150.436 165.469 149.498 167.656L151.248 168.281C151.654 167.406 152.615 166.469 154.373 166.469C156.068 166.469 156.904 167.367 156.904 168.906V168.969C156.904 169.859 155.998 169.781 153.811 170.063C151.584 170.352 149.154 170.844 149.154 173.594C149.154 175.937 150.967 177.281 153.248 177.281ZM153.529 175.625C152.061 175.625 150.998 174.969 150.998 173.687C150.998 172.281 152.279 171.844 153.717 171.656C154.498 171.562 156.592 171.344 156.904 170.969V172.656C156.904 174.156 155.717 175.625 153.529 175.625ZM162.113 181.5H163.957V175.156H164.113C164.52 175.812 165.301 177.25 167.613 177.25C170.613 177.25 172.707 174.844 172.707 171.031C172.707 167.25 170.613 164.844 167.582 164.844C165.238 164.844 164.52 166.281 164.113 166.906H163.895V165H162.113V181.5ZM163.926 171C163.926 168.312 165.113 166.5 167.363 166.5C169.707 166.5 170.863 168.469 170.863 171C170.863 173.562 169.676 175.594 167.363 175.594C165.145 175.594 163.926 173.719 163.926 171Z" fill="#999FAE"/>
<path d="M86.2012 218H91.9824C95.7637 218 97.3262 216.156 97.3262 213.75C97.3262 211.219 95.5762 209.844 94.1074 209.75V209.594C95.4824 209.219 96.7012 208.312 96.7012 206.25C96.7012 203.906 95.1387 202 91.7949 202H86.2012V218ZM88.1387 216.281V210.719H92.0762C94.1699 210.719 95.4824 212.125 95.4824 213.75C95.4824 215.156 94.5137 216.281 91.9824 216.281H88.1387ZM88.1387 209.031V203.719H91.7949C93.9199 203.719 94.8574 204.844 94.8574 206.25C94.8574 207.937 93.4824 209.031 91.7324 209.031H88.1387ZM103.791 218.281C105.885 218.281 106.979 217.156 107.354 216.375H107.447V218H109.291V210.094C109.291 206.281 106.385 205.844 104.854 205.844C103.041 205.844 100.979 206.469 100.041 208.656L101.791 209.281C102.197 208.406 103.158 207.469 104.916 207.469C106.611 207.469 107.447 208.367 107.447 209.906V209.969C107.447 210.859 106.541 210.781 104.354 211.063C102.127 211.352 99.6973 211.844 99.6973 214.594C99.6973 216.937 101.51 218.281 103.791 218.281ZM104.072 216.625C102.604 216.625 101.541 215.969 101.541 214.687C101.541 213.281 102.822 212.844 104.26 212.656C105.041 212.562 107.135 212.344 107.447 211.969V213.656C107.447 215.156 106.26 216.625 104.072 216.625ZM114.5 210.781C114.5 208.687 115.797 207.5 117.562 207.5C119.273 207.5 120.313 208.617 120.313 210.5V218H122.156V210.375C122.156 207.312 120.523 205.844 118.094 205.844C116.281 205.844 115.156 206.656 114.594 207.875H114.437V206H112.656V218H114.5V210.781ZM130.4 218.25C133.057 218.25 134.807 216.625 135.119 214.5H133.275C132.932 215.812 131.838 216.594 130.4 216.594C128.213 216.594 126.807 214.781 126.807 212C126.807 209.281 128.244 207.5 130.4 207.5C132.025 207.5 132.994 208.5 133.275 209.594H135.119C134.807 207.344 132.9 205.844 130.369 205.844C127.119 205.844 124.963 208.406 124.963 212.062C124.963 215.656 127.025 218.25 130.4 218.25ZM142.689 218.25C145.939 218.25 148.127 215.781 148.127 212.062C148.127 208.312 145.939 205.844 142.689 205.844C139.439 205.844 137.252 208.312 137.252 212.062C137.252 215.781 139.439 218.25 142.689 218.25ZM142.689 216.594C140.221 216.594 139.096 214.469 139.096 212.062C139.096 209.656 140.221 207.5 142.689 207.5C145.158 207.5 146.283 209.656 146.283 212.062C146.283 214.469 145.158 216.594 142.689 216.594ZM150.941 218H152.785V210.406C152.785 208.781 154.066 207.594 155.816 207.594C156.309 207.594 156.816 207.688 156.941 207.719V205.844C156.73 205.828 156.246 205.812 155.973 205.812C154.535 205.812 153.285 206.625 152.848 207.812H152.723V206H150.941V218Z" fill="#999FAE"/>
<path d="M431.359 120H429.422L425.422 122.656V124.625L429.328 122.031H429.422V136H431.359V120ZM441.086 136.219C444.281 136.219 446.508 134.352 446.523 131.75C446.508 129.727 445.156 128.008 443.43 127.688V127.594C444.93 127.203 445.914 125.734 445.93 124.031C445.914 121.594 443.867 119.781 441.086 119.781C438.273 119.781 436.227 121.594 436.242 124.031C436.227 125.734 437.211 127.203 438.742 127.594V127.688C436.984 128.008 435.633 129.727 435.648 131.75C435.633 134.352 437.859 136.219 441.086 136.219ZM441.086 134.5C438.891 134.5 437.539 133.375 437.555 131.656C437.539 129.852 439.031 128.562 441.086 128.562C443.109 128.562 444.602 129.852 444.617 131.656C444.602 133.375 443.25 134.5 441.086 134.5ZM441.086 126.906C439.336 126.906 438.102 125.812 438.117 124.156C438.102 122.531 439.289 121.469 441.086 121.469C442.852 121.469 444.039 122.531 444.055 124.156C444.039 125.812 442.805 126.906 441.086 126.906ZM457.674 133C457.674 134.75 458.768 136.219 460.799 136.219C462.799 136.219 463.893 134.75 463.893 133V132.156C463.893 130.406 462.83 128.937 460.799 128.937C458.799 128.937 457.674 130.406 457.674 132.156V133ZM449.705 123.844C449.705 125.594 450.799 127.062 452.83 127.062C454.83 127.062 455.924 125.594 455.924 123.844V123C455.924 121.25 454.861 119.781 452.83 119.781C450.83 119.781 449.705 121.25 449.705 123V123.844ZM450.299 136H452.08L463.08 120H461.299L450.299 136ZM459.268 132.156C459.268 131.188 459.705 130.281 460.799 130.281C461.924 130.281 462.299 131.188 462.299 132.156V133C462.299 133.969 461.893 134.875 460.799 134.875C459.674 134.875 459.268 133.969 459.268 133V132.156ZM451.299 123C451.299 122.031 451.736 121.125 452.83 121.125C453.955 121.125 454.33 122.031 454.33 123V123.844C454.33 124.812 453.924 125.719 452.83 125.719C451.705 125.719 451.299 124.812 451.299 123.844V123Z" fill="#999FAE"/>
<path d="M421.861 177H431.955V175.281H424.518V175.156L428.111 171.312C430.861 168.367 431.674 166.992 431.674 165.219C431.674 162.75 429.674 160.781 426.861 160.781C424.057 160.781 421.924 162.687 421.924 165.5H423.768C423.768 163.68 424.947 162.469 426.799 162.469C428.533 162.469 429.861 163.531 429.861 165.219C429.861 166.695 428.994 167.789 427.143 169.812L421.861 175.594V177ZM440.4 177.219C443.932 177.219 445.963 174.227 445.963 169C445.963 163.813 443.9 160.781 440.4 160.781C436.9 160.781 434.838 163.813 434.838 169C434.838 174.227 436.869 177.219 440.4 177.219ZM440.4 175.5C438.072 175.5 436.713 173.164 436.713 169C436.713 164.844 438.088 162.469 440.4 162.469C442.713 162.469 444.088 164.844 444.088 169C444.088 173.164 442.729 175.5 440.4 175.5ZM457.088 174C457.088 175.75 458.182 177.219 460.213 177.219C462.213 177.219 463.307 175.75 463.307 174V173.156C463.307 171.406 462.244 169.937 460.213 169.937C458.213 169.937 457.088 171.406 457.088 173.156V174ZM449.119 164.844C449.119 166.594 450.213 168.062 452.244 168.062C454.244 168.062 455.338 166.594 455.338 164.844V164C455.338 162.25 454.275 160.781 452.244 160.781C450.244 160.781 449.119 162.25 449.119 164V164.844ZM449.713 177H451.494L462.494 161H460.713L449.713 177ZM458.682 173.156C458.682 172.188 459.119 171.281 460.213 171.281C461.338 171.281 461.713 172.188 461.713 173.156V174C461.713 174.969 461.307 175.875 460.213 175.875C459.088 175.875 458.682 174.969 458.682 174V173.156ZM450.713 164C450.713 163.031 451.15 162.125 452.244 162.125C453.369 162.125 453.744 163.031 453.744 164V164.844C453.744 165.812 453.338 166.719 452.244 166.719C451.119 166.719 450.713 165.812 450.713 164.844V164Z" fill="#999FAE"/>
<path d="M427.195 218.219C430.43 218.258 432.539 215.82 432.539 212.844C432.539 209.75 430.25 207.531 427.508 207.531C425.859 207.531 424.445 208.336 423.57 209.656H423.445C423.453 205.758 424.969 203.5 427.445 203.5C429.133 203.5 430.148 204.562 430.508 206H432.414C432.023 203.516 430.133 201.781 427.445 201.781C423.844 201.781 421.633 204.969 421.633 210.625C421.633 216.539 424.57 218.188 427.195 218.219ZM427.195 216.5C425.188 216.5 423.719 214.789 423.727 212.875C423.734 210.961 425.273 209.25 427.258 209.25C429.219 209.25 430.664 210.859 430.664 212.844C430.664 214.875 429.156 216.5 427.195 216.5ZM435.611 218H445.705V216.281H438.268V216.156L441.861 212.312C444.611 209.367 445.424 207.992 445.424 206.219C445.424 203.75 443.424 201.781 440.611 201.781C437.807 201.781 435.674 203.687 435.674 206.5H437.518C437.518 204.68 438.697 203.469 440.549 203.469C442.283 203.469 443.611 204.531 443.611 206.219C443.611 207.695 442.744 208.789 440.893 210.812L435.611 216.594V218ZM457.088 215C457.088 216.75 458.182 218.219 460.213 218.219C462.213 218.219 463.307 216.75 463.307 215V214.156C463.307 212.406 462.244 210.937 460.213 210.937C458.213 210.937 457.088 212.406 457.088 214.156V215ZM449.119 205.844C449.119 207.594 450.213 209.062 452.244 209.062C454.244 209.062 455.338 207.594 455.338 205.844V205C455.338 203.25 454.275 201.781 452.244 201.781C450.244 201.781 449.119 203.25 449.119 205V205.844ZM449.713 218H451.494L462.494 202H460.713L449.713 218ZM458.682 214.156C458.682 213.188 459.119 212.281 460.213 212.281C461.338 212.281 461.713 213.188 461.713 214.156V215C461.713 215.969 461.307 216.875 460.213 216.875C459.088 216.875 458.682 215.969 458.682 215V214.156ZM450.713 205C450.713 204.031 451.15 203.125 452.244 203.125C453.369 203.125 453.744 204.031 453.744 205V205.844C453.744 206.812 453.338 207.719 452.244 207.719C451.119 207.719 450.713 206.812 450.713 205.844V205Z" fill="#999FAE"/>
<path d="M318.309 120H316.371L312.371 122.656V124.625L316.277 122.031H316.371V136H318.309V120ZM323.34 136.125C324.113 136.125 324.746 135.492 324.746 134.719C324.746 133.945 324.113 133.312 323.34 133.312C322.566 133.312 321.934 133.945 321.934 134.719C321.934 135.492 322.566 136.125 323.34 136.125ZM332.701 136.219C335.748 136.219 337.982 133.969 337.982 130.906C337.982 127.805 335.826 125.531 332.889 125.531C331.811 125.531 330.764 125.914 330.107 126.437H330.014L330.576 121.719H337.264V120H328.951L327.982 127.875L329.795 128.094C330.459 127.617 331.592 127.273 332.576 127.281C334.615 127.297 336.107 128.844 336.107 130.937C336.107 132.992 334.67 134.5 332.701 134.5C331.061 134.5 329.756 133.445 329.607 132H327.732C327.85 134.438 329.951 136.219 332.701 136.219ZM346.211 136.219C349.406 136.219 351.633 134.352 351.648 131.75C351.633 129.727 350.281 128.008 348.555 127.688V127.594C350.055 127.203 351.039 125.734 351.055 124.031C351.039 121.594 348.992 119.781 346.211 119.781C343.398 119.781 341.352 121.594 341.367 124.031C341.352 125.734 342.336 127.203 343.867 127.594V127.688C342.109 128.008 340.758 129.727 340.773 131.75C340.758 134.352 342.984 136.219 346.211 136.219ZM346.211 134.5C344.016 134.5 342.664 133.375 342.68 131.656C342.664 129.852 344.156 128.562 346.211 128.562C348.234 128.562 349.727 129.852 349.742 131.656C349.727 133.375 348.375 134.5 346.211 134.5ZM346.211 126.906C344.461 126.906 343.227 125.812 343.242 124.156C343.227 122.531 344.414 121.469 346.211 121.469C347.977 121.469 349.164 122.531 349.18 124.156C349.164 125.812 347.93 126.906 346.211 126.906ZM359.955 136.219C363.189 136.258 365.299 133.82 365.299 130.844C365.299 127.75 363.01 125.531 360.268 125.531C358.619 125.531 357.205 126.336 356.33 127.656H356.205C356.213 123.758 357.729 121.5 360.205 121.5C361.893 121.5 362.908 122.562 363.268 124H365.174C364.783 121.516 362.893 119.781 360.205 119.781C356.604 119.781 354.393 122.969 354.393 128.625C354.393 134.539 357.33 136.188 359.955 136.219ZM359.955 134.5C357.947 134.5 356.479 132.789 356.486 130.875C356.494 128.961 358.033 127.25 360.018 127.25C361.979 127.25 363.424 128.859 363.424 130.844C363.424 132.875 361.916 134.5 359.955 134.5Z" fill="#F3F4F4"/>
<path d="M319.971 161H318.033L314.033 163.656V165.625L317.939 163.031H318.033V177H319.971V161ZM325.002 177.125C325.775 177.125 326.408 176.492 326.408 175.719C326.408 174.945 325.775 174.312 325.002 174.312C324.229 174.312 323.596 174.945 323.596 175.719C323.596 176.492 324.229 177.125 325.002 177.125ZM329.863 177H331.895L339.02 162.812V161H328.77V162.719H337.02V162.844L329.863 177ZM342.861 177H344.893L352.018 162.812V161H341.768V162.719H350.018V162.844L342.861 177ZM359.732 177.219C362.928 177.219 365.154 175.352 365.17 172.75C365.154 170.727 363.803 169.008 362.076 168.688V168.594C363.576 168.203 364.561 166.734 364.576 165.031C364.561 162.594 362.514 160.781 359.732 160.781C356.92 160.781 354.873 162.594 354.889 165.031C354.873 166.734 355.857 168.203 357.389 168.594V168.688C355.631 169.008 354.279 170.727 354.295 172.75C354.279 175.352 356.506 177.219 359.732 177.219ZM359.732 175.5C357.537 175.5 356.186 174.375 356.201 172.656C356.186 170.852 357.678 169.562 359.732 169.562C361.756 169.562 363.248 170.852 363.264 172.656C363.248 174.375 361.896 175.5 359.732 175.5ZM359.732 167.906C357.982 167.906 356.748 166.812 356.764 165.156C356.748 163.531 357.936 162.469 359.732 162.469C361.498 162.469 362.686 163.531 362.701 165.156C362.686 166.812 361.451 167.906 359.732 167.906Z" fill="#F3F4F4"/>
<path d="M299.943 201.781C296.693 201.742 294.6 204.187 294.6 207.125C294.6 210.219 296.881 212.438 299.631 212.438C301.287 212.438 302.693 211.625 303.568 210.312H303.693C303.693 214.25 302.162 216.5 299.693 216.5C298.006 216.5 296.975 215.437 296.631 213.969H294.725C295.1 216.5 297.006 218.219 299.693 218.219C303.287 218.219 305.506 215.031 305.506 209.344C305.506 203.469 302.568 201.812 299.943 201.781ZM299.943 203.5C301.943 203.5 303.412 205.219 303.412 207.094C303.412 209 301.85 210.719 299.881 210.719C297.912 210.719 296.475 209.125 296.475 207.125C296.475 205.125 297.975 203.5 299.943 203.5ZM309.395 218.125C310.168 218.125 310.801 217.492 310.801 216.719C310.801 215.945 310.168 215.312 309.395 215.312C308.621 215.312 307.988 215.945 307.988 216.719C307.988 217.492 308.621 218.125 309.395 218.125ZM318.709 218.219C321.904 218.219 324.131 216.352 324.146 213.75C324.131 211.727 322.779 210.008 321.053 209.688V209.594C322.553 209.203 323.537 207.734 323.553 206.031C323.537 203.594 321.49 201.781 318.709 201.781C315.896 201.781 313.85 203.594 313.865 206.031C313.85 207.734 314.834 209.203 316.365 209.594V209.688C314.607 210.008 313.256 211.727 313.271 213.75C313.256 216.352 315.482 218.219 318.709 218.219ZM318.709 216.5C316.514 216.5 315.162 215.375 315.178 213.656C315.162 211.852 316.654 210.562 318.709 210.562C320.732 210.562 322.225 211.852 322.24 213.656C322.225 215.375 320.873 216.5 318.709 216.5ZM318.709 208.906C316.959 208.906 315.725 207.812 315.74 206.156C315.725 204.531 316.912 203.469 318.709 203.469C320.475 203.469 321.662 204.531 321.678 206.156C321.662 207.812 320.428 208.906 318.709 208.906ZM332.141 218.219C335.188 218.219 337.422 215.969 337.422 212.906C337.422 209.805 335.266 207.531 332.328 207.531C331.25 207.531 330.203 207.914 329.547 208.437H329.453L330.016 203.719H336.703V202H328.391L327.422 209.875L329.234 210.094C329.898 209.617 331.031 209.273 332.016 209.281C334.055 209.297 335.547 210.844 335.547 212.937C335.547 214.992 334.109 216.5 332.141 216.5C330.5 216.5 329.195 215.445 329.047 214H327.172C327.289 216.438 329.391 218.219 332.141 218.219ZM340.15 214.719H347.682V218H349.525V214.719H351.713V213H349.525V202H347.182L340.15 213.125V214.719ZM347.682 213H342.244V212.875L347.557 204.469H347.682V213ZM360.047 218.219C363.148 218.219 365.453 216.273 365.453 213.656C365.453 211.625 364.25 210.148 362.234 209.812V209.688C363.852 209.195 364.859 207.867 364.859 206.063C364.859 203.797 363.07 201.781 360.109 201.781C357.344 201.781 355.047 203.484 354.953 206H356.828C356.898 204.406 358.414 203.469 360.078 203.469C361.844 203.469 362.984 204.539 362.984 206.156C362.984 207.844 361.664 208.937 359.766 208.937H358.484V210.656H359.766C362.195 210.656 363.547 211.891 363.547 213.656C363.547 215.352 362.07 216.5 360.016 216.5C358.164 216.5 356.695 215.547 356.578 214H354.609C354.727 216.516 356.945 218.219 360.047 218.219Z" fill="#F3F4F4"/>
<path d="M53.4142 75.179C53.4142 69.4688 49.8688 66.2131 45.2409 66.2131C40.5875 66.2131 37.0676 69.4688 37.0676 75.179C37.0676 80.8636 40.5875 84.1449 45.2409 84.1449C49.8688 84.1449 53.4142 80.8892 53.4142 75.179ZM49.6728 75.179C49.6728 78.8778 47.9171 80.8807 45.2409 80.8807C42.5563 80.8807 40.8091 78.8778 40.8091 75.179C40.8091 71.4801 42.5563 69.4773 45.2409 69.4773C47.9171 69.4773 49.6728 71.4801 49.6728 75.179ZM56.0797 83.9062H59.7104V76.5C59.7104 74.8892 60.8865 73.7812 62.4888 73.7812C62.9917 73.7812 63.682 73.8665 64.0229 73.9773V70.7557C63.699 70.679 63.2473 70.6278 62.8809 70.6278C61.415 70.6278 60.2132 71.4801 59.736 73.0994H59.5996V70.8153H56.0797V83.9062ZM70.1145 84.1193C72.2282 84.1193 73.3276 82.9006 73.8304 81.8097H73.9838V83.9062H77.5634V66.4517H73.9412V73.0142H73.8304C73.3446 71.9489 72.2963 70.6449 70.106 70.6449C67.2338 70.6449 64.8049 72.8778 64.8049 77.3778C64.8049 81.7585 67.1316 84.1193 70.1145 84.1193ZM71.2651 81.2301C69.4838 81.2301 68.5123 79.6449 68.5123 77.3608C68.5123 75.0938 69.4668 73.5341 71.2651 73.5341C73.0293 73.5341 74.0179 75.0256 74.0179 77.3608C74.0179 79.696 73.0123 81.2301 71.2651 81.2301ZM86.5144 84.1619C89.753 84.1619 91.9348 82.5852 92.4462 80.1562L89.0882 79.9347C88.7218 80.9318 87.7843 81.4517 86.574 81.4517C84.7587 81.4517 83.6081 80.25 83.6081 78.2983V78.2898H92.5229V77.2926C92.5229 72.8438 89.8297 70.6449 86.3695 70.6449C82.5172 70.6449 80.0201 73.3807 80.0201 77.4205C80.0201 81.571 82.4831 84.1619 86.5144 84.1619ZM83.6081 76.0398C83.6848 74.5483 84.8184 73.3551 86.4292 73.3551C88.0059 73.3551 89.0968 74.4801 89.1053 76.0398H83.6081ZM94.8922 83.9062H98.5229V76.5C98.5229 74.8892 99.699 73.7812 101.301 73.7812C101.804 73.7812 102.494 73.8665 102.835 73.9773V70.7557C102.512 70.679 102.06 70.6278 101.693 70.6278C100.227 70.6278 99.0257 71.4801 98.5485 73.0994H98.4121V70.8153H94.8922V83.9062ZM110.267 83.9062H113.898V76.5C113.898 74.8892 115.074 73.7812 116.676 73.7812C117.179 73.7812 117.869 73.8665 118.21 73.9773V70.7557C117.887 70.679 117.435 70.6278 117.068 70.6278C115.602 70.6278 114.401 71.4801 113.923 73.0994H113.787V70.8153H110.267V83.9062ZM125.393 84.1619C129.365 84.1619 131.836 81.4432 131.836 77.4119C131.836 73.3551 129.365 70.6449 125.393 70.6449C121.421 70.6449 118.95 73.3551 118.95 77.4119C118.95 81.4432 121.421 84.1619 125.393 84.1619ZM125.41 81.3494C123.578 81.3494 122.64 79.6705 122.64 77.3864C122.64 75.1023 123.578 73.4148 125.41 73.4148C127.208 73.4148 128.146 75.1023 128.146 77.3864C128.146 79.6705 127.208 81.3494 125.41 81.3494ZM142.592 78.3324C142.6 80.0881 141.399 81.0085 140.095 81.0085C138.722 81.0085 137.836 80.0455 137.828 78.5028V70.8153H134.197V79.1506C134.205 82.2102 135.995 84.0767 138.629 84.0767C140.597 84.0767 142.012 83.0625 142.6 81.5284H142.737V83.9062H146.222V70.8153H142.592V78.3324ZM156.09 70.8153H153.627V67.679H149.996V70.8153H148.206V73.5426H149.996V80.3608C149.979 82.9261 151.726 84.196 154.36 84.0852C155.297 84.0511 155.962 83.8636 156.328 83.7443L155.757 81.0426C155.578 81.0767 155.195 81.1619 154.854 81.1619C154.129 81.1619 153.627 80.8892 153.627 79.8835V73.5426H156.09V70.8153ZM158.455 83.9062H162.085V70.8153H158.455V83.9062ZM160.279 69.1278C161.361 69.1278 162.247 68.3011 162.247 67.2869C162.247 66.2812 161.361 65.4545 160.279 65.4545C159.205 65.4545 158.318 66.2812 158.318 67.2869C158.318 68.3011 159.205 69.1278 160.279 69.1278ZM168.624 76.3381C168.633 74.6506 169.639 73.6619 171.105 73.6619C172.562 73.6619 173.44 74.6165 173.431 76.2188V83.9062H177.062V75.571C177.062 72.5199 175.272 70.6449 172.545 70.6449C170.602 70.6449 169.195 71.5994 168.607 73.125H168.454V70.8153H164.994V83.9062H168.624V76.3381ZM185.821 89.0881C189.563 89.0881 192.222 87.3835 192.222 84.0341V70.8153H188.617V73.0142H188.48C187.994 71.9489 186.929 70.6449 184.739 70.6449C181.867 70.6449 179.438 72.8778 179.438 77.3352C179.438 81.6903 181.798 83.7188 184.747 83.7188C186.835 83.7188 188.003 82.6705 188.48 81.5881H188.634V83.983C188.634 85.7812 187.483 86.4801 185.906 86.4801C184.304 86.4801 183.494 85.7812 183.196 84.9886L179.838 85.4403C180.273 87.5028 182.293 89.0881 185.821 89.0881ZM185.898 80.9915C184.117 80.9915 183.145 79.5767 183.145 77.3182C183.145 75.0938 184.1 73.5341 185.898 73.5341C187.662 73.5341 188.651 75.0256 188.651 77.3182C188.651 79.6278 187.645 80.9915 185.898 80.9915Z" fill="white"/>
<rect x="39.4434" y="114.719" width="28.6857" height="28.7" rx="2" fill="#30DEAB"/>
<rect x="39.4434" y="155.975" width="28.6857" height="28.7" rx="2" fill="#FF5972"/>
<rect x="39.4434" y="197.231" width="28.6857" height="28.7" rx="2" fill="#FFC451"/>
</svg>
